<ttFont>
    <TTGlyph name="A" xMin="96" yMin="-53" xMax="1651" yMax="1640">
      <contour>
        <pt x="1325" y="670" on="1"/>
        <pt x="1305" y="651" on="0"/>
        <pt x="1259" y="612" on="0"/>
        <pt x="1233" y="592" on="1"/>
        <pt x="1258" y="531" on="0"/>
        <pt x="1307" y="420" on="0"/>
        <pt x="1350" y="327" on="0"/>
        <pt x="1388" y="257" on="0"/>
        <pt x="1403" y="236" on="1"/>
        <pt x="1424" y="207" on="0"/>
        <pt x="1450" y="185" on="1"/>
        <pt x="1473" y="166" on="0"/>
        <pt x="1534" y="135" on="0"/>
        <pt x="1571" y="135" on="1"/>
        <pt x="1608" y="135" on="0"/>
        <pt x="1651" y="160" on="1"/>
        <pt x="1615" y="122" on="0"/>
        <pt x="1534" y="49" on="0"/>
        <pt x="1445" y="-9" on="0"/>
        <pt x="1350" y="-45" on="0"/>
        <pt x="1300" y="-45" on="1"/>
        <pt x="1262" y="-45" on="0"/>
        <pt x="1198" y="0" on="0"/>
        <pt x="1167" y="57" on="1"/>
        <pt x="1156" y="75" on="0"/>
        <pt x="1120" y="154" on="0"/>
        <pt x="1073" y="263" on="0"/>
        <pt x="1017" y="396" on="0"/>
        <pt x="987" y="469" on="1"/>
        <pt x="924" y="450" on="0"/>
        <pt x="777" y="428" on="0"/>
        <pt x="692" y="428" on="1"/>
        <pt x="397" y="428" on="1"/>
        <pt x="315" y="236" on="1"/>
        <pt x="308" y="217" on="0"/>
        <pt x="303" y="178" on="0"/>
        <pt x="315" y="146" on="0"/>
        <pt x="350" y="125" on="0"/>
        <pt x="385" y="125" on="1"/>
        <pt x="405" y="125" on="0"/>
        <pt x="455" y="133" on="0"/>
        <pt x="487" y="141" on="1"/>
        <pt x="431" y="88" on="0"/>
        <pt x="349" y="14" on="0"/>
        <pt x="275" y="-32" on="0"/>
        <pt x="199" y="-53" on="0"/>
        <pt x="150" y="-53" on="1"/>
        <pt x="121" y="-53" on="0"/>
        <pt x="96" y="-25" on="0"/>
        <pt x="96" y="0" on="1"/>
        <pt x="96" y="32" on="0"/>
        <pt x="129" y="124" on="0"/>
        <pt x="154" y="180" on="1"/>
        <pt x="175" y="231" on="0"/>
        <pt x="236" y="369" on="1"/>
        <pt x="262" y="428" on="0"/>
        <pt x="336" y="596" on="0"/>
        <pt x="438" y="825" on="0"/>
        <pt x="569" y="1123" on="0"/>
        <pt x="653" y="1311" on="1"/>
        <pt x="700" y="1350" on="1"/>
        <pt x="700" y="1381" on="0"/>
        <pt x="710" y="1427" on="0"/>
        <pt x="729" y="1462" on="0"/>
        <pt x="755" y="1490" on="0"/>
        <pt x="770" y="1503" on="1"/>
        <pt x="788" y="1518" on="0"/>
        <pt x="813" y="1538" on="1"/>
        <pt x="855" y="1572" on="0"/>
        <pt x="936" y="1640" on="1"/>
        <pt x="924" y="1617" on="0"/>
        <pt x="915" y="1560" on="0"/>
        <pt x="915" y="1532" on="1"/>
        <pt x="915" y="1503" on="0"/>
        <pt x="921" y="1450" on="0"/>
        <pt x="925" y="1430" on="1"/>
        <pt x="929" y="1406" on="0"/>
        <pt x="936" y="1386" on="1"/>
        <pt x="947" y="1350" on="0"/>
        <pt x="1001" y="1194" on="0"/>
        <pt x="1076" y="991" on="0"/>
        <pt x="1164" y="761" on="0"/>
        <pt x="1208" y="651" on="1"/>
        <pt x="1237" y="655" on="0"/>
        <pt x="1281" y="663" on="0"/>
        <pt x="1296" y="665" on="1"/>
        <pt x="1313" y="668" on="0"/>
      </contour>
      <contour>
        <pt x="729" y="1159" on="1"/>
        <pt x="658" y="1004" on="0"/>
        <pt x="532" y="733" on="0"/>
        <pt x="475" y="600" on="1"/>
        <pt x="609" y="603" on="0"/>
        <pt x="833" y="615" on="0"/>
        <pt x="924" y="623" on="1"/>
        <pt x="892" y="701" on="0"/>
        <pt x="833" y="856" on="0"/>
        <pt x="782" y="996" on="0"/>
        <pt x="741" y="1116" on="0"/>
      </contour>
    </TTGlyph>
    <TTGlyph name="AE" xMin="90" yMin="-53" xMax="2445" yMax="1640">
      <contour>
        <pt x="2187" y="1249" on="1"/>
        <pt x="2211" y="1268" on="0"/>
        <pt x="2206" y="1302" on="0"/>
        <pt x="2194" y="1315" on="1"/>
        <pt x="2180" y="1330" on="0"/>
        <pt x="2154" y="1343" on="1"/>
        <pt x="2106" y="1366" on="0"/>
        <pt x="1955" y="1386" on="0"/>
        <pt x="1870" y="1386" on="1"/>
        <pt x="1749" y="1386" on="0"/>
        <pt x="1534" y="1342" on="0"/>
        <pt x="1367" y="1225" on="0"/>
        <pt x="1259" y="1020" on="0"/>
        <pt x="1245" y="860" on="1"/>
        <pt x="1307" y="858" on="0"/>
        <pt x="1428" y="858" on="0"/>
        <pt x="1487" y="858" on="1"/>
        <pt x="1557" y="858" on="0"/>
        <pt x="1733" y="865" on="0"/>
        <pt x="1915" y="874" on="0"/>
        <pt x="2091" y="884" on="0"/>
        <pt x="2234" y="891" on="0"/>
        <pt x="2329" y="891" on="0"/>
        <pt x="2339" y="887" on="1"/>
        <pt x="2351" y="881" on="0"/>
        <pt x="2336" y="854" on="0"/>
        <pt x="2293" y="819" on="0"/>
        <pt x="2230" y="779" on="0"/>
        <pt x="2160" y="742" on="0"/>
        <pt x="2089" y="711" on="0"/>
        <pt x="2060" y="702" on="1"/>
        <pt x="2083" y="741" on="0"/>
        <pt x="2054" y="774" on="0"/>
        <pt x="1989" y="774" on="1"/>
        <pt x="1960" y="774" on="0"/>
        <pt x="1912" y="772" on="0"/>
        <pt x="1850" y="767" on="0"/>
        <pt x="1758" y="760" on="0"/>
        <pt x="1612" y="749" on="0"/>
        <pt x="1396" y="734" on="0"/>
        <pt x="1241" y="725" on="1"/>
        <pt x="1245" y="563" on="0"/>
        <pt x="1348" y="337" on="0"/>
        <pt x="1527" y="191" on="0"/>
        <pt x="1774" y="114" on="0"/>
        <pt x="1923" y="102" on="1"/>
        <pt x="2009" y="98" on="0"/>
        <pt x="2093" y="110" on="1"/>
        <pt x="2129" y="115" on="0"/>
        <pt x="2208" y="133" on="0"/>
        <pt x="2287" y="162" on="0"/>
        <pt x="2363" y="204" on="0"/>
        <pt x="2396" y="233" on="1"/>
        <pt x="2322" y="170" on="0"/>
        <pt x="2161" y="67" on="0"/>
        <pt x="1990" y="-8" on="0"/>
        <pt x="1814" y="-49" on="0"/>
        <pt x="1726" y="-49" on="1"/>
        <pt x="1664" y="-49" on="0"/>
        <pt x="1528" y="-33" on="0"/>
        <pt x="1391" y="5" on="0"/>
        <pt x="1261" y="66" on="0"/>
        <pt x="1148" y="156" on="0"/>
        <pt x="1060" y="277" on="0"/>
        <pt x="1034" y="356" on="1"/>
        <pt x="985" y="471" on="1"/>
        <pt x="922" y="451" on="0"/>
        <pt x="773" y="428" on="0"/>
        <pt x="686" y="428" on="1"/>
        <pt x="391" y="428" on="1"/>
        <pt x="309" y="236" on="1"/>
        <pt x="302" y="217" on="0"/>
        <pt x="297" y="178" on="0"/>
        <pt x="309" y="146" on="0"/>
        <pt x="344" y="125" on="0"/>
        <pt x="379" y="125" on="1"/>
        <pt x="399" y="125" on="0"/>
        <pt x="449" y="133" on="0"/>
        <pt x="481" y="141" on="1"/>
        <pt x="425" y="88" on="0"/>
        <pt x="342" y="14" on="0"/>
        <pt x="268" y="-32" on="0"/>
        <pt x="192" y="-53" on="0"/>
        <pt x="143" y="-53" on="1"/>
        <pt x="114" y="-53" on="0"/>
        <pt x="90" y="-25" on="0"/>
        <pt x="90" y="0" on="1"/>
        <pt x="90" y="32" on="0"/>
        <pt x="123" y="124" on="0"/>
        <pt x="147" y="180" on="1"/>
        <pt x="169" y="231" on="0"/>
        <pt x="230" y="369" on="1"/>
        <pt x="256" y="428" on="0"/>
        <pt x="330" y="596" on="0"/>
        <pt x="432" y="825" on="0"/>
        <pt x="563" y="1123" on="0"/>
        <pt x="647" y="1311" on="1"/>
        <pt x="694" y="1350" on="1"/>
        <pt x="694" y="1381" on="0"/>
        <pt x="704" y="1427" on="0"/>
        <pt x="723" y="1462" on="0"/>
        <pt x="749" y="1490" on="0"/>
        <pt x="764" y="1503" on="1"/>
        <pt x="782" y="1518" on="0"/>
        <pt x="807" y="1538" on="1"/>
        <pt x="849" y="1572" on="0"/>
        <pt x="930" y="1640" on="1"/>
        <pt x="917" y="1617" on="0"/>
        <pt x="909" y="1560" on="0"/>
        <pt x="909" y="1532" on="1"/>
        <pt x="909" y="1466" on="0"/>
        <pt x="949" y="1306" on="0"/>
        <pt x="1006" y="1144" on="0"/>
        <pt x="1068" y="995" on="0"/>
        <pt x="1090" y="940" on="1"/>
        <pt x="1135" y="1034" on="0"/>
        <pt x="1265" y="1193" on="0"/>
        <pt x="1423" y="1322" on="0"/>
        <pt x="1606" y="1419" on="0"/>
        <pt x="1801" y="1485" on="0"/>
        <pt x="2005" y="1518" on="0"/>
        <pt x="2105" y="1518" on="1"/>
        <pt x="2161" y="1518" on="0"/>
        <pt x="2256" y="1508" on="0"/>
        <pt x="2331" y="1494" on="0"/>
        <pt x="2385" y="1477" on="0"/>
        <pt x="2400" y="1470" on="1"/>
        <pt x="2445" y="1450" on="0"/>
        <pt x="2445" y="1423" on="1"/>
        <pt x="2445" y="1407" on="0"/>
        <pt x="2412" y="1371" on="0"/>
        <pt x="2361" y="1335" on="0"/>
        <pt x="2300" y="1302" on="0"/>
        <pt x="2243" y="1274" on="0"/>
        <pt x="2197" y="1254" on="0"/>
      </contour>
      <contour>
        <pt x="723" y="1161" on="1"/>
        <pt x="688" y="1083" on="0"/>
        <pt x="621" y="938" on="0"/>
        <pt x="558" y="800" on="0"/>
        <pt x="497" y="667" on="0"/>
        <pt x="469" y="600" on="1"/>
        <pt x="606" y="603" on="0"/>
        <pt x="831" y="615" on="0"/>
        <pt x="924" y="623" on="1"/>
        <pt x="892" y="702" on="0"/>
        <pt x="831" y="858" on="0"/>
        <pt x="778" y="999" on="0"/>
        <pt x="735" y="1118" on="0"/>
      </contour>
    </TTGlyph>
    <TTGlyph name="AEacute" xMin="90" yMin="-53" xMax="2445" yMax="1964">
      <component glyphName="AE" x="0" y="0" flags="0x204"/>
      <component glyphName="acute" x="1196" y="283" flags="0x4"/>
    </TTGlyph>
    <TTGlyph name="Aacute" xMin="102" yMin="-53" xMax="1657" yMax="2043">
      <component glyphName="A" x="6" y="0" flags="0x4"/>
      <component glyphName="acute" x="737" y="362" flags="0x4"/>
    </TTGlyph>
    <TTGlyph name="Abreve" xMin="96" yMin="-53" xMax="1651" yMax="2025">
      <component glyphName="A" x="0" y="0" flags="0x204"/>
      <component glyphName="breve" x="418" y="399" flags="0x4"/>
    </TTGlyph>
    <TTGlyph name="Acircumflex" xMin="102" yMin="-53" xMax="1657" yMax="1947">
      <component glyphName="A" x="6" y="0" flags="0x4"/>
      <component glyphName="circumflex" x="539" y="319" flags="0x4"/>
    </TTGlyph>
    <TTGlyph name="Adieresis" xMin="102" yMin="-53" xMax="1657" yMax="1856">
      <component glyphName="A" x="6" y="0" flags="0x4"/>
      <component glyphName="dieresis" x="434" y="334" flags="0x4"/>
    </TTGlyph>
    <TTGlyph name="Agrave" xMin="102" yMin="-53" xMax="1657" yMax="1991">
      <component glyphName="A" x="6" y="0" flags="0x4"/>
      <component glyphName="grave" x="338" y="285" flags="0x4"/>
    </TTGlyph>
    <TTGlyph name="Amacron" xMin="96" yMin="-53" xMax="1651" yMax="1837">
      <component glyphName="A" x="0" y="0" flags="0x204"/>
      <component glyphName="macron" x="393" y="375" flags="0x4"/>
    </TTGlyph>
    <TTGlyph name="Aogonek" xMin="96" yMin="-471" xMax="1651" yMax="1640">
      <contour>
        <pt x="1651" y="-254" on="1"/>
        <pt x="1616" y="-282" on="0"/>
        <pt x="1524" y="-357" on="0"/>
        <pt x="1422" y="-424" on="0"/>
        <pt x="1317" y="-471" on="0"/>
        <pt x="1270" y="-471" on="1"/>
        <pt x="1235" y="-471" on="0"/>
        <pt x="1173" y="-441" on="0"/>
        <pt x="1127" y="-391" on="0"/>
        <pt x="1100" y="-327" on="0"/>
        <pt x="1100" y="-293" on="1"/>
        <pt x="1100" y="-215" on="0"/>
        <pt x="1184" y="-82" on="0"/>
        <pt x="1247" y="-33" on="1"/>
        <pt x="1226" y="-22" on="0"/>
        <pt x="1186" y="20" on="0"/>
        <pt x="1167" y="57" on="1"/>
        <pt x="1156" y="75" on="0"/>
        <pt x="1120" y="154" on="0"/>
        <pt x="1073" y="263" on="0"/>
        <pt x="1017" y="396" on="0"/>
        <pt x="987" y="469" on="1"/>
        <pt x="924" y="450" on="0"/>
        <pt x="777" y="428" on="0"/>
        <pt x="692" y="428" on="1"/>
        <pt x="397" y="428" on="1"/>
        <pt x="315" y="236" on="1"/>
        <pt x="308" y="217" on="0"/>
        <pt x="303" y="178" on="0"/>
        <pt x="315" y="146" on="0"/>
        <pt x="350" y="125" on="0"/>
        <pt x="385" y="125" on="1"/>
        <pt x="405" y="125" on="0"/>
        <pt x="455" y="133" on="0"/>
        <pt x="487" y="141" on="1"/>
        <pt x="431" y="88" on="0"/>
        <pt x="349" y="14" on="0"/>
        <pt x="275" y="-32" on="0"/>
        <pt x="199" y="-53" on="0"/>
        <pt x="150" y="-53" on="1"/>
        <pt x="121" y="-53" on="0"/>
        <pt x="96" y="-25" on="0"/>
        <pt x="96" y="0" on="1"/>
        <pt x="96" y="32" on="0"/>
        <pt x="129" y="124" on="0"/>
        <pt x="154" y="180" on="1"/>
        <pt x="175" y="231" on="0"/>
        <pt x="236" y="369" on="1"/>
        <pt x="262" y="428" on="0"/>
        <pt x="336" y="596" on="0"/>
        <pt x="438" y="825" on="0"/>
        <pt x="569" y="1123" on="0"/>
        <pt x="653" y="1311" on="1"/>
        <pt x="700" y="1350" on="1"/>
        <pt x="700" y="1381" on="0"/>
        <pt x="710" y="1427" on="0"/>
        <pt x="729" y="1462" on="0"/>
        <pt x="755" y="1490" on="0"/>
        <pt x="770" y="1503" on="1"/>
        <pt x="788" y="1518" on="0"/>
        <pt x="813" y="1538" on="1"/>
        <pt x="855" y="1572" on="0"/>
        <pt x="936" y="1640" on="1"/>
        <pt x="924" y="1617" on="0"/>
        <pt x="915" y="1560" on="0"/>
        <pt x="915" y="1532" on="1"/>
        <pt x="915" y="1503" on="0"/>
        <pt x="921" y="1450" on="0"/>
        <pt x="925" y="1430" on="1"/>
        <pt x="929" y="1406" on="0"/>
        <pt x="936" y="1386" on="1"/>
        <pt x="947" y="1350" on="0"/>
        <pt x="1001" y="1194" on="0"/>
        <pt x="1076" y="991" on="0"/>
        <pt x="1164" y="761" on="0"/>
        <pt x="1208" y="651" on="1"/>
        <pt x="1237" y="655" on="0"/>
        <pt x="1281" y="663" on="0"/>
        <pt x="1296" y="665" on="1"/>
        <pt x="1313" y="668" on="0"/>
        <pt x="1325" y="670" on="1"/>
        <pt x="1305" y="651" on="0"/>
        <pt x="1259" y="612" on="0"/>
        <pt x="1233" y="592" on="1"/>
        <pt x="1258" y="531" on="0"/>
        <pt x="1307" y="420" on="0"/>
        <pt x="1350" y="327" on="0"/>
        <pt x="1388" y="257" on="0"/>
        <pt x="1403" y="236" on="1"/>
        <pt x="1424" y="207" on="0"/>
        <pt x="1450" y="185" on="1"/>
        <pt x="1473" y="166" on="0"/>
        <pt x="1534" y="135" on="0"/>
        <pt x="1571" y="135" on="1"/>
        <pt x="1608" y="135" on="0"/>
        <pt x="1651" y="160" on="1"/>
        <pt x="1616" y="124" on="0"/>
        <pt x="1540" y="54" on="0"/>
        <pt x="1457" y="-2" on="0"/>
        <pt x="1368" y="-39" on="0"/>
        <pt x="1321" y="-43" on="1"/>
        <pt x="1305" y="-69" on="0"/>
        <pt x="1288" y="-125" on="0"/>
        <pt x="1288" y="-156" on="1"/>
        <pt x="1288" y="-191" on="0"/>
        <pt x="1317" y="-256" on="0"/>
        <pt x="1366" y="-305" on="0"/>
        <pt x="1431" y="-334" on="0"/>
        <pt x="1466" y="-334" on="1"/>
        <pt x="1490" y="-334" on="0"/>
        <pt x="1537" y="-317" on="0"/>
        <pt x="1584" y="-292" on="0"/>
        <pt x="1629" y="-264" on="0"/>
      </contour>
      <contour>
        <pt x="729" y="1159" on="1"/>
        <pt x="658" y="1004" on="0"/>
        <pt x="532" y="733" on="0"/>
        <pt x="475" y="600" on="1"/>
        <pt x="609" y="603" on="0"/>
        <pt x="833" y="615" on="0"/>
        <pt x="924" y="623" on="1"/>
        <pt x="892" y="701" on="0"/>
        <pt x="833" y="856" on="0"/>
        <pt x="782" y="996" on="0"/>
        <pt x="741" y="1116" on="0"/>
      </contour>
    </TTGlyph>
    <TTGlyph name="Aring" xMin="109" yMin="-53" xMax="1663" yMax="1972">
      <contour>
        <pt x="1190" y="1767" on="1"/>
        <pt x="1190" y="1727" on="0"/>
        <pt x="1145" y="1642" on="0"/>
        <pt x="1072" y="1561" on="0"/>
        <pt x="980" y="1491" on="0"/>
        <pt x="932" y="1466" on="1"/>
        <pt x="934" y="1449" on="0"/>
        <pt x="940" y="1420" on="0"/>
        <pt x="942" y="1409" on="1"/>
        <pt x="945" y="1397" on="0"/>
        <pt x="948" y="1386" on="1"/>
        <pt x="959" y="1350" on="0"/>
        <pt x="1013" y="1194" on="0"/>
        <pt x="1088" y="991" on="0"/>
        <pt x="1176" y="761" on="0"/>
        <pt x="1221" y="651" on="1"/>
        <pt x="1250" y="655" on="0"/>
        <pt x="1294" y="663" on="0"/>
        <pt x="1308" y="665" on="1"/>
        <pt x="1325" y="668" on="0"/>
        <pt x="1337" y="670" on="1"/>
        <pt x="1317" y="651" on="0"/>
        <pt x="1271" y="612" on="0"/>
        <pt x="1245" y="592" on="1"/>
        <pt x="1270" y="531" on="0"/>
        <pt x="1319" y="420" on="0"/>
        <pt x="1363" y="327" on="0"/>
        <pt x="1400" y="257" on="0"/>
        <pt x="1415" y="236" on="1"/>
        <pt x="1436" y="207" on="0"/>
        <pt x="1462" y="185" on="1"/>
        <pt x="1485" y="166" on="0"/>
        <pt x="1546" y="135" on="0"/>
        <pt x="1583" y="135" on="1"/>
        <pt x="1620" y="135" on="0"/>
        <pt x="1663" y="160" on="1"/>
        <pt x="1627" y="122" on="0"/>
        <pt x="1546" y="49" on="0"/>
        <pt x="1458" y="-9" on="0"/>
        <pt x="1363" y="-45" on="0"/>
        <pt x="1313" y="-45" on="1"/>
        <pt x="1275" y="-45" on="0"/>
        <pt x="1211" y="0" on="0"/>
        <pt x="1180" y="57" on="1"/>
        <pt x="1169" y="75" on="0"/>
        <pt x="1132" y="154" on="0"/>
        <pt x="1085" y="263" on="0"/>
        <pt x="1029" y="396" on="0"/>
        <pt x="999" y="469" on="1"/>
        <pt x="936" y="450" on="0"/>
        <pt x="790" y="428" on="0"/>
        <pt x="705" y="428" on="1"/>
        <pt x="410" y="428" on="1"/>
        <pt x="328" y="236" on="1"/>
        <pt x="321" y="217" on="0"/>
        <pt x="315" y="178" on="0"/>
        <pt x="327" y="146" on="0"/>
        <pt x="362" y="125" on="0"/>
        <pt x="397" y="125" on="1"/>
        <pt x="417" y="125" on="0"/>
        <pt x="468" y="133" on="0"/>
        <pt x="500" y="141" on="1"/>
        <pt x="444" y="88" on="0"/>
        <pt x="361" y="14" on="0"/>
        <pt x="287" y="-32" on="0"/>
        <pt x="211" y="-53" on="0"/>
        <pt x="162" y="-53" on="1"/>
        <pt x="133" y="-53" on="0"/>
        <pt x="109" y="-25" on="0"/>
        <pt x="109" y="0" on="1"/>
        <pt x="109" y="32" on="0"/>
        <pt x="141" y="124" on="0"/>
        <pt x="166" y="180" on="1"/>
        <pt x="187" y="231" on="0"/>
        <pt x="248" y="369" on="1"/>
        <pt x="274" y="428" on="0"/>
        <pt x="348" y="596" on="0"/>
        <pt x="450" y="825" on="0"/>
        <pt x="582" y="1123" on="0"/>
        <pt x="666" y="1311" on="1"/>
        <pt x="713" y="1350" on="1"/>
        <pt x="713" y="1404" on="0"/>
        <pt x="727" y="1436" on="1"/>
        <pt x="695" y="1444" on="0"/>
        <pt x="642" y="1477" on="0"/>
        <pt x="602" y="1524" on="0"/>
        <pt x="580" y="1584" on="0"/>
        <pt x="580" y="1620" on="1"/>
        <pt x="580" y="1659" on="0"/>
        <pt x="618" y="1741" on="0"/>
        <pt x="681" y="1820" on="0"/>
        <pt x="763" y="1889" on="0"/>
        <pt x="851" y="1942" on="0"/>
        <pt x="941" y="1972" on="0"/>
        <pt x="979" y="1972" on="1"/>
        <pt x="1021" y="1972" on="0"/>
        <pt x="1098" y="1940" on="0"/>
        <pt x="1156" y="1884" on="0"/>
        <pt x="1190" y="1809" on="0"/>
      </contour>
      <contour>
        <pt x="741" y="1159" on="1"/>
        <pt x="716" y="1104" on="0"/>
        <pt x="677" y="1018" on="0"/>
        <pt x="663" y="988" on="1"/>
        <pt x="646" y="953" on="0"/>
        <pt x="633" y="926" on="1"/>
        <pt x="602" y="857" on="0"/>
        <pt x="525" y="687" on="0"/>
        <pt x="487" y="600" on="1"/>
        <pt x="622" y="603" on="0"/>
        <pt x="845" y="615" on="0"/>
        <pt x="936" y="623" on="1"/>
        <pt x="904" y="701" on="0"/>
        <pt x="845" y="856" on="0"/>
        <pt x="794" y="996" on="0"/>
        <pt x="753" y="1116" on="0"/>
      </contour>
      <contour>
        <pt x="995" y="1630" on="1"/>
        <pt x="995" y="1665" on="0"/>
        <pt x="970" y="1733" on="0"/>
        <pt x="926" y="1788" on="0"/>
        <pt x="866" y="1827" on="0"/>
        <pt x="831" y="1833" on="1"/>
        <pt x="811" y="1837" on="0"/>
        <pt x="788" y="1837" on="0"/>
        <pt x="777" y="1825" on="0"/>
        <pt x="774" y="1799" on="0"/>
        <pt x="774" y="1776" on="1"/>
        <pt x="774" y="1731" on="0"/>
        <pt x="805" y="1653" on="0"/>
        <pt x="860" y="1595" on="0"/>
        <pt x="936" y="1560" on="0"/>
        <pt x="981" y="1559" on="1"/>
        <pt x="987" y="1576" on="0"/>
        <pt x="995" y="1613" on="0"/>
      </contour>
    </TTGlyph>
    <TTGlyph name="Atilde" xMin="96" yMin="-53" xMax="1651" yMax="1930">
      <component glyphName="A" x="0" y="0" flags="0x204"/>
      <component glyphName="tilde" x="365" y="406" flags="0x4"/>
    </TTGlyph>
    <TTGlyph name="B" xMin="66" yMin="-84" xMax="1311" yMax="1485">
      <contour>
        <pt x="1311" y="537" on="1"/>
        <pt x="1300" y="446" on="0"/>
        <pt x="1209" y="284" on="0"/>
        <pt x="1073" y="146" on="0"/>
        <pt x="903" y="35" on="0"/>
        <pt x="722" y="-42" on="0"/>
        <pt x="540" y="-84" on="0"/>
        <pt x="461" y="-84" on="1"/>
        <pt x="422" y="-83" on="0"/>
        <pt x="382" y="-79" on="1"/>
        <pt x="347" y="-75" on="0"/>
        <pt x="261" y="-60" on="0"/>
        <pt x="219" y="-45" on="1"/>
        <pt x="264" y="1294" on="1"/>
        <pt x="222" y="1294" on="0"/>
        <pt x="124" y="1300" on="0"/>
        <pt x="66" y="1307" on="1"/>
        <pt x="322" y="1452" on="1"/>
        <pt x="357" y="1446" on="0"/>
        <pt x="424" y="1442" on="0"/>
        <pt x="453" y="1442" on="1"/>
        <pt x="505" y="1442" on="0"/>
        <pt x="603" y="1455" on="0"/>
        <pt x="697" y="1472" on="0"/>
        <pt x="789" y="1485" on="0"/>
        <pt x="836" y="1485" on="1"/>
        <pt x="913" y="1485" on="0"/>
        <pt x="1042" y="1442" on="0"/>
        <pt x="1135" y="1359" on="0"/>
        <pt x="1184" y="1239" on="0"/>
        <pt x="1182" y="1161" on="1"/>
        <pt x="1177" y="1111" on="0"/>
        <pt x="1147" y="1057" on="1"/>
        <pt x="1134" y="1034" on="0"/>
        <pt x="1096" y="982" on="0"/>
        <pt x="1040" y="928" on="0"/>
        <pt x="966" y="874" on="0"/>
        <pt x="918" y="848" on="1"/>
        <pt x="936" y="850" on="0"/>
        <pt x="970" y="852" on="0"/>
        <pt x="985" y="852" on="1"/>
        <pt x="1050" y="852" on="0"/>
        <pt x="1147" y="825" on="0"/>
        <pt x="1218" y="780" on="0"/>
        <pt x="1264" y="724" on="0"/>
        <pt x="1278" y="694" on="1"/>
        <pt x="1311" y="624" on="0"/>
      </contour>
      <contour>
        <pt x="717" y="70" on="1"/>
        <pt x="799" y="70" on="0"/>
        <pt x="925" y="116" on="0"/>
        <pt x="1011" y="203" on="0"/>
        <pt x="1055" y="328" on="0"/>
        <pt x="1055" y="408" on="1"/>
        <pt x="1055" y="476" on="0"/>
        <pt x="1009" y="591" on="0"/>
        <pt x="926" y="674" on="0"/>
        <pt x="814" y="721" on="0"/>
        <pt x="748" y="721" on="1"/>
        <pt x="723" y="721" on="0"/>
        <pt x="672" y="711" on="0"/>
        <pt x="647" y="698" on="1"/>
        <pt x="732" y="743" on="0"/>
        <pt x="840" y="838" on="0"/>
        <pt x="901" y="931" on="0"/>
        <pt x="924" y="1019" on="0"/>
        <pt x="924" y="1057" on="1"/>
        <pt x="924" y="1114" on="0"/>
        <pt x="883" y="1213" on="0"/>
        <pt x="813" y="1286" on="0"/>
        <pt x="717" y="1327" on="0"/>
        <pt x="662" y="1327" on="1"/>
        <pt x="624" y="1327" on="0"/>
        <pt x="556" y="1320" on="0"/>
        <pt x="522" y="1315" on="1"/>
        <pt x="477" y="109" on="1"/>
        <pt x="549" y="87" on="0"/>
        <pt x="667" y="70" on="0"/>
      </contour>
    </TTGlyph>
    <TTGlyph name="C" xMin="115" yMin="-68" xMax="1524" yMax="1475">
      <contour>
        <pt x="1524" y="188" on="1"/>
        <pt x="1479" y="143" on="0"/>
        <pt x="1373" y="73" on="0"/>
        <pt x="1263" y="20" on="0"/>
        <pt x="1152" y="-17" on="0"/>
        <pt x="1101" y="-30" on="1"/>
        <pt x="981" y="-60" on="0"/>
        <pt x="860" y="-68" on="1"/>
        <pt x="689" y="-66" on="0"/>
        <pt x="413" y="33" on="0"/>
        <pt x="219" y="214" on="0"/>
        <pt x="115" y="473" on="0"/>
        <pt x="115" y="635" on="1"/>
        <pt x="115" y="768" on="0"/>
        <pt x="212" y="996" on="0"/>
        <pt x="376" y="1183" on="0"/>
        <pt x="592" y="1326" on="0"/>
        <pt x="830" y="1424" on="0"/>
        <pt x="1075" y="1475" on="0"/>
        <pt x="1186" y="1475" on="1"/>
        <pt x="1219" y="1475" on="0"/>
        <pt x="1296" y="1472" on="0"/>
        <pt x="1371" y="1464" on="0"/>
        <pt x="1438" y="1449" on="0"/>
        <pt x="1483" y="1423" on="0"/>
        <pt x="1501" y="1386" on="0"/>
        <pt x="1489" y="1360" on="1"/>
        <pt x="1474" y="1351" on="0"/>
        <pt x="1440" y="1328" on="1"/>
        <pt x="1410" y="1308" on="0"/>
        <pt x="1301" y="1238" on="0"/>
        <pt x="1210" y="1180" on="1"/>
        <pt x="1236" y="1197" on="0"/>
        <pt x="1260" y="1227" on="0"/>
        <pt x="1260" y="1241" on="1"/>
        <pt x="1260" y="1263" on="0"/>
        <pt x="1221" y="1297" on="0"/>
        <pt x="1161" y="1321" on="0"/>
        <pt x="1087" y="1336" on="0"/>
        <pt x="1019" y="1345" on="0"/>
        <pt x="963" y="1348" on="0"/>
        <pt x="950" y="1348" on="1"/>
        <pt x="658" y="1348" on="0"/>
        <pt x="360" y="1050" on="0"/>
        <pt x="360" y="758" on="1"/>
        <pt x="360" y="604" on="0"/>
        <pt x="460" y="362" on="0"/>
        <pt x="636" y="189" on="0"/>
        <pt x="878" y="87" on="0"/>
        <pt x="1020" y="74" on="1"/>
        <pt x="1099" y="69" on="0"/>
        <pt x="1184" y="80" on="1"/>
        <pt x="1257" y="89" on="0"/>
        <pt x="1436" y="137" on="0"/>
      </contour>
    </TTGlyph>
    <TTGlyph name="Cacute" xMin="115" yMin="-68" xMax="1524" yMax="1906">
      <component glyphName="C" x="0" y="0" flags="0x204"/>
      <component glyphName="acute" x="688" y="225" flags="0x4"/>
    </TTGlyph>
    <TTGlyph name="Ccaron" xMin="115" yMin="-68" xMax="1524" yMax="1831">
      <component glyphName="C" x="0" y="0" flags="0x204"/>
      <component glyphName="caron" x="449" y="203" flags="0x4"/>
    </TTGlyph>
    <TTGlyph name="Ccedilla" xMin="115" yMin="-545" xMax="1524" yMax="1475">
      <contour>
        <pt x="1524" y="188" on="1"/>
        <pt x="1474" y="138" on="0"/>
        <pt x="1356" y="64" on="0"/>
        <pt x="1234" y="9" on="0"/>
        <pt x="1114" y="-28" on="0"/>
        <pt x="1007" y="-51" on="0"/>
        <pt x="921" y="-63" on="0"/>
        <pt x="895" y="-66" on="1"/>
        <pt x="834" y="-129" on="1"/>
        <pt x="840" y="-123" on="0"/>
        <pt x="876" y="-117" on="0"/>
        <pt x="887" y="-115" on="1"/>
        <pt x="916" y="-111" on="0"/>
        <pt x="971" y="-117" on="0"/>
        <pt x="1013" y="-137" on="0"/>
        <pt x="1038" y="-171" on="0"/>
        <pt x="1038" y="-195" on="1"/>
        <pt x="1038" y="-228" on="0"/>
        <pt x="1002" y="-296" on="0"/>
        <pt x="943" y="-361" on="0"/>
        <pt x="869" y="-420" on="0"/>
        <pt x="793" y="-469" on="0"/>
        <pt x="723" y="-504" on="0"/>
        <pt x="698" y="-512" on="1"/>
        <pt x="679" y="-522" on="0"/>
        <pt x="631" y="-534" on="0"/>
        <pt x="609" y="-538" on="1"/>
        <pt x="583" y="-542" on="0"/>
        <pt x="557" y="-545" on="1"/>
        <pt x="583" y="-500" on="0"/>
        <pt x="633" y="-434" on="0"/>
        <pt x="659" y="-414" on="1"/>
        <pt x="674" y="-426" on="0"/>
        <pt x="718" y="-438" on="0"/>
        <pt x="761" y="-441" on="0"/>
        <pt x="795" y="-438" on="0"/>
        <pt x="801" y="-434" on="1"/>
        <pt x="819" y="-422" on="0"/>
        <pt x="846" y="-365" on="0"/>
        <pt x="846" y="-334" on="1"/>
        <pt x="846" y="-306" on="0"/>
        <pt x="824" y="-272" on="0"/>
        <pt x="790" y="-254" on="0"/>
        <pt x="746" y="-248" on="0"/>
        <pt x="725" y="-248" on="1"/>
        <pt x="705" y="-248" on="0"/>
        <pt x="663" y="-252" on="0"/>
        <pt x="643" y="-258" on="1"/>
        <pt x="827" y="-66" on="1"/>
        <pt x="663" y="-60" on="0"/>
        <pt x="399" y="42" on="0"/>
        <pt x="214" y="223" on="0"/>
        <pt x="115" y="477" on="0"/>
        <pt x="115" y="635" on="1"/>
        <pt x="115" y="768" on="0"/>
        <pt x="212" y="996" on="0"/>
        <pt x="376" y="1183" on="0"/>
        <pt x="592" y="1326" on="0"/>
        <pt x="830" y="1424" on="0"/>
        <pt x="1075" y="1475" on="0"/>
        <pt x="1186" y="1475" on="1"/>
        <pt x="1219" y="1475" on="0"/>
        <pt x="1296" y="1472" on="0"/>
        <pt x="1371" y="1464" on="0"/>
        <pt x="1438" y="1449" on="0"/>
        <pt x="1483" y="1423" on="0"/>
        <pt x="1501" y="1386" on="0"/>
        <pt x="1489" y="1360" on="1"/>
        <pt x="1475" y="1351" on="0"/>
        <pt x="1442" y="1329" on="1"/>
        <pt x="1413" y="1310" on="0"/>
        <pt x="1308" y="1242" on="0"/>
        <pt x="1221" y="1186" on="1"/>
        <pt x="1241" y="1200" on="0"/>
        <pt x="1260" y="1229" on="0"/>
        <pt x="1260" y="1241" on="1"/>
        <pt x="1260" y="1263" on="0"/>
        <pt x="1221" y="1297" on="0"/>
        <pt x="1161" y="1321" on="0"/>
        <pt x="1087" y="1336" on="0"/>
        <pt x="1019" y="1345" on="0"/>
        <pt x="963" y="1348" on="0"/>
        <pt x="950" y="1348" on="1"/>
        <pt x="658" y="1348" on="0"/>
        <pt x="360" y="1050" on="0"/>
        <pt x="360" y="758" on="1"/>
        <pt x="360" y="604" on="0"/>
        <pt x="460" y="362" on="0"/>
        <pt x="636" y="189" on="0"/>
        <pt x="878" y="87" on="0"/>
        <pt x="1020" y="74" on="1"/>
        <pt x="1099" y="69" on="0"/>
        <pt x="1184" y="80" on="1"/>
        <pt x="1257" y="89" on="0"/>
        <pt x="1436" y="137" on="0"/>
      </contour>
      <contour>
        <pt x="1210" y="1180" on="1"/>
        <pt x="1221" y="1186" on="1"/>
      </contour>
    </TTGlyph>
    <TTGlyph name="Ccircumflex" xMin="115" yMin="-68" xMax="1524" yMax="1896">
      <component glyphName="C" x="0" y="0" flags="0x204"/>
      <component glyphName="circumflex" x="449" y="268" flags="0x4"/>
    </TTGlyph>
    <TTGlyph name="Cdotaccent" xMin="115" yMin="-68" xMax="1524" yMax="1782">
      <component glyphName="C" x="0" y="0" flags="0x204"/>
      <component glyphName="dotaccent" x="606" y="260" flags="0x4"/>
    </TTGlyph>
    <TTGlyph name="D" xMin="78" yMin="-78" xMax="1606" yMax="1468">
      <contour>
        <pt x="604" y="-78" on="1"/>
        <pt x="536" y="-78" on="0"/>
        <pt x="343" y="-66" on="0"/>
        <pt x="219" y="-47" on="1"/>
        <pt x="266" y="1300" on="1"/>
        <pt x="235" y="1298" on="0"/>
        <pt x="176" y="1298" on="0"/>
        <pt x="152" y="1298" on="1"/>
        <pt x="130" y="1298" on="0"/>
        <pt x="93" y="1298" on="0"/>
        <pt x="78" y="1300" on="1"/>
        <pt x="330" y="1434" on="1"/>
        <pt x="434" y="1433" on="0"/>
        <pt x="564" y="1438" on="0"/>
        <pt x="646" y="1446" on="0"/>
        <pt x="697" y="1455" on="0"/>
        <pt x="750" y="1463" on="0"/>
        <pt x="820" y="1468" on="0"/>
        <pt x="881" y="1468" on="1"/>
        <pt x="1050" y="1468" on="0"/>
        <pt x="1318" y="1377" on="0"/>
        <pt x="1506" y="1202" on="0"/>
        <pt x="1606" y="944" on="0"/>
        <pt x="1606" y="776" on="1"/>
        <pt x="1606" y="647" on="0"/>
        <pt x="1518" y="421" on="0"/>
        <pt x="1368" y="231" on="0"/>
        <pt x="1168" y="81" on="0"/>
        <pt x="945" y="-23" on="0"/>
        <pt x="712" y="-78" on="0"/>
      </contour>
      <contour>
        <pt x="829" y="68" on="1"/>
        <pt x="896" y="68" on="0"/>
        <pt x="989" y="77" on="0"/>
        <pt x="1018" y="83" on="1"/>
        <pt x="1052" y="89" on="0"/>
        <pt x="1073" y="98" on="1"/>
        <pt x="1117" y="119" on="0"/>
        <pt x="1214" y="212" on="0"/>
        <pt x="1296" y="352" on="0"/>
        <pt x="1350" y="537" on="0"/>
        <pt x="1350" y="649" on="1"/>
        <pt x="1350" y="797" on="0"/>
        <pt x="1264" y="1047" on="0"/>
        <pt x="1103" y="1229" on="0"/>
        <pt x="874" y="1331" on="0"/>
        <pt x="731" y="1331" on="1"/>
        <pt x="666" y="1331" on="0"/>
        <pt x="564" y="1318" on="0"/>
        <pt x="514" y="1315" on="1"/>
        <pt x="471" y="98" on="1"/>
        <pt x="586" y="81" on="0"/>
        <pt x="761" y="68" on="0"/>
      </contour>
    </TTGlyph>
    <TTGlyph name="Dcaron" xMin="78" yMin="-78" xMax="1606" yMax="1921">
      <component glyphName="D" x="0" y="0" flags="0x204"/>
      <component glyphName="caron" x="528" y="293" flags="0x4"/>
    </TTGlyph>
    <TTGlyph name="Dcroat" xMin="0" yMin="-78" xMax="1671" yMax="1468">
      <component glyphName="Eth" x="0" y="0" flags="0x204"/>
    </TTGlyph>
    <TTGlyph name="E" xMin="110" yMin="-49" xMax="1556" yMax="1518">
      <contour>
        <pt x="1298" y="1249" on="1"/>
        <pt x="1322" y="1268" on="0"/>
        <pt x="1318" y="1302" on="0"/>
        <pt x="1306" y="1315" on="1"/>
        <pt x="1292" y="1330" on="0"/>
        <pt x="1266" y="1343" on="1"/>
        <pt x="1218" y="1366" on="0"/>
        <pt x="1066" y="1386" on="0"/>
        <pt x="981" y="1386" on="1"/>
        <pt x="860" y="1386" on="0"/>
        <pt x="645" y="1342" on="0"/>
        <pt x="478" y="1225" on="0"/>
        <pt x="370" y="1020" on="0"/>
        <pt x="356" y="860" on="1"/>
        <pt x="418" y="858" on="0"/>
        <pt x="539" y="858" on="0"/>
        <pt x="598" y="858" on="1"/>
        <pt x="669" y="858" on="0"/>
        <pt x="844" y="865" on="0"/>
        <pt x="1027" y="874" on="0"/>
        <pt x="1203" y="884" on="0"/>
        <pt x="1345" y="891" on="0"/>
        <pt x="1440" y="891" on="0"/>
        <pt x="1450" y="887" on="1"/>
        <pt x="1462" y="881" on="0"/>
        <pt x="1447" y="854" on="0"/>
        <pt x="1404" y="819" on="0"/>
        <pt x="1341" y="779" on="0"/>
        <pt x="1271" y="742" on="0"/>
        <pt x="1200" y="711" on="0"/>
        <pt x="1171" y="702" on="1"/>
        <pt x="1194" y="741" on="0"/>
        <pt x="1165" y="774" on="0"/>
        <pt x="1100" y="774" on="1"/>
        <pt x="1071" y="774" on="0"/>
        <pt x="1023" y="772" on="0"/>
        <pt x="961" y="767" on="0"/>
        <pt x="869" y="760" on="0"/>
        <pt x="723" y="749" on="0"/>
        <pt x="507" y="734" on="0"/>
        <pt x="352" y="725" on="1"/>
        <pt x="357" y="563" on="0"/>
        <pt x="460" y="337" on="0"/>
        <pt x="638" y="191" on="0"/>
        <pt x="885" y="114" on="0"/>
        <pt x="1034" y="102" on="1"/>
        <pt x="1120" y="98" on="0"/>
        <pt x="1204" y="110" on="1"/>
        <pt x="1240" y="115" on="0"/>
        <pt x="1319" y="133" on="0"/>
        <pt x="1398" y="162" on="0"/>
        <pt x="1474" y="204" on="0"/>
        <pt x="1507" y="233" on="1"/>
        <pt x="1433" y="170" on="0"/>
        <pt x="1272" y="67" on="0"/>
        <pt x="1101" y="-8" on="0"/>
        <pt x="925" y="-49" on="0"/>
        <pt x="838" y="-49" on="1"/>
        <pt x="762" y="-49" on="0"/>
        <pt x="593" y="-24" on="0"/>
        <pt x="428" y="35" on="0"/>
        <pt x="279" y="132" on="0"/>
        <pt x="170" y="277" on="0"/>
        <pt x="110" y="474" on="0"/>
        <pt x="117" y="602" on="1"/>
        <pt x="124" y="751" on="0"/>
        <pt x="223" y="1003" on="0"/>
        <pt x="383" y="1206" on="0"/>
        <pt x="593" y="1361" on="0"/>
        <pt x="832" y="1465" on="0"/>
        <pt x="1090" y="1518" on="0"/>
        <pt x="1217" y="1518" on="1"/>
        <pt x="1273" y="1518" on="0"/>
        <pt x="1367" y="1508" on="0"/>
        <pt x="1442" y="1494" on="0"/>
        <pt x="1496" y="1477" on="0"/>
        <pt x="1511" y="1470" on="1"/>
        <pt x="1556" y="1450" on="0"/>
        <pt x="1556" y="1423" on="1"/>
        <pt x="1556" y="1407" on="0"/>
        <pt x="1523" y="1371" on="0"/>
        <pt x="1472" y="1335" on="0"/>
        <pt x="1411" y="1302" on="0"/>
        <pt x="1354" y="1274" on="0"/>
        <pt x="1308" y="1254" on="0"/>
      </contour>
    </TTGlyph>
    <TTGlyph name="Eacute" xMin="110" yMin="-49" xMax="1556" yMax="1957">
      <component glyphName="E" x="0" y="0" flags="0x204"/>
      <component glyphName="acute" x="760" y="276" flags="0x4"/>
    </TTGlyph>
    <TTGlyph name="Ebreve" xMin="110" yMin="-49" xMax="1556" yMax="1919">
      <component glyphName="E" x="0" y="0" flags="0x204"/>
      <component glyphName="breve" x="440" y="293" flags="0x4"/>
    </TTGlyph>
    <TTGlyph name="Ecaron" xMin="110" yMin="-49" xMax="1556" yMax="1872">
      <component glyphName="E" x="0" y="0" flags="0x204"/>
      <component glyphName="caron" x="512" y="244" flags="0x4"/>
    </TTGlyph>
    <TTGlyph name="Ecircumflex" xMin="110" yMin="-49" xMax="1556" yMax="1913">
      <component glyphName="E" x="0" y="0" flags="0x204"/>
      <component glyphName="circumflex" x="504" y="285" flags="0x4"/>
    </TTGlyph>
    <TTGlyph name="Edieresis" xMin="110" yMin="-49" xMax="1556" yMax="1841">
      <component glyphName="E" x="0" y="0" flags="0x204"/>
      <component glyphName="dieresis" x="434" y="319" flags="0x4"/>
    </TTGlyph>
    <TTGlyph name="Edotaccent" xMin="110" yMin="-49" xMax="1556" yMax="1796">
      <component glyphName="E" x="0" y="0" flags="0x204"/>
      <component glyphName="dotaccent" x="651" y="274" flags="0x4"/>
    </TTGlyph>
    <TTGlyph name="Egrave" xMin="110" yMin="-49" xMax="1556" yMax="1952">
      <component glyphName="E" x="0" y="0" flags="0x204"/>
      <component glyphName="grave" x="399" y="246" flags="0x4"/>
    </TTGlyph>
    <TTGlyph name="Emacron" xMin="110" yMin="-49" xMax="1556" yMax="1726">
      <component glyphName="E" x="0" y="0" flags="0x204"/>
      <component glyphName="macron" x="463" y="264" flags="0x4"/>
    </TTGlyph>
    <TTGlyph name="Eng" xMin="209" yMin="-801" xMax="1722" yMax="1640">
      <contour>
        <pt x="1722" y="1511" on="1"/>
        <pt x="1708" y="1504" on="0"/>
        <pt x="1693" y="1480" on="0"/>
        <pt x="1689" y="1468" on="1"/>
        <pt x="1685" y="1454" on="0"/>
        <pt x="1683" y="1438" on="1"/>
        <pt x="1681" y="1416" on="0"/>
        <pt x="1675" y="1306" on="0"/>
        <pt x="1670" y="1152" on="0"/>
        <pt x="1664" y="961" on="0"/>
        <pt x="1658" y="755" on="0"/>
        <pt x="1653" y="542" on="0"/>
        <pt x="1648" y="343" on="0"/>
        <pt x="1644" y="167" on="0"/>
        <pt x="1642" y="34" on="0"/>
        <pt x="1640" y="-47" on="0"/>
        <pt x="1640" y="-51" on="1"/>
        <pt x="1638" y="-119" on="0"/>
        <pt x="1614" y="-257" on="0"/>
        <pt x="1541" y="-398" on="0"/>
        <pt x="1404" y="-544" on="0"/>
        <pt x="1288" y="-621" on="1"/>
        <pt x="1210" y="-672" on="0"/>
        <pt x="1076" y="-741" on="0"/>
        <pt x="959" y="-783" on="0"/>
        <pt x="858" y="-801" on="0"/>
        <pt x="813" y="-801" on="1"/>
        <pt x="794" y="-801" on="0"/>
        <pt x="727" y="-794" on="0"/>
        <pt x="651" y="-778" on="0"/>
        <pt x="577" y="-753" on="0"/>
        <pt x="527" y="-718" on="0"/>
        <pt x="511" y="-672" on="0"/>
        <pt x="530" y="-643" on="1"/>
        <pt x="550" y="-618" on="0"/>
        <pt x="583" y="-589" on="1"/>
        <pt x="611" y="-564" on="0"/>
        <pt x="700" y="-499" on="0"/>
        <pt x="764" y="-463" on="1"/>
        <pt x="752" y="-481" on="0"/>
        <pt x="752" y="-509" on="0"/>
        <pt x="757" y="-520" on="1"/>
        <pt x="762" y="-532" on="0"/>
        <pt x="774" y="-541" on="1"/>
        <pt x="785" y="-549" on="0"/>
        <pt x="853" y="-576" on="0"/>
        <pt x="948" y="-603" on="0"/>
        <pt x="1060" y="-623" on="0"/>
        <pt x="1114" y="-623" on="1"/>
        <pt x="1186" y="-623" on="0"/>
        <pt x="1283" y="-577" on="0"/>
        <pt x="1346" y="-499" on="0"/>
        <pt x="1379" y="-397" on="0"/>
        <pt x="1393" y="-285" on="0"/>
        <pt x="1395" y="-169" on="0"/>
        <pt x="1395" y="-117" on="1"/>
        <pt x="1395" y="-45" on="0"/>
        <pt x="1350" y="74" on="0"/>
        <pt x="1324" y="117" on="1"/>
        <pt x="1292" y="167" on="0"/>
        <pt x="1253" y="207" on="1"/>
        <pt x="1200" y="260" on="0"/>
        <pt x="1088" y="370" on="1"/>
        <pt x="1040" y="417" on="0"/>
        <pt x="910" y="544" on="0"/>
        <pt x="738" y="712" on="0"/>
        <pt x="522" y="924" on="0"/>
        <pt x="389" y="1055" on="1"/>
        <pt x="387" y="933" on="0"/>
        <pt x="384" y="737" on="0"/>
        <pt x="382" y="582" on="0"/>
        <pt x="380" y="467" on="0"/>
        <pt x="380" y="425" on="1"/>
        <pt x="379" y="327" on="0"/>
        <pt x="379" y="285" on="1"/>
        <pt x="378" y="253" on="0"/>
        <pt x="392" y="200" on="0"/>
        <pt x="422" y="161" on="0"/>
        <pt x="470" y="139" on="0"/>
        <pt x="504" y="139" on="1"/>
        <pt x="538" y="139" on="0"/>
        <pt x="626" y="162" on="0"/>
        <pt x="682" y="188" on="1"/>
        <pt x="633" y="140" on="0"/>
        <pt x="546" y="70" on="0"/>
        <pt x="469" y="20" on="0"/>
        <pt x="404" y="-12" on="0"/>
        <pt x="378" y="-21" on="1"/>
        <pt x="316" y="-43" on="0"/>
        <pt x="270" y="-39" on="1"/>
        <pt x="232" y="-31" on="0"/>
        <pt x="209" y="13" on="0"/>
        <pt x="209" y="55" on="1"/>
        <pt x="209" y="370" on="0"/>
        <pt x="231" y="990" on="0"/>
        <pt x="231" y="1298" on="1"/>
        <pt x="231" y="1345" on="0"/>
        <pt x="231" y="1407" on="0"/>
        <pt x="229" y="1421" on="1"/>
        <pt x="237" y="1447" on="0"/>
        <pt x="262" y="1480" on="1"/>
        <pt x="283" y="1509" on="0"/>
        <pt x="362" y="1589" on="0"/>
        <pt x="430" y="1640" on="1"/>
        <pt x="422" y="1619" on="0"/>
        <pt x="416" y="1579" on="0"/>
        <pt x="416" y="1561" on="1"/>
        <pt x="416" y="1532" on="0"/>
        <pt x="427" y="1487" on="0"/>
        <pt x="435" y="1471" on="1"/>
        <pt x="444" y="1453" on="0"/>
        <pt x="455" y="1438" on="1"/>
        <pt x="489" y="1396" on="0"/>
        <pt x="597" y="1284" on="0"/>
        <pt x="740" y="1143" on="0"/>
        <pt x="912" y="973" on="0"/>
        <pt x="1010" y="872" on="1"/>
        <pt x="1080" y="806" on="0"/>
        <pt x="1158" y="729" on="1"/>
        <pt x="1225" y="663" on="0"/>
        <pt x="1395" y="486" on="0"/>
        <pt x="1485" y="385" on="1"/>
        <pt x="1487" y="569" on="0"/>
        <pt x="1489" y="837" on="0"/>
        <pt x="1489" y="936" on="1"/>
        <pt x="1489" y="1027" on="0"/>
        <pt x="1488" y="1146" on="0"/>
        <pt x="1487" y="1182" on="1"/>
        <pt x="1486" y="1223" on="0"/>
        <pt x="1485" y="1247" on="1"/>
        <pt x="1485" y="1281" on="0"/>
        <pt x="1465" y="1327" on="0"/>
        <pt x="1434" y="1353" on="0"/>
        <pt x="1394" y="1364" on="0"/>
        <pt x="1374" y="1364" on="1"/>
        <pt x="1353" y="1364" on="0"/>
        <pt x="1314" y="1356" on="0"/>
        <pt x="1303" y="1348" on="1"/>
        <pt x="1344" y="1383" on="0"/>
        <pt x="1425" y="1445" on="0"/>
        <pt x="1509" y="1491" on="0"/>
        <pt x="1600" y="1518" on="0"/>
        <pt x="1653" y="1518" on="1"/>
        <pt x="1688" y="1518" on="0"/>
      </contour>
      <contour>
        <pt x="1300" y="1346" on="1"/>
        <pt x="1298" y="1346" on="1"/>
      </contour>
    </TTGlyph>
    <TTGlyph name="Eogonek" xMin="110" yMin="-471" xMax="1556" yMax="1518">
      <contour>
        <pt x="1442" y="-254" on="1"/>
        <pt x="1407" y="-282" on="0"/>
        <pt x="1315" y="-357" on="0"/>
        <pt x="1213" y="-424" on="0"/>
        <pt x="1108" y="-471" on="0"/>
        <pt x="1061" y="-471" on="1"/>
        <pt x="1026" y="-471" on="0"/>
        <pt x="964" y="-441" on="0"/>
        <pt x="918" y="-391" on="0"/>
        <pt x="891" y="-327" on="0"/>
        <pt x="891" y="-293" on="1"/>
        <pt x="891" y="-251" on="0"/>
        <pt x="918" y="-172" on="0"/>
        <pt x="964" y="-102" on="0"/>
        <pt x="1026" y="-41" on="0"/>
        <pt x="1061" y="-16" on="1"/>
        <pt x="1005" y="-32" on="0"/>
        <pt x="893" y="-49" on="0"/>
        <pt x="838" y="-49" on="1"/>
        <pt x="762" y="-49" on="0"/>
        <pt x="593" y="-24" on="0"/>
        <pt x="428" y="35" on="0"/>
        <pt x="279" y="132" on="0"/>
        <pt x="170" y="277" on="0"/>
        <pt x="110" y="474" on="0"/>
        <pt x="117" y="602" on="1"/>
        <pt x="124" y="751" on="0"/>
        <pt x="223" y="1003" on="0"/>
        <pt x="383" y="1206" on="0"/>
        <pt x="593" y="1361" on="0"/>
        <pt x="832" y="1465" on="0"/>
        <pt x="1090" y="1518" on="0"/>
        <pt x="1217" y="1518" on="1"/>
        <pt x="1273" y="1518" on="0"/>
        <pt x="1367" y="1508" on="0"/>
        <pt x="1442" y="1494" on="0"/>
        <pt x="1496" y="1477" on="0"/>
        <pt x="1511" y="1470" on="1"/>
        <pt x="1556" y="1450" on="0"/>
        <pt x="1556" y="1423" on="1"/>
        <pt x="1556" y="1407" on="0"/>
        <pt x="1523" y="1371" on="0"/>
        <pt x="1472" y="1335" on="0"/>
        <pt x="1411" y="1302" on="0"/>
        <pt x="1354" y="1274" on="0"/>
        <pt x="1308" y="1254" on="0"/>
        <pt x="1298" y="1249" on="1"/>
        <pt x="1322" y="1268" on="0"/>
        <pt x="1318" y="1302" on="0"/>
        <pt x="1306" y="1315" on="1"/>
        <pt x="1292" y="1330" on="0"/>
        <pt x="1266" y="1343" on="1"/>
        <pt x="1218" y="1366" on="0"/>
        <pt x="1066" y="1386" on="0"/>
        <pt x="981" y="1386" on="1"/>
        <pt x="860" y="1386" on="0"/>
        <pt x="645" y="1342" on="0"/>
        <pt x="478" y="1225" on="0"/>
        <pt x="370" y="1020" on="0"/>
        <pt x="356" y="860" on="1"/>
        <pt x="418" y="858" on="0"/>
        <pt x="539" y="858" on="0"/>
        <pt x="598" y="858" on="1"/>
        <pt x="669" y="858" on="0"/>
        <pt x="844" y="865" on="0"/>
        <pt x="1027" y="874" on="0"/>
        <pt x="1203" y="884" on="0"/>
        <pt x="1345" y="891" on="0"/>
        <pt x="1440" y="891" on="0"/>
        <pt x="1450" y="887" on="1"/>
        <pt x="1462" y="881" on="0"/>
        <pt x="1447" y="854" on="0"/>
        <pt x="1404" y="819" on="0"/>
        <pt x="1341" y="779" on="0"/>
        <pt x="1271" y="742" on="0"/>
        <pt x="1200" y="711" on="0"/>
        <pt x="1171" y="702" on="1"/>
        <pt x="1194" y="741" on="0"/>
        <pt x="1165" y="774" on="0"/>
        <pt x="1100" y="774" on="1"/>
        <pt x="1071" y="774" on="0"/>
        <pt x="1023" y="772" on="0"/>
        <pt x="961" y="767" on="0"/>
        <pt x="869" y="760" on="0"/>
        <pt x="723" y="749" on="0"/>
        <pt x="507" y="734" on="0"/>
        <pt x="352" y="725" on="1"/>
        <pt x="357" y="563" on="0"/>
        <pt x="460" y="337" on="0"/>
        <pt x="638" y="191" on="0"/>
        <pt x="885" y="114" on="0"/>
        <pt x="1034" y="102" on="1"/>
        <pt x="1120" y="98" on="0"/>
        <pt x="1204" y="110" on="1"/>
        <pt x="1240" y="115" on="0"/>
        <pt x="1319" y="133" on="0"/>
        <pt x="1398" y="162" on="0"/>
        <pt x="1474" y="204" on="0"/>
        <pt x="1507" y="233" on="1"/>
        <pt x="1475" y="194" on="0"/>
        <pt x="1386" y="132" on="0"/>
        <pt x="1291" y="77" on="0"/>
        <pt x="1198" y="23" on="0"/>
        <pt x="1124" y="-38" on="0"/>
        <pt x="1079" y="-110" on="0"/>
        <pt x="1079" y="-156" on="1"/>
        <pt x="1079" y="-191" on="0"/>
        <pt x="1108" y="-256" on="0"/>
        <pt x="1157" y="-305" on="0"/>
        <pt x="1222" y="-334" on="0"/>
        <pt x="1257" y="-334" on="1"/>
        <pt x="1281" y="-334" on="0"/>
        <pt x="1328" y="-317" on="0"/>
        <pt x="1375" y="-292" on="0"/>
        <pt x="1420" y="-264" on="0"/>
      </contour>
    </TTGlyph>
    <TTGlyph name="Eth" xMin="0" yMin="-78" xMax="1671" yMax="1468">
      <contour>
        <pt x="670" y="-78" on="1"/>
        <pt x="602" y="-78" on="0"/>
        <pt x="409" y="-66" on="0"/>
        <pt x="285" y="-47" on="1"/>
        <pt x="307" y="592" on="1"/>
        <pt x="0" y="592" on="1"/>
        <pt x="8" y="598" on="0"/>
        <pt x="43" y="631" on="0"/>
        <pt x="87" y="672" on="0"/>
        <pt x="136" y="716" on="0"/>
        <pt x="179" y="752" on="0"/>
        <pt x="212" y="776" on="0"/>
        <pt x="219" y="776" on="1"/>
        <pt x="313" y="776" on="1"/>
        <pt x="332" y="1300" on="1"/>
        <pt x="300" y="1298" on="0"/>
        <pt x="242" y="1298" on="0"/>
        <pt x="217" y="1298" on="1"/>
        <pt x="195" y="1298" on="0"/>
        <pt x="159" y="1298" on="0"/>
        <pt x="143" y="1300" on="1"/>
        <pt x="395" y="1434" on="1"/>
        <pt x="499" y="1433" on="0"/>
        <pt x="629" y="1438" on="0"/>
        <pt x="711" y="1446" on="0"/>
        <pt x="763" y="1455" on="0"/>
        <pt x="815" y="1463" on="0"/>
        <pt x="886" y="1468" on="0"/>
        <pt x="946" y="1468" on="1"/>
        <pt x="1115" y="1468" on="0"/>
        <pt x="1384" y="1377" on="0"/>
        <pt x="1571" y="1202" on="0"/>
        <pt x="1671" y="944" on="0"/>
        <pt x="1671" y="776" on="1"/>
        <pt x="1671" y="647" on="0"/>
        <pt x="1583" y="421" on="0"/>
        <pt x="1433" y="231" on="0"/>
        <pt x="1234" y="81" on="0"/>
        <pt x="1011" y="-23" on="0"/>
        <pt x="779" y="-78" on="0"/>
      </contour>
      <contour>
        <pt x="895" y="68" on="1"/>
        <pt x="962" y="68" on="0"/>
        <pt x="1055" y="77" on="0"/>
        <pt x="1084" y="83" on="1"/>
        <pt x="1118" y="89" on="0"/>
        <pt x="1139" y="98" on="1"/>
        <pt x="1182" y="119" on="0"/>
        <pt x="1280" y="212" on="0"/>
        <pt x="1361" y="352" on="0"/>
        <pt x="1415" y="537" on="0"/>
        <pt x="1415" y="649" on="1"/>
        <pt x="1415" y="797" on="0"/>
        <pt x="1329" y="1047" on="0"/>
        <pt x="1169" y="1229" on="0"/>
        <pt x="940" y="1331" on="0"/>
        <pt x="797" y="1331" on="1"/>
        <pt x="732" y="1331" on="0"/>
        <pt x="629" y="1318" on="0"/>
        <pt x="580" y="1315" on="1"/>
        <pt x="561" y="776" on="1"/>
        <pt x="963" y="776" on="1"/>
        <pt x="940" y="768" on="0"/>
        <pt x="881" y="708" on="0"/>
        <pt x="820" y="643" on="0"/>
        <pt x="764" y="592" on="0"/>
        <pt x="745" y="592" on="1"/>
        <pt x="553" y="592" on="1"/>
        <pt x="537" y="98" on="1"/>
        <pt x="651" y="81" on="0"/>
        <pt x="827" y="68" on="0"/>
      </contour>
    </TTGlyph>
    <TTGlyph name="Euro" xMin="55" yMin="-68" xMax="1767" yMax="1475">
      <contour>
        <pt x="1257" y="817" on="1"/>
        <pt x="1267" y="818" on="0"/>
        <pt x="1279" y="796" on="0"/>
        <pt x="1281" y="770" on="0"/>
        <pt x="1269" y="748" on="0"/>
        <pt x="1255" y="748" on="1"/>
        <pt x="1167" y="743" on="0"/>
        <pt x="1062" y="739" on="1"/>
        <pt x="972" y="735" on="0"/>
        <pt x="736" y="730" on="0"/>
        <pt x="602" y="729" on="1"/>
        <pt x="608" y="647" on="1"/>
        <pt x="721" y="652" on="0"/>
        <pt x="896" y="660" on="0"/>
        <pt x="1029" y="666" on="0"/>
        <pt x="1124" y="670" on="0"/>
        <pt x="1157" y="672" on="1"/>
        <pt x="1233" y="676" on="0"/>
        <pt x="1255" y="676" on="1"/>
        <pt x="1266" y="676" on="0"/>
        <pt x="1278" y="654" on="0"/>
        <pt x="1279" y="627" on="0"/>
        <pt x="1267" y="605" on="0"/>
        <pt x="1253" y="606" on="1"/>
        <pt x="1187" y="603" on="0"/>
        <pt x="1108" y="600" on="1"/>
        <pt x="1039" y="598" on="0"/>
        <pt x="856" y="594" on="0"/>
        <pt x="748" y="594" on="1"/>
        <pt x="716" y="594" on="0"/>
        <pt x="651" y="592" on="0"/>
        <pt x="618" y="594" on="1"/>
        <pt x="643" y="478" on="0"/>
        <pt x="758" y="295" on="0"/>
        <pt x="926" y="163" on="0"/>
        <pt x="1140" y="84" on="0"/>
        <pt x="1262" y="74" on="1"/>
        <pt x="1341" y="69" on="0"/>
        <pt x="1426" y="80" on="1"/>
        <pt x="1499" y="89" on="0"/>
        <pt x="1678" y="137" on="0"/>
        <pt x="1767" y="188" on="1"/>
        <pt x="1721" y="143" on="0"/>
        <pt x="1616" y="73" on="0"/>
        <pt x="1505" y="20" on="0"/>
        <pt x="1395" y="-17" on="0"/>
        <pt x="1344" y="-30" on="1"/>
        <pt x="1225" y="-60" on="0"/>
        <pt x="1104" y="-68" on="1"/>
        <pt x="937" y="-66" on="0"/>
        <pt x="666" y="27" on="0"/>
        <pt x="472" y="200" on="0"/>
        <pt x="363" y="447" on="0"/>
        <pt x="358" y="602" on="1"/>
        <pt x="281" y="605" on="0"/>
        <pt x="130" y="617" on="0"/>
        <pt x="55" y="625" on="1"/>
        <pt x="358" y="637" on="1"/>
        <pt x="358" y="660" on="0"/>
        <pt x="361" y="707" on="0"/>
        <pt x="365" y="729" on="1"/>
        <pt x="206" y="732" on="0"/>
        <pt x="55" y="741" on="1"/>
        <pt x="371" y="762" on="1"/>
        <pt x="394" y="875" on="0"/>
        <pt x="512" y="1069" on="0"/>
        <pt x="678" y="1227" on="0"/>
        <pt x="882" y="1349" on="0"/>
        <pt x="1102" y="1432" on="0"/>
        <pt x="1325" y="1475" on="0"/>
        <pt x="1427" y="1475" on="1"/>
        <pt x="1460" y="1475" on="0"/>
        <pt x="1537" y="1473" on="0"/>
        <pt x="1612" y="1465" on="0"/>
        <pt x="1679" y="1450" on="0"/>
        <pt x="1725" y="1424" on="0"/>
        <pt x="1744" y="1386" on="0"/>
        <pt x="1733" y="1360" on="1"/>
        <pt x="1718" y="1351" on="0"/>
        <pt x="1684" y="1329" on="1"/>
        <pt x="1655" y="1310" on="0"/>
        <pt x="1549" y="1241" on="0"/>
        <pt x="1462" y="1186" on="1"/>
        <pt x="1501" y="1215" on="0"/>
        <pt x="1501" y="1241" on="1"/>
        <pt x="1501" y="1263" on="0"/>
        <pt x="1462" y="1297" on="0"/>
        <pt x="1402" y="1321" on="0"/>
        <pt x="1329" y="1336" on="0"/>
        <pt x="1260" y="1345" on="0"/>
        <pt x="1205" y="1348" on="0"/>
        <pt x="1192" y="1348" on="1"/>
        <pt x="906" y="1348" on="0"/>
        <pt x="606" y="1057" on="0"/>
        <pt x="602" y="776" on="1"/>
        <pt x="716" y="783" on="0"/>
        <pt x="894" y="794" on="0"/>
        <pt x="1029" y="803" on="0"/>
        <pt x="1125" y="809" on="0"/>
        <pt x="1158" y="811" on="1"/>
        <pt x="1235" y="815" on="0"/>
      </contour>
    </TTGlyph>
    <TTGlyph name="F" xMin="80" yMin="-66" xMax="1201" yMax="1494">
      <contour>
        <pt x="1067" y="823" on="1"/>
        <pt x="1098" y="820" on="0"/>
        <pt x="1124" y="808" on="0"/>
        <pt x="1124" y="797" on="1"/>
        <pt x="1124" y="781" on="0"/>
        <pt x="1087" y="745" on="0"/>
        <pt x="1029" y="707" on="0"/>
        <pt x="961" y="671" on="0"/>
        <pt x="898" y="642" on="0"/>
        <pt x="850" y="621" on="0"/>
        <pt x="842" y="618" on="1"/>
        <pt x="855" y="632" on="0"/>
        <pt x="854" y="651" on="0"/>
        <pt x="847" y="657" on="1"/>
        <pt x="839" y="664" on="0"/>
        <pt x="825" y="668" on="1"/>
        <pt x="814" y="670" on="0"/>
        <pt x="750" y="668" on="0"/>
        <pt x="658" y="661" on="0"/>
        <pt x="545" y="651" on="0"/>
        <pt x="485" y="647" on="1"/>
        <pt x="469" y="135" on="1"/>
        <pt x="492" y="118" on="0"/>
        <pt x="556" y="104" on="0"/>
        <pt x="590" y="104" on="1"/>
        <pt x="624" y="104" on="0"/>
        <pt x="690" y="113" on="0"/>
        <pt x="716" y="119" on="1"/>
        <pt x="747" y="126" on="0"/>
        <pt x="774" y="135" on="1"/>
        <pt x="734" y="101" on="0"/>
        <pt x="633" y="30" on="0"/>
        <pt x="519" y="-29" on="0"/>
        <pt x="394" y="-66" on="0"/>
        <pt x="330" y="-66" on="1"/>
        <pt x="311" y="-66" on="0"/>
        <pt x="272" y="-56" on="0"/>
        <pt x="242" y="-31" on="0"/>
        <pt x="223" y="11" on="0"/>
        <pt x="225" y="43" on="1"/>
        <pt x="225" y="62" on="0"/>
        <pt x="227" y="132" on="1"/>
        <pt x="228" y="162" on="0"/>
        <pt x="230" y="248" on="0"/>
        <pt x="233" y="370" on="0"/>
        <pt x="237" y="531" on="0"/>
        <pt x="240" y="635" on="1"/>
        <pt x="211" y="635" on="1"/>
        <pt x="240" y="651" on="1"/>
        <pt x="258" y="1319" on="1"/>
        <pt x="248" y="1319" on="1"/>
        <pt x="203" y="1319" on="0"/>
        <pt x="118" y="1321" on="0"/>
        <pt x="80" y="1323" on="1"/>
        <pt x="352" y="1470" on="1"/>
        <pt x="390" y="1465" on="0"/>
        <pt x="466" y="1462" on="0"/>
        <pt x="504" y="1462" on="1"/>
        <pt x="548" y="1462" on="0"/>
        <pt x="679" y="1467" on="0"/>
        <pt x="825" y="1475" on="0"/>
        <pt x="973" y="1484" on="0"/>
        <pt x="1096" y="1491" on="0"/>
        <pt x="1178" y="1494" on="0"/>
        <pt x="1186" y="1493" on="1"/>
        <pt x="1201" y="1491" on="0"/>
        <pt x="1193" y="1468" on="0"/>
        <pt x="1160" y="1434" on="0"/>
        <pt x="1108" y="1393" on="0"/>
        <pt x="1049" y="1353" on="0"/>
        <pt x="991" y="1318" on="0"/>
        <pt x="967" y="1307" on="1"/>
        <pt x="982" y="1354" on="0"/>
        <pt x="879" y="1354" on="1"/>
        <pt x="788" y="1354" on="0"/>
        <pt x="607" y="1337" on="0"/>
        <pt x="508" y="1329" on="1"/>
        <pt x="489" y="768" on="1"/>
        <pt x="667" y="791" on="0"/>
        <pt x="892" y="814" on="0"/>
        <pt x="956" y="819" on="1"/>
        <pt x="1031" y="824" on="0"/>
      </contour>
    </TTGlyph>
    <TTGlyph name="G" xMin="115" yMin="-66" xMax="1823" yMax="1518">
      <contour>
        <pt x="1823" y="807" on="1"/>
        <pt x="1800" y="791" on="0"/>
        <pt x="1754" y="762" on="0"/>
        <pt x="1731" y="750" on="1"/>
        <pt x="1731" y="686" on="1"/>
        <pt x="1731" y="551" on="0"/>
        <pt x="1702" y="375" on="0"/>
        <pt x="1685" y="323" on="1"/>
        <pt x="1665" y="261" on="0"/>
        <pt x="1640" y="229" on="1"/>
        <pt x="1613" y="200" on="0"/>
        <pt x="1515" y="133" on="0"/>
        <pt x="1389" y="68" on="0"/>
        <pt x="1246" y="7" on="0"/>
        <pt x="1102" y="-39" on="0"/>
        <pt x="968" y="-66" on="0"/>
        <pt x="915" y="-66" on="1"/>
        <pt x="749" y="-66" on="0"/>
        <pt x="458" y="22" on="0"/>
        <pt x="241" y="196" on="0"/>
        <pt x="115" y="456" on="0"/>
        <pt x="115" y="627" on="1"/>
        <pt x="115" y="734" on="0"/>
        <pt x="176" y="925" on="0"/>
        <pt x="284" y="1091" on="0"/>
        <pt x="432" y="1231" on="0"/>
        <pt x="605" y="1344" on="0"/>
        <pt x="796" y="1430" on="0"/>
        <pt x="992" y="1488" on="0"/>
        <pt x="1184" y="1518" on="0"/>
        <pt x="1272" y="1518" on="1"/>
        <pt x="1330" y="1518" on="0"/>
        <pt x="1432" y="1509" on="0"/>
        <pt x="1515" y="1495" on="0"/>
        <pt x="1576" y="1478" on="0"/>
        <pt x="1593" y="1470" on="1"/>
        <pt x="1642" y="1449" on="0"/>
        <pt x="1642" y="1411" on="1"/>
        <pt x="1642" y="1388" on="0"/>
        <pt x="1607" y="1345" on="0"/>
        <pt x="1553" y="1304" on="0"/>
        <pt x="1487" y="1268" on="0"/>
        <pt x="1424" y="1239" on="0"/>
        <pt x="1371" y="1218" on="0"/>
        <pt x="1358" y="1212" on="1"/>
        <pt x="1377" y="1232" on="0"/>
        <pt x="1378" y="1267" on="0"/>
        <pt x="1371" y="1280" on="1"/>
        <pt x="1363" y="1295" on="0"/>
        <pt x="1346" y="1307" on="1"/>
        <pt x="1331" y="1316" on="0"/>
        <pt x="1276" y="1347" on="0"/>
        <pt x="1195" y="1377" on="0"/>
        <pt x="1091" y="1399" on="0"/>
        <pt x="1028" y="1399" on="1"/>
        <pt x="939" y="1399" on="0"/>
        <pt x="775" y="1358" on="0"/>
        <pt x="633" y="1281" on="0"/>
        <pt x="517" y="1168" on="0"/>
        <pt x="434" y="1023" on="0"/>
        <pt x="389" y="850" on="0"/>
        <pt x="389" y="750" on="1"/>
        <pt x="389" y="571" on="0"/>
        <pt x="502" y="314" on="0"/>
        <pt x="702" y="149" on="0"/>
        <pt x="975" y="70" on="0"/>
        <pt x="1135" y="70" on="1"/>
        <pt x="1213" y="70" on="0"/>
        <pt x="1344" y="94" on="0"/>
        <pt x="1386" y="117" on="1"/>
        <pt x="1412" y="138" on="0"/>
        <pt x="1445" y="216" on="0"/>
        <pt x="1464" y="314" on="0"/>
        <pt x="1472" y="423" on="0"/>
        <pt x="1474" y="527" on="0"/>
        <pt x="1473" y="618" on="0"/>
        <pt x="1473" y="649" on="1"/>
        <pt x="1431" y="649" on="0"/>
        <pt x="1351" y="653" on="0"/>
        <pt x="1309" y="653" on="1"/>
        <pt x="1264" y="653" on="0"/>
        <pt x="1173" y="640" on="0"/>
        <pt x="1128" y="618" on="1"/>
        <pt x="1208" y="674" on="0"/>
        <pt x="1320" y="740" on="0"/>
        <pt x="1356" y="758" on="1"/>
        <pt x="1398" y="779" on="0"/>
        <pt x="1425" y="788" on="1"/>
        <pt x="1457" y="797" on="0"/>
        <pt x="1543" y="804" on="0"/>
        <pt x="1645" y="806" on="0"/>
        <pt x="1761" y="805" on="0"/>
      </contour>
    </TTGlyph>
    <TTGlyph name="Gbreve" xMin="115" yMin="-66" xMax="1823" yMax="1929">
      <component glyphName="G" x="0" y="0" flags="0x204"/>
      <component glyphName="breve" x="555" y="303" flags="0x4"/>
    </TTGlyph>
    <TTGlyph name="Gcircumflex" xMin="115" yMin="-66" xMax="1823" yMax="1935">
      <component glyphName="G" x="0" y="0" flags="0x204"/>
      <component glyphName="circumflex" x="608" y="307" flags="0x4"/>
    </TTGlyph>
    <TTGlyph name="Gcommaaccent" xMin="115" yMin="-627" xMax="1823" yMax="1518">
      <component glyphName="G" x="0" y="0" flags="0x204"/>
      <component glyphName="uni0326" x="643" y="0" flags="0x4"/>
    </TTGlyph>
    <TTGlyph name="Gdotaccent" xMin="115" yMin="-66" xMax="1823" yMax="1805">
      <component glyphName="G" x="0" y="0" flags="0x204"/>
      <component glyphName="dotaccent" x="766" y="283" flags="0x4"/>
    </TTGlyph>
    <TTGlyph name="H" xMin="31" yMin="-65" xMax="1892" yMax="1481">
      <contour>
        <pt x="1749" y="846" on="1"/>
        <pt x="1717" y="815" on="0"/>
        <pt x="1644" y="768" on="0"/>
        <pt x="1606" y="748" on="1"/>
        <pt x="1604" y="626" on="0"/>
        <pt x="1596" y="324" on="0"/>
        <pt x="1593" y="137" on="1"/>
        <pt x="1647" y="126" on="0"/>
        <pt x="1736" y="119" on="0"/>
        <pt x="1772" y="119" on="1"/>
        <pt x="1801" y="119" on="0"/>
        <pt x="1846" y="123" on="0"/>
        <pt x="1861" y="125" on="1"/>
        <pt x="1879" y="128" on="0"/>
        <pt x="1892" y="131" on="1"/>
        <pt x="1833" y="91" on="0"/>
        <pt x="1720" y="24" on="0"/>
        <pt x="1615" y="-26" on="0"/>
        <pt x="1522" y="-57" on="0"/>
        <pt x="1483" y="-61" on="1"/>
        <pt x="1443" y="-65" on="0"/>
        <pt x="1383" y="-64" on="0"/>
        <pt x="1344" y="-38" on="0"/>
        <pt x="1325" y="18" on="0"/>
        <pt x="1325" y="68" on="1"/>
        <pt x="1325" y="91" on="0"/>
        <pt x="1327" y="206" on="0"/>
        <pt x="1331" y="365" on="0"/>
        <pt x="1336" y="557" on="0"/>
        <pt x="1339" y="657" on="1"/>
        <pt x="1275" y="644" on="0"/>
        <pt x="1162" y="632" on="0"/>
        <pt x="1119" y="630" on="1"/>
        <pt x="1069" y="627" on="0"/>
        <pt x="1026" y="629" on="1"/>
        <pt x="917" y="634" on="0"/>
        <pt x="743" y="639" on="0"/>
        <pt x="674" y="639" on="1"/>
        <pt x="632" y="639" on="0"/>
        <pt x="560" y="637" on="0"/>
        <pt x="528" y="635" on="1"/>
        <pt x="518" y="111" on="1"/>
        <pt x="553" y="100" on="0"/>
        <pt x="620" y="92" on="0"/>
        <pt x="651" y="92" on="1"/>
        <pt x="691" y="92" on="0"/>
        <pt x="759" y="102" on="0"/>
        <pt x="810" y="116" on="0"/>
        <pt x="840" y="127" on="0"/>
        <pt x="842" y="129" on="1"/>
        <pt x="795" y="89" on="0"/>
        <pt x="687" y="23" on="0"/>
        <pt x="578" y="-27" on="0"/>
        <pt x="477" y="-57" on="0"/>
        <pt x="438" y="-61" on="1"/>
        <pt x="398" y="-65" on="0"/>
        <pt x="330" y="-64" on="0"/>
        <pt x="280" y="-38" on="0"/>
        <pt x="252" y="18" on="0"/>
        <pt x="252" y="68" on="1"/>
        <pt x="252" y="93" on="0"/>
        <pt x="255" y="216" on="0"/>
        <pt x="260" y="387" on="0"/>
        <pt x="266" y="590" on="0"/>
        <pt x="272" y="798" on="0"/>
        <pt x="279" y="996" on="0"/>
        <pt x="284" y="1158" on="0"/>
        <pt x="288" y="1268" on="0"/>
        <pt x="289" y="1284" on="1"/>
        <pt x="290" y="1319" on="0"/>
        <pt x="229" y="1348" on="0"/>
        <pt x="184" y="1348" on="1"/>
        <pt x="147" y="1348" on="0"/>
        <pt x="68" y="1334" on="0"/>
        <pt x="31" y="1325" on="1"/>
        <pt x="82" y="1359" on="0"/>
        <pt x="181" y="1416" on="0"/>
        <pt x="282" y="1458" on="0"/>
        <pt x="386" y="1481" on="0"/>
        <pt x="442" y="1481" on="1"/>
        <pt x="464" y="1481" on="0"/>
        <pt x="503" y="1476" on="0"/>
        <pt x="532" y="1465" on="0"/>
        <pt x="549" y="1447" on="0"/>
        <pt x="549" y="1434" on="1"/>
        <pt x="548" y="1413" on="0"/>
        <pt x="546" y="1338" on="1"/>
        <pt x="545" y="1306" on="0"/>
        <pt x="543" y="1212" on="0"/>
        <pt x="539" y="1080" on="0"/>
        <pt x="535" y="907" on="0"/>
        <pt x="532" y="795" on="1"/>
        <pt x="591" y="801" on="0"/>
        <pt x="714" y="807" on="0"/>
        <pt x="774" y="807" on="1"/>
        <pt x="838" y="807" on="0"/>
        <pt x="963" y="800" on="0"/>
        <pt x="1084" y="793" on="0"/>
        <pt x="1203" y="786" on="0"/>
        <pt x="1262" y="786" on="1"/>
        <pt x="1343" y="786" on="1"/>
        <pt x="1362" y="1284" on="1"/>
        <pt x="1363" y="1302" on="0"/>
        <pt x="1348" y="1326" on="0"/>
        <pt x="1320" y="1341" on="0"/>
        <pt x="1282" y="1348" on="0"/>
        <pt x="1260" y="1348" on="1"/>
        <pt x="1222" y="1348" on="0"/>
        <pt x="1141" y="1334" on="0"/>
        <pt x="1104" y="1325" on="1"/>
        <pt x="1155" y="1359" on="0"/>
        <pt x="1254" y="1416" on="0"/>
        <pt x="1355" y="1458" on="0"/>
        <pt x="1460" y="1481" on="0"/>
        <pt x="1516" y="1481" on="1"/>
        <pt x="1559" y="1481" on="0"/>
        <pt x="1622" y="1459" on="0"/>
        <pt x="1622" y="1434" on="1"/>
        <pt x="1621" y="1413" on="0"/>
        <pt x="1619" y="1340" on="1"/>
        <pt x="1618" y="1309" on="0"/>
        <pt x="1616" y="1218" on="0"/>
        <pt x="1614" y="1090" on="0"/>
        <pt x="1610" y="921" on="0"/>
        <pt x="1608" y="813" on="1"/>
        <pt x="1643" y="819" on="0"/>
        <pt x="1714" y="835" on="0"/>
      </contour>
    </TTGlyph>
    <TTGlyph name="Hbar" xMin="31" yMin="-65" xMax="1892" yMax="1481">
      <contour>
        <pt x="1749" y="846" on="1"/>
        <pt x="1717" y="815" on="0"/>
        <pt x="1644" y="768" on="0"/>
        <pt x="1606" y="748" on="1"/>
        <pt x="1604" y="626" on="0"/>
        <pt x="1596" y="324" on="0"/>
        <pt x="1593" y="137" on="1"/>
        <pt x="1647" y="126" on="0"/>
        <pt x="1736" y="119" on="0"/>
        <pt x="1772" y="119" on="1"/>
        <pt x="1801" y="119" on="0"/>
        <pt x="1846" y="123" on="0"/>
        <pt x="1861" y="125" on="1"/>
        <pt x="1879" y="128" on="0"/>
        <pt x="1892" y="131" on="1"/>
        <pt x="1833" y="91" on="0"/>
        <pt x="1720" y="24" on="0"/>
        <pt x="1615" y="-26" on="0"/>
        <pt x="1522" y="-57" on="0"/>
        <pt x="1483" y="-61" on="1"/>
        <pt x="1443" y="-65" on="0"/>
        <pt x="1383" y="-64" on="0"/>
        <pt x="1344" y="-38" on="0"/>
        <pt x="1325" y="18" on="0"/>
        <pt x="1325" y="68" on="1"/>
        <pt x="1325" y="91" on="0"/>
        <pt x="1327" y="206" on="0"/>
        <pt x="1331" y="365" on="0"/>
        <pt x="1336" y="557" on="0"/>
        <pt x="1339" y="657" on="1"/>
        <pt x="1275" y="644" on="0"/>
        <pt x="1162" y="632" on="0"/>
        <pt x="1119" y="630" on="1"/>
        <pt x="1069" y="627" on="0"/>
        <pt x="1026" y="629" on="1"/>
        <pt x="917" y="634" on="0"/>
        <pt x="743" y="639" on="0"/>
        <pt x="674" y="639" on="1"/>
        <pt x="632" y="639" on="0"/>
        <pt x="560" y="637" on="0"/>
        <pt x="528" y="635" on="1"/>
        <pt x="518" y="111" on="1"/>
        <pt x="553" y="100" on="0"/>
        <pt x="620" y="92" on="0"/>
        <pt x="651" y="92" on="1"/>
        <pt x="689" y="92" on="0"/>
        <pt x="754" y="101" on="0"/>
        <pt x="803" y="113" on="0"/>
        <pt x="835" y="125" on="0"/>
        <pt x="840" y="127" on="1"/>
        <pt x="793" y="87" on="0"/>
        <pt x="685" y="21" on="0"/>
        <pt x="578" y="-28" on="0"/>
        <pt x="477" y="-57" on="0"/>
        <pt x="438" y="-61" on="1"/>
        <pt x="398" y="-65" on="0"/>
        <pt x="330" y="-64" on="0"/>
        <pt x="280" y="-38" on="0"/>
        <pt x="252" y="18" on="0"/>
        <pt x="252" y="68" on="1"/>
        <pt x="252" y="89" on="0"/>
        <pt x="254" y="189" on="0"/>
        <pt x="257" y="327" on="0"/>
        <pt x="262" y="494" on="0"/>
        <pt x="267" y="673" on="0"/>
        <pt x="273" y="853" on="0"/>
        <pt x="276" y="936" on="1"/>
        <pt x="47" y="936" on="1"/>
        <pt x="73" y="958" on="0"/>
        <pt x="95" y="977" on="1"/>
        <pt x="114" y="993" on="0"/>
        <pt x="149" y="1023" on="0"/>
        <pt x="156" y="1028" on="1"/>
        <pt x="163" y="1034" on="0"/>
        <pt x="191" y="1064" on="0"/>
        <pt x="224" y="1096" on="0"/>
        <pt x="256" y="1120" on="0"/>
        <pt x="266" y="1120" on="1"/>
        <pt x="283" y="1120" on="1"/>
        <pt x="285" y="1182" on="0"/>
        <pt x="287" y="1270" on="0"/>
        <pt x="289" y="1284" on="1"/>
        <pt x="290" y="1319" on="0"/>
        <pt x="229" y="1348" on="0"/>
        <pt x="184" y="1348" on="1"/>
        <pt x="147" y="1348" on="0"/>
        <pt x="68" y="1334" on="0"/>
        <pt x="31" y="1325" on="1"/>
        <pt x="82" y="1359" on="0"/>
        <pt x="181" y="1416" on="0"/>
        <pt x="282" y="1458" on="0"/>
        <pt x="386" y="1481" on="0"/>
        <pt x="442" y="1481" on="1"/>
        <pt x="464" y="1481" on="0"/>
        <pt x="503" y="1476" on="0"/>
        <pt x="532" y="1465" on="0"/>
        <pt x="549" y="1447" on="0"/>
        <pt x="549" y="1434" on="1"/>
        <pt x="548" y="1423" on="0"/>
        <pt x="547" y="1385" on="1"/>
        <pt x="545" y="1353" on="0"/>
        <pt x="542" y="1227" on="0"/>
        <pt x="539" y="1120" on="1"/>
        <pt x="1356" y="1120" on="1"/>
        <pt x="1362" y="1284" on="1"/>
        <pt x="1363" y="1302" on="0"/>
        <pt x="1348" y="1326" on="0"/>
        <pt x="1320" y="1341" on="0"/>
        <pt x="1282" y="1348" on="0"/>
        <pt x="1260" y="1348" on="1"/>
        <pt x="1222" y="1348" on="0"/>
        <pt x="1141" y="1334" on="0"/>
        <pt x="1104" y="1325" on="1"/>
        <pt x="1155" y="1359" on="0"/>
        <pt x="1254" y="1416" on="0"/>
        <pt x="1355" y="1458" on="0"/>
        <pt x="1460" y="1481" on="0"/>
        <pt x="1516" y="1481" on="1"/>
        <pt x="1559" y="1481" on="0"/>
        <pt x="1622" y="1459" on="0"/>
        <pt x="1622" y="1434" on="1"/>
        <pt x="1621" y="1422" on="0"/>
        <pt x="1620" y="1384" on="1"/>
        <pt x="1619" y="1352" on="0"/>
        <pt x="1616" y="1227" on="0"/>
        <pt x="1614" y="1120" on="1"/>
        <pt x="1841" y="1120" on="1"/>
        <pt x="1832" y="1118" on="0"/>
        <pt x="1801" y="1093" on="0"/>
        <pt x="1769" y="1061" on="0"/>
        <pt x="1741" y="1031" on="0"/>
        <pt x="1735" y="1026" on="1"/>
        <pt x="1728" y="1021" on="0"/>
        <pt x="1698" y="991" on="0"/>
        <pt x="1665" y="960" on="0"/>
        <pt x="1633" y="936" on="0"/>
        <pt x="1624" y="936" on="1"/>
        <pt x="1610" y="936" on="1"/>
        <pt x="1608" y="907" on="0"/>
        <pt x="1608" y="847" on="0"/>
        <pt x="1608" y="813" on="1"/>
        <pt x="1643" y="819" on="0"/>
        <pt x="1714" y="835" on="0"/>
      </contour>
      <contour>
        <pt x="774" y="807" on="1"/>
        <pt x="838" y="807" on="0"/>
        <pt x="963" y="800" on="0"/>
        <pt x="1084" y="793" on="0"/>
        <pt x="1203" y="786" on="0"/>
        <pt x="1262" y="786" on="1"/>
        <pt x="1343" y="786" on="1"/>
        <pt x="1348" y="936" on="1"/>
        <pt x="535" y="936" on="1"/>
        <pt x="535" y="901" on="0"/>
        <pt x="532" y="837" on="0"/>
        <pt x="532" y="795" on="1"/>
        <pt x="591" y="801" on="0"/>
        <pt x="714" y="807" on="0"/>
      </contour>
    </TTGlyph>
    <TTGlyph name="Hcircumflex" xMin="31" yMin="-65" xMax="1892" yMax="1913">
      <component glyphName="H" x="0" y="0" flags="0x204"/>
      <component glyphName="circumflex" x="616" y="285" flags="0x4"/>
    </TTGlyph>
    <TTGlyph name="I" xMin="25" yMin="-65" xMax="838" yMax="1481">
      <contour>
        <pt x="838" y="131" on="1"/>
        <pt x="779" y="91" on="0"/>
        <pt x="665" y="24" on="0"/>
        <pt x="560" y="-26" on="0"/>
        <pt x="467" y="-57" on="0"/>
        <pt x="428" y="-61" on="1"/>
        <pt x="389" y="-65" on="0"/>
        <pt x="330" y="-64" on="0"/>
        <pt x="290" y="-38" on="0"/>
        <pt x="270" y="18" on="0"/>
        <pt x="270" y="68" on="1"/>
        <pt x="270" y="93" on="0"/>
        <pt x="271" y="216" on="0"/>
        <pt x="272" y="387" on="0"/>
        <pt x="274" y="590" on="0"/>
        <pt x="276" y="798" on="0"/>
        <pt x="278" y="996" on="0"/>
        <pt x="280" y="1158" on="0"/>
        <pt x="282" y="1268" on="0"/>
        <pt x="283" y="1284" on="1"/>
        <pt x="284" y="1319" on="0"/>
        <pt x="223" y="1348" on="0"/>
        <pt x="178" y="1348" on="1"/>
        <pt x="141" y="1348" on="0"/>
        <pt x="62" y="1334" on="0"/>
        <pt x="25" y="1325" on="1"/>
        <pt x="76" y="1359" on="0"/>
        <pt x="175" y="1416" on="0"/>
        <pt x="276" y="1458" on="0"/>
        <pt x="380" y="1481" on="0"/>
        <pt x="436" y="1481" on="1"/>
        <pt x="458" y="1481" on="0"/>
        <pt x="497" y="1476" on="0"/>
        <pt x="526" y="1465" on="0"/>
        <pt x="543" y="1447" on="0"/>
        <pt x="543" y="1434" on="1"/>
        <pt x="543" y="1395" on="0"/>
        <pt x="542" y="1245" on="1"/>
        <pt x="542" y="1181" on="0"/>
        <pt x="541" y="991" on="0"/>
        <pt x="540" y="722" on="0"/>
        <pt x="539" y="366" on="0"/>
        <pt x="539" y="137" on="1"/>
        <pt x="593" y="126" on="0"/>
        <pt x="682" y="119" on="0"/>
        <pt x="717" y="119" on="1"/>
        <pt x="746" y="119" on="0"/>
        <pt x="791" y="123" on="0"/>
        <pt x="807" y="125" on="1"/>
        <pt x="825" y="128" on="0"/>
      </contour>
    </TTGlyph>
    <TTGlyph name="IJ" xMin="25" yMin="-102" xMax="1959" yMax="1513">
      <component glyphName="I" x="0" y="0" flags="0x4"/>
      <component glyphName="J" x="831" y="0" flags="0x4"/>
    </TTGlyph>
    <TTGlyph name="Iacute" xMin="25" yMin="-65" xMax="850" yMax="1955">
      <component glyphName="I" x="0" y="0" flags="0x204"/>
      <component glyphName="acute" x="291" y="274" flags="0x4"/>
    </TTGlyph>
    <TTGlyph name="Ibreve" xMin="25" yMin="-65" xMax="838" yMax="1937">
      <component glyphName="I" x="0" y="0" flags="0x204"/>
      <component glyphName="breve" x="31" y="311" flags="0x4"/>
    </TTGlyph>
    <TTGlyph name="Icircumflex" xMin="25" yMin="-65" xMax="838" yMax="1904">
      <component glyphName="I" x="0" y="0" flags="0x204"/>
      <component glyphName="circumflex" x="100" y="276" flags="0x4"/>
    </TTGlyph>
    <TTGlyph name="Idieresis" xMin="25" yMin="-65" xMax="838" yMax="1815">
      <component glyphName="I" x="0" y="0" flags="0x204"/>
      <component glyphName="dieresis" x="29" y="293" flags="0x4"/>
    </TTGlyph>
    <TTGlyph name="Idotaccent" xMin="25" yMin="-65" xMax="838" yMax="1839">
      <component glyphName="I" x="0" y="0" flags="0x204"/>
      <component glyphName="dotaccent" x="242" y="317" flags="0x4"/>
    </TTGlyph>
    <TTGlyph name="Igrave" xMin="-24" yMin="-65" xMax="838" yMax="1987">
      <component glyphName="I" x="0" y="0" flags="0x204"/>
      <component glyphName="grave" x="-24" y="281" flags="0x4"/>
    </TTGlyph>
    <TTGlyph name="Imacron" xMin="-40" yMin="-65" xMax="875" yMax="1712">
      <component glyphName="I" x="0" y="0" flags="0x204"/>
      <component glyphName="macron" x="-40" y="250" flags="0x4"/>
    </TTGlyph>
    <TTGlyph name="Iogonek" xMin="25" yMin="-471" xMax="838" yMax="1481">
      <contour>
        <pt x="838" y="-254" on="1"/>
        <pt x="815" y="-273" on="0"/>
        <pt x="758" y="-319" on="0"/>
        <pt x="694" y="-367" on="0"/>
        <pt x="625" y="-413" on="0"/>
        <pt x="556" y="-449" on="0"/>
        <pt x="488" y="-471" on="0"/>
        <pt x="457" y="-471" on="1"/>
        <pt x="421" y="-471" on="0"/>
        <pt x="359" y="-441" on="0"/>
        <pt x="313" y="-391" on="0"/>
        <pt x="287" y="-327" on="0"/>
        <pt x="287" y="-293" on="1"/>
        <pt x="287" y="-227" on="0"/>
        <pt x="350" y="-110" on="0"/>
        <pt x="399" y="-63" on="1"/>
        <pt x="367" y="-65" on="0"/>
        <pt x="318" y="-58" on="0"/>
        <pt x="286" y="-30" on="0"/>
        <pt x="270" y="23" on="0"/>
        <pt x="270" y="68" on="1"/>
        <pt x="270" y="93" on="0"/>
        <pt x="271" y="216" on="0"/>
        <pt x="272" y="387" on="0"/>
        <pt x="274" y="590" on="0"/>
        <pt x="276" y="798" on="0"/>
        <pt x="278" y="996" on="0"/>
        <pt x="280" y="1158" on="0"/>
        <pt x="282" y="1268" on="0"/>
        <pt x="283" y="1284" on="1"/>
        <pt x="284" y="1319" on="0"/>
        <pt x="223" y="1348" on="0"/>
        <pt x="178" y="1348" on="1"/>
        <pt x="141" y="1348" on="0"/>
        <pt x="62" y="1334" on="0"/>
        <pt x="25" y="1325" on="1"/>
        <pt x="76" y="1359" on="0"/>
        <pt x="175" y="1416" on="0"/>
        <pt x="276" y="1458" on="0"/>
        <pt x="380" y="1481" on="0"/>
        <pt x="436" y="1481" on="1"/>
        <pt x="458" y="1481" on="0"/>
        <pt x="497" y="1476" on="0"/>
        <pt x="526" y="1465" on="0"/>
        <pt x="543" y="1447" on="0"/>
        <pt x="543" y="1434" on="1"/>
        <pt x="543" y="1395" on="0"/>
        <pt x="542" y="1245" on="1"/>
        <pt x="542" y="1181" on="0"/>
        <pt x="541" y="991" on="0"/>
        <pt x="540" y="722" on="0"/>
        <pt x="539" y="366" on="0"/>
        <pt x="539" y="137" on="1"/>
        <pt x="593" y="126" on="0"/>
        <pt x="682" y="119" on="0"/>
        <pt x="717" y="119" on="1"/>
        <pt x="746" y="119" on="0"/>
        <pt x="791" y="123" on="0"/>
        <pt x="807" y="125" on="1"/>
        <pt x="825" y="128" on="0"/>
        <pt x="838" y="131" on="1"/>
        <pt x="805" y="95" on="0"/>
        <pt x="726" y="51" on="0"/>
        <pt x="645" y="18" on="0"/>
        <pt x="569" y="-11" on="0"/>
        <pt x="511" y="-51" on="0"/>
        <pt x="475" y="-110" on="0"/>
        <pt x="475" y="-156" on="1"/>
        <pt x="475" y="-191" on="0"/>
        <pt x="504" y="-256" on="0"/>
        <pt x="553" y="-305" on="0"/>
        <pt x="618" y="-334" on="0"/>
        <pt x="653" y="-334" on="1"/>
        <pt x="677" y="-334" on="0"/>
        <pt x="724" y="-317" on="0"/>
        <pt x="771" y="-292" on="0"/>
        <pt x="816" y="-264" on="0"/>
      </contour>
    </TTGlyph>
    <TTGlyph name="Itilde" xMin="-46" yMin="-65" xMax="880" yMax="1831">
      <component glyphName="I" x="0" y="0" flags="0x204"/>
      <component glyphName="tilde" x="-46" y="307" flags="0x4"/>
    </TTGlyph>
    <TTGlyph name="J" xMin="-12" yMin="-102" xMax="1128" yMax="1513">
      <contour>
        <pt x="1128" y="1509" on="1"/>
        <pt x="1126" y="1268" on="0"/>
        <pt x="1122" y="948" on="0"/>
        <pt x="1121" y="852" on="1"/>
        <pt x="1119" y="739" on="0"/>
        <pt x="1118" y="676" on="1"/>
        <pt x="1117" y="604" on="0"/>
        <pt x="1099" y="459" on="0"/>
        <pt x="1028" y="311" on="0"/>
        <pt x="888" y="159" on="0"/>
        <pt x="766" y="78" on="1"/>
        <pt x="688" y="27" on="0"/>
        <pt x="554" y="-42" on="0"/>
        <pt x="437" y="-84" on="0"/>
        <pt x="336" y="-102" on="0"/>
        <pt x="291" y="-102" on="1"/>
        <pt x="272" y="-102" on="0"/>
        <pt x="204" y="-95" on="0"/>
        <pt x="129" y="-79" on="0"/>
        <pt x="55" y="-54" on="0"/>
        <pt x="5" y="-19" on="0"/>
        <pt x="-12" y="27" on="0"/>
        <pt x="8" y="55" on="1"/>
        <pt x="28" y="80" on="0"/>
        <pt x="61" y="109" on="1"/>
        <pt x="89" y="134" on="0"/>
        <pt x="178" y="199" on="0"/>
        <pt x="242" y="236" on="1"/>
        <pt x="230" y="218" on="0"/>
        <pt x="230" y="189" on="0"/>
        <pt x="235" y="179" on="1"/>
        <pt x="240" y="167" on="0"/>
        <pt x="252" y="158" on="1"/>
        <pt x="263" y="150" on="0"/>
        <pt x="331" y="123" on="0"/>
        <pt x="425" y="96" on="0"/>
        <pt x="537" y="76" on="0"/>
        <pt x="592" y="76" on="1"/>
        <pt x="664" y="76" on="0"/>
        <pt x="761" y="122" on="0"/>
        <pt x="823" y="200" on="0"/>
        <pt x="856" y="302" on="0"/>
        <pt x="870" y="414" on="0"/>
        <pt x="872" y="530" on="0"/>
        <pt x="872" y="582" on="1"/>
        <pt x="872" y="700" on="0"/>
        <pt x="875" y="909" on="0"/>
        <pt x="877" y="1100" on="0"/>
        <pt x="876" y="1279" on="0"/>
        <pt x="872" y="1366" on="1"/>
        <pt x="840" y="1371" on="0"/>
        <pt x="782" y="1374" on="0"/>
        <pt x="756" y="1374" on="1"/>
        <pt x="700" y="1374" on="0"/>
        <pt x="615" y="1360" on="0"/>
        <pt x="556" y="1344" on="0"/>
        <pt x="523" y="1328" on="0"/>
        <pt x="520" y="1327" on="1"/>
        <pt x="567" y="1367" on="0"/>
        <pt x="655" y="1435" on="0"/>
        <pt x="746" y="1485" on="0"/>
        <pt x="843" y="1513" on="0"/>
        <pt x="899" y="1513" on="1"/>
        <pt x="956" y="1513" on="0"/>
        <pt x="1076" y="1506" on="0"/>
      </contour>
    </TTGlyph>
    <TTGlyph name="Jcircumflex" xMin="-12" yMin="-102" xMax="1319" yMax="1995">
      <component glyphName="J" x="0" y="0" flags="0x204"/>
      <component glyphName="circumflex" x="657" y="367" flags="0x4"/>
    </TTGlyph>
    <TTGlyph name="K" xMin="20" yMin="-46" xMax="1884" yMax="1507">
      <contour>
        <pt x="1884" y="145" on="1"/>
        <pt x="1808" y="81" on="0"/>
        <pt x="1691" y="9" on="0"/>
        <pt x="1649" y="-9" on="1"/>
        <pt x="1601" y="-30" on="0"/>
        <pt x="1565" y="-35" on="1"/>
        <pt x="1515" y="-46" on="0"/>
        <pt x="1394" y="-17" on="0"/>
        <pt x="1261" y="49" on="0"/>
        <pt x="1123" y="145" on="0"/>
        <pt x="989" y="254" on="0"/>
        <pt x="864" y="370" on="0"/>
        <pt x="759" y="476" on="0"/>
        <pt x="678" y="565" on="0"/>
        <pt x="655" y="594" on="1"/>
        <pt x="635" y="619" on="0"/>
        <pt x="612" y="652" on="0"/>
        <pt x="612" y="668" on="1"/>
        <pt x="612" y="683" on="0"/>
        <pt x="640" y="722" on="0"/>
        <pt x="674" y="754" on="1"/>
        <pt x="692" y="771" on="0"/>
        <pt x="750" y="828" on="0"/>
        <pt x="821" y="900" on="0"/>
        <pt x="900" y="983" on="0"/>
        <pt x="977" y="1069" on="0"/>
        <pt x="1048" y="1155" on="0"/>
        <pt x="1101" y="1232" on="0"/>
        <pt x="1133" y="1295" on="0"/>
        <pt x="1133" y="1317" on="1"/>
        <pt x="1133" y="1346" on="0"/>
        <pt x="1071" y="1346" on="1"/>
        <pt x="1047" y="1346" on="0"/>
        <pt x="1025" y="1347" on="1"/>
        <pt x="1006" y="1347" on="0"/>
        <pt x="967" y="1348" on="0"/>
        <pt x="956" y="1346" on="1"/>
        <pt x="1008" y="1376" on="0"/>
        <pt x="1099" y="1429" on="0"/>
        <pt x="1186" y="1468" on="0"/>
        <pt x="1274" y="1491" on="0"/>
        <pt x="1323" y="1491" on="1"/>
        <pt x="1345" y="1491" on="0"/>
        <pt x="1390" y="1488" on="0"/>
        <pt x="1415" y="1483" on="1"/>
        <pt x="1369" y="1402" on="0"/>
        <pt x="1274" y="1271" on="0"/>
        <pt x="1179" y="1161" on="0"/>
        <pt x="1086" y="1069" on="0"/>
        <pt x="996" y="986" on="0"/>
        <pt x="912" y="908" on="0"/>
        <pt x="874" y="866" on="1"/>
        <pt x="856" y="848" on="0"/>
        <pt x="861" y="798" on="0"/>
        <pt x="895" y="760" on="1"/>
        <pt x="948" y="701" on="0"/>
        <pt x="1077" y="562" on="0"/>
        <pt x="1224" y="422" on="0"/>
        <pt x="1385" y="290" on="0"/>
        <pt x="1553" y="188" on="0"/>
        <pt x="1726" y="127" on="0"/>
        <pt x="1812" y="127" on="1"/>
        <pt x="1857" y="127" on="0"/>
      </contour>
      <contour>
        <pt x="834" y="158" on="1"/>
        <pt x="775" y="118" on="0"/>
        <pt x="661" y="50" on="0"/>
        <pt x="556" y="-1" on="0"/>
        <pt x="463" y="-33" on="0"/>
        <pt x="424" y="-37" on="1"/>
        <pt x="385" y="-40" on="0"/>
        <pt x="325" y="-37" on="0"/>
        <pt x="286" y="-12" on="0"/>
        <pt x="266" y="43" on="0"/>
        <pt x="266" y="92" on="1"/>
        <pt x="266" y="117" on="0"/>
        <pt x="267" y="241" on="0"/>
        <pt x="268" y="412" on="0"/>
        <pt x="270" y="615" on="0"/>
        <pt x="272" y="823" on="0"/>
        <pt x="274" y="1022" on="0"/>
        <pt x="276" y="1184" on="0"/>
        <pt x="278" y="1295" on="0"/>
        <pt x="279" y="1311" on="1"/>
        <pt x="280" y="1329" on="0"/>
        <pt x="263" y="1353" on="0"/>
        <pt x="234" y="1368" on="0"/>
        <pt x="194" y="1374" on="0"/>
        <pt x="172" y="1374" on="1"/>
        <pt x="137" y="1374" on="0"/>
        <pt x="56" y="1361" on="0"/>
        <pt x="20" y="1352" on="1"/>
        <pt x="70" y="1384" on="0"/>
        <pt x="169" y="1441" on="0"/>
        <pt x="269" y="1483" on="0"/>
        <pt x="373" y="1507" on="0"/>
        <pt x="428" y="1507" on="1"/>
        <pt x="450" y="1507" on="0"/>
        <pt x="490" y="1502" on="0"/>
        <pt x="521" y="1491" on="0"/>
        <pt x="539" y="1472" on="0"/>
        <pt x="539" y="1458" on="1"/>
        <pt x="539" y="1420" on="0"/>
        <pt x="538" y="1270" on="1"/>
        <pt x="538" y="1206" on="0"/>
        <pt x="537" y="1016" on="0"/>
        <pt x="536" y="747" on="0"/>
        <pt x="535" y="392" on="0"/>
        <pt x="535" y="162" on="1"/>
        <pt x="587" y="153" on="0"/>
        <pt x="674" y="145" on="0"/>
        <pt x="709" y="145" on="1"/>
        <pt x="740" y="145" on="0"/>
        <pt x="786" y="149" on="0"/>
        <pt x="802" y="151" on="1"/>
        <pt x="820" y="154" on="0"/>
      </contour>
    </TTGlyph>
    <TTGlyph name="Kcommaaccent" xMin="20" yMin="-551" xMax="1884" yMax="1507">
      <component glyphName="K" x="0" y="0" flags="0x204"/>
      <component glyphName="uni0326" x="571" y="76" flags="0x4"/>
    </TTGlyph>
    <TTGlyph name="L" xMin="20" yMin="-42" xMax="1303" yMax="1507">
      <contour>
        <pt x="1303" y="168" on="1"/>
        <pt x="1192" y="98" on="0"/>
        <pt x="980" y="13" on="0"/>
        <pt x="766" y="-32" on="0"/>
        <pt x="544" y="-42" on="0"/>
        <pt x="424" y="-37" on="1"/>
        <pt x="385" y="-36" on="0"/>
        <pt x="325" y="-32" on="0"/>
        <pt x="286" y="-9" on="0"/>
        <pt x="266" y="43" on="0"/>
        <pt x="266" y="92" on="1"/>
        <pt x="266" y="117" on="0"/>
        <pt x="267" y="241" on="0"/>
        <pt x="268" y="412" on="0"/>
        <pt x="270" y="615" on="0"/>
        <pt x="272" y="823" on="0"/>
        <pt x="274" y="1022" on="0"/>
        <pt x="276" y="1184" on="0"/>
        <pt x="278" y="1295" on="0"/>
        <pt x="279" y="1311" on="1"/>
        <pt x="280" y="1329" on="0"/>
        <pt x="263" y="1353" on="0"/>
        <pt x="234" y="1368" on="0"/>
        <pt x="194" y="1374" on="0"/>
        <pt x="172" y="1374" on="1"/>
        <pt x="137" y="1374" on="0"/>
        <pt x="56" y="1361" on="0"/>
        <pt x="20" y="1352" on="1"/>
        <pt x="71" y="1385" on="0"/>
        <pt x="170" y="1442" on="0"/>
        <pt x="270" y="1483" on="0"/>
        <pt x="374" y="1507" on="0"/>
        <pt x="430" y="1507" on="1"/>
        <pt x="452" y="1507" on="0"/>
        <pt x="492" y="1502" on="0"/>
        <pt x="522" y="1491" on="0"/>
        <pt x="540" y="1472" on="0"/>
        <pt x="539" y="1458" on="1"/>
        <pt x="539" y="1420" on="0"/>
        <pt x="537" y="1268" on="1"/>
        <pt x="536" y="1203" on="0"/>
        <pt x="534" y="1011" on="0"/>
        <pt x="531" y="739" on="0"/>
        <pt x="528" y="378" on="0"/>
        <pt x="526" y="145" on="1"/>
        <pt x="620" y="134" on="0"/>
        <pt x="786" y="125" on="0"/>
        <pt x="860" y="125" on="1"/>
        <pt x="964" y="125" on="0"/>
        <pt x="1128" y="138" on="0"/>
        <pt x="1185" y="146" on="1"/>
        <pt x="1252" y="156" on="0"/>
      </contour>
    </TTGlyph>
    <TTGlyph name="Lacute" xMin="20" yMin="-42" xMax="1303" yMax="1998">
      <component glyphName="L" x="0" y="0" flags="0x204"/>
      <component glyphName="acute" x="365" y="317" flags="0x4"/>
    </TTGlyph>
    <TTGlyph name="Lcaron" xMin="20" yMin="-42" xMax="1303" yMax="1683">
      <component glyphName="L" x="0" y="0" flags="0x204"/>
      <component glyphName="uni0315" x="713" y="176" flags="0x4"/>
    </TTGlyph>
    <TTGlyph name="Lcommaaccent" xMin="20" yMin="-627" xMax="1303" yMax="1507">
      <component glyphName="L" x="0" y="0" flags="0x204"/>
      <component glyphName="uni0326" x="354" y="0" flags="0x4"/>
    </TTGlyph>
    <TTGlyph name="Ldot" xMin="20" yMin="-42" xMax="1303" yMax="1507">
      <component glyphName="L" x="0" y="0" flags="0x4"/>
      <component glyphName="periodcentered" x="715" y="0" flags="0x4"/>
    </TTGlyph>
    <TTGlyph name="Lslash" xMin="-14" yMin="-42" xMax="1366" yMax="1507">
      <contour>
        <pt x="1100" y="1040" on="1"/>
        <pt x="1039" y="975" on="0"/>
        <pt x="962" y="905" on="1"/>
        <pt x="896" y="845" on="0"/>
        <pt x="709" y="699" on="0"/>
        <pt x="594" y="627" on="1"/>
        <pt x="590" y="145" on="1"/>
        <pt x="684" y="134" on="0"/>
        <pt x="849" y="125" on="0"/>
        <pt x="924" y="125" on="1"/>
        <pt x="1028" y="125" on="0"/>
        <pt x="1191" y="138" on="0"/>
        <pt x="1248" y="146" on="1"/>
        <pt x="1315" y="156" on="0"/>
        <pt x="1366" y="168" on="1"/>
        <pt x="1249" y="96" on="0"/>
        <pt x="1039" y="10" on="0"/>
        <pt x="831" y="-33" on="0"/>
        <pt x="613" y="-42" on="0"/>
        <pt x="487" y="-37" on="1"/>
        <pt x="448" y="-36" on="0"/>
        <pt x="389" y="-32" on="0"/>
        <pt x="350" y="-9" on="0"/>
        <pt x="330" y="43" on="0"/>
        <pt x="330" y="92" on="1"/>
        <pt x="330" y="110" on="0"/>
        <pt x="330" y="185" on="0"/>
        <pt x="330" y="288" on="0"/>
        <pt x="331" y="415" on="0"/>
        <pt x="332" y="485" on="1"/>
        <pt x="250" y="450" on="0"/>
        <pt x="77" y="393" on="0"/>
        <pt x="-14" y="375" on="1"/>
        <pt x="69" y="417" on="0"/>
        <pt x="247" y="533" on="0"/>
        <pt x="332" y="596" on="1"/>
        <pt x="333" y="674" on="0"/>
        <pt x="335" y="834" on="0"/>
        <pt x="337" y="985" on="0"/>
        <pt x="339" y="1120" on="0"/>
        <pt x="340" y="1227" on="0"/>
        <pt x="341" y="1299" on="0"/>
        <pt x="342" y="1311" on="1"/>
        <pt x="343" y="1329" on="0"/>
        <pt x="326" y="1353" on="0"/>
        <pt x="297" y="1368" on="0"/>
        <pt x="258" y="1374" on="0"/>
        <pt x="236" y="1374" on="1"/>
        <pt x="200" y="1374" on="0"/>
        <pt x="119" y="1361" on="0"/>
        <pt x="84" y="1352" on="1"/>
        <pt x="135" y="1385" on="0"/>
        <pt x="233" y="1442" on="0"/>
        <pt x="334" y="1483" on="0"/>
        <pt x="438" y="1507" on="0"/>
        <pt x="494" y="1507" on="1"/>
        <pt x="516" y="1507" on="0"/>
        <pt x="556" y="1502" on="0"/>
        <pt x="586" y="1491" on="0"/>
        <pt x="603" y="1472" on="0"/>
        <pt x="602" y="1458" on="1"/>
        <pt x="601" y="1436" on="0"/>
        <pt x="600" y="1359" on="1"/>
        <pt x="600" y="1326" on="0"/>
        <pt x="598" y="1231" on="0"/>
        <pt x="597" y="1096" on="0"/>
        <pt x="595" y="919" on="0"/>
        <pt x="594" y="805" on="1"/>
        <pt x="629" y="834" on="0"/>
        <pt x="678" y="878" on="0"/>
        <pt x="690" y="889" on="1"/>
        <pt x="715" y="913" on="0"/>
        <pt x="803" y="939" on="0"/>
        <pt x="913" y="966" on="0"/>
        <pt x="1038" y="1005" on="0"/>
      </contour>
    </TTGlyph>
    <TTGlyph name="M" xMin="98" yMin="-45" xMax="2208" yMax="1612">
      <contour>
        <pt x="2208" y="158" on="1"/>
        <pt x="2165" y="116" on="0"/>
        <pt x="2076" y="40" on="0"/>
        <pt x="1988" y="-16" on="0"/>
        <pt x="1902" y="-45" on="0"/>
        <pt x="1862" y="-39" on="1"/>
        <pt x="1821" y="-33" on="0"/>
        <pt x="1777" y="22" on="0"/>
        <pt x="1755" y="109" on="0"/>
        <pt x="1747" y="221" on="0"/>
        <pt x="1743" y="285" on="1"/>
        <pt x="1738" y="339" on="0"/>
        <pt x="1729" y="450" on="1"/>
        <pt x="1725" y="497" on="0"/>
        <pt x="1714" y="626" on="0"/>
        <pt x="1701" y="795" on="0"/>
        <pt x="1683" y="1006" on="0"/>
        <pt x="1673" y="1137" on="1"/>
        <pt x="1622" y="1073" on="0"/>
        <pt x="1508" y="928" on="0"/>
        <pt x="1397" y="772" on="0"/>
        <pt x="1294" y="608" on="0"/>
        <pt x="1213" y="443" on="0"/>
        <pt x="1159" y="282" on="0"/>
        <pt x="1153" y="207" on="1"/>
        <pt x="930" y="-25" on="1"/>
        <pt x="932" y="10" on="0"/>
        <pt x="924" y="79" on="0"/>
        <pt x="918" y="106" on="1"/>
        <pt x="911" y="138" on="0"/>
        <pt x="901" y="166" on="1"/>
        <pt x="855" y="283" on="0"/>
        <pt x="748" y="509" on="0"/>
        <pt x="634" y="731" on="0"/>
        <pt x="517" y="949" on="0"/>
        <pt x="461" y="1059" on="1"/>
        <pt x="438" y="959" on="0"/>
        <pt x="402" y="792" on="0"/>
        <pt x="388" y="730" on="1"/>
        <pt x="372" y="658" on="0"/>
        <pt x="360" y="600" on="1"/>
        <pt x="278" y="221" on="0"/>
        <pt x="309" y="182" on="1"/>
        <pt x="317" y="173" on="0"/>
        <pt x="353" y="160" on="0"/>
        <pt x="379" y="160" on="1"/>
        <pt x="410" y="160" on="0"/>
        <pt x="485" y="185" on="0"/>
        <pt x="528" y="217" on="1"/>
        <pt x="464" y="157" on="0"/>
        <pt x="358" y="55" on="0"/>
        <pt x="266" y="-15" on="0"/>
        <pt x="187" y="-45" on="0"/>
        <pt x="150" y="-33" on="1"/>
        <pt x="122" y="-23" on="0"/>
        <pt x="98" y="27" on="0"/>
        <pt x="98" y="68" on="1"/>
        <pt x="98" y="125" on="0"/>
        <pt x="137" y="296" on="0"/>
        <pt x="160" y="408" on="1"/>
        <pt x="174" y="470" on="0"/>
        <pt x="210" y="635" on="0"/>
        <pt x="250" y="817" on="0"/>
        <pt x="290" y="1006" on="0"/>
        <pt x="327" y="1176" on="0"/>
        <pt x="356" y="1316" on="0"/>
        <pt x="365" y="1360" on="1"/>
        <pt x="369" y="1372" on="0"/>
        <pt x="395" y="1400" on="1"/>
        <pt x="406" y="1412" on="0"/>
        <pt x="439" y="1445" on="0"/>
        <pt x="486" y="1489" on="0"/>
        <pt x="549" y="1546" on="0"/>
        <pt x="590" y="1581" on="1"/>
        <pt x="582" y="1544" on="0"/>
        <pt x="594" y="1460" on="0"/>
        <pt x="604" y="1424" on="1"/>
        <pt x="615" y="1382" on="0"/>
        <pt x="633" y="1341" on="1"/>
        <pt x="647" y="1309" on="0"/>
        <pt x="712" y="1181" on="0"/>
        <pt x="797" y="1018" on="0"/>
        <pt x="895" y="833" on="0"/>
        <pt x="986" y="653" on="0"/>
        <pt x="1064" y="491" on="0"/>
        <pt x="1087" y="434" on="1"/>
        <pt x="1131" y="513" on="0"/>
        <pt x="1238" y="667" on="0"/>
        <pt x="1351" y="821" on="0"/>
        <pt x="1464" y="976" on="0"/>
        <pt x="1565" y="1136" on="0"/>
        <pt x="1649" y="1304" on="0"/>
        <pt x="1677" y="1393" on="1"/>
        <pt x="1703" y="1424" on="0"/>
        <pt x="1739" y="1459" on="1"/>
        <pt x="1769" y="1489" on="0"/>
        <pt x="1857" y="1567" on="0"/>
        <pt x="1913" y="1612" on="1"/>
        <pt x="1902" y="1581" on="0"/>
        <pt x="1894" y="1501" on="0"/>
        <pt x="1892" y="1465" on="1"/>
        <pt x="1890" y="1423" on="0"/>
        <pt x="1892" y="1380" on="1"/>
        <pt x="1893" y="1352" on="0"/>
        <pt x="1902" y="1232" on="0"/>
        <pt x="1914" y="1073" on="0"/>
        <pt x="1931" y="885" on="0"/>
        <pt x="1948" y="693" on="0"/>
        <pt x="1966" y="508" on="0"/>
        <pt x="1982" y="355" on="0"/>
        <pt x="1996" y="245" on="0"/>
        <pt x="2001" y="223" on="1"/>
        <pt x="2006" y="198" on="0"/>
        <pt x="2030" y="163" on="0"/>
        <pt x="2062" y="142" on="0"/>
        <pt x="2099" y="133" on="0"/>
        <pt x="2118" y="133" on="1"/>
        <pt x="2145" y="133" on="0"/>
        <pt x="2192" y="148" on="0"/>
      </contour>
    </TTGlyph>
    <TTGlyph name="N" xMin="209" yMin="-70" xMax="1722" yMax="1640">
      <contour>
        <pt x="1722" y="1511" on="1"/>
        <pt x="1708" y="1504" on="0"/>
        <pt x="1693" y="1480" on="0"/>
        <pt x="1689" y="1468" on="1"/>
        <pt x="1685" y="1454" on="0"/>
        <pt x="1683" y="1438" on="1"/>
        <pt x="1682" y="1427" on="0"/>
        <pt x="1679" y="1345" on="0"/>
        <pt x="1674" y="1220" on="0"/>
        <pt x="1669" y="1065" on="0"/>
        <pt x="1663" y="899" on="0"/>
        <pt x="1658" y="733" on="0"/>
        <pt x="1653" y="587" on="0"/>
        <pt x="1650" y="472" on="0"/>
        <pt x="1649" y="440" on="1"/>
        <pt x="1647" y="376" on="0"/>
        <pt x="1639" y="295" on="0"/>
        <pt x="1625" y="241" on="0"/>
        <pt x="1605" y="203" on="0"/>
        <pt x="1593" y="182" on="1"/>
        <pt x="1584" y="163" on="0"/>
        <pt x="1566" y="129" on="1"/>
        <pt x="1550" y="100" on="0"/>
        <pt x="1495" y="3" on="0"/>
        <pt x="1452" y="-70" on="1"/>
        <pt x="1437" y="-26" on="0"/>
        <pt x="1372" y="70" on="0"/>
        <pt x="1338" y="112" on="1"/>
        <pt x="1298" y="160" on="0"/>
        <pt x="1253" y="207" on="1"/>
        <pt x="1200" y="260" on="0"/>
        <pt x="1088" y="370" on="1"/>
        <pt x="1040" y="417" on="0"/>
        <pt x="910" y="544" on="0"/>
        <pt x="738" y="712" on="0"/>
        <pt x="522" y="924" on="0"/>
        <pt x="389" y="1055" on="1"/>
        <pt x="387" y="933" on="0"/>
        <pt x="384" y="737" on="0"/>
        <pt x="382" y="582" on="0"/>
        <pt x="380" y="467" on="0"/>
        <pt x="380" y="425" on="1"/>
        <pt x="379" y="327" on="0"/>
        <pt x="379" y="285" on="1"/>
        <pt x="378" y="253" on="0"/>
        <pt x="392" y="200" on="0"/>
        <pt x="422" y="161" on="0"/>
        <pt x="470" y="139" on="0"/>
        <pt x="504" y="139" on="1"/>
        <pt x="538" y="139" on="0"/>
        <pt x="626" y="162" on="0"/>
        <pt x="682" y="188" on="1"/>
        <pt x="633" y="140" on="0"/>
        <pt x="546" y="70" on="0"/>
        <pt x="469" y="20" on="0"/>
        <pt x="404" y="-12" on="0"/>
        <pt x="378" y="-21" on="1"/>
        <pt x="316" y="-43" on="0"/>
        <pt x="270" y="-39" on="1"/>
        <pt x="232" y="-31" on="0"/>
        <pt x="209" y="13" on="0"/>
        <pt x="209" y="55" on="1"/>
        <pt x="209" y="370" on="0"/>
        <pt x="231" y="990" on="0"/>
        <pt x="231" y="1298" on="1"/>
        <pt x="231" y="1345" on="0"/>
        <pt x="231" y="1407" on="0"/>
        <pt x="229" y="1421" on="1"/>
        <pt x="237" y="1447" on="0"/>
        <pt x="262" y="1480" on="1"/>
        <pt x="283" y="1509" on="0"/>
        <pt x="362" y="1589" on="0"/>
        <pt x="430" y="1640" on="1"/>
        <pt x="422" y="1619" on="0"/>
        <pt x="416" y="1579" on="0"/>
        <pt x="416" y="1561" on="1"/>
        <pt x="416" y="1532" on="0"/>
        <pt x="427" y="1487" on="0"/>
        <pt x="435" y="1471" on="1"/>
        <pt x="444" y="1453" on="0"/>
        <pt x="455" y="1438" on="1"/>
        <pt x="489" y="1396" on="0"/>
        <pt x="597" y="1284" on="0"/>
        <pt x="740" y="1143" on="0"/>
        <pt x="912" y="973" on="0"/>
        <pt x="1010" y="872" on="1"/>
        <pt x="1080" y="806" on="0"/>
        <pt x="1158" y="729" on="1"/>
        <pt x="1225" y="663" on="0"/>
        <pt x="1395" y="486" on="0"/>
        <pt x="1485" y="385" on="1"/>
        <pt x="1487" y="569" on="0"/>
        <pt x="1489" y="837" on="0"/>
        <pt x="1489" y="936" on="1"/>
        <pt x="1489" y="1027" on="0"/>
        <pt x="1488" y="1146" on="0"/>
        <pt x="1487" y="1182" on="1"/>
        <pt x="1486" y="1223" on="0"/>
        <pt x="1485" y="1247" on="1"/>
        <pt x="1485" y="1281" on="0"/>
        <pt x="1465" y="1327" on="0"/>
        <pt x="1434" y="1353" on="0"/>
        <pt x="1394" y="1364" on="0"/>
        <pt x="1374" y="1364" on="1"/>
        <pt x="1351" y="1364" on="0"/>
        <pt x="1309" y="1354" on="0"/>
        <pt x="1298" y="1346" on="1"/>
        <pt x="1340" y="1382" on="0"/>
        <pt x="1422" y="1445" on="0"/>
        <pt x="1507" y="1491" on="0"/>
        <pt x="1600" y="1518" on="0"/>
        <pt x="1653" y="1518" on="1"/>
        <pt x="1688" y="1518" on="0"/>
      </contour>
    </TTGlyph>
    <TTGlyph name="Nacute" xMin="209" yMin="-70" xMax="1722" yMax="1910">
      <component glyphName="N" x="0" y="0" flags="0x204"/>
      <component glyphName="acute" x="872" y="229" flags="0x4"/>
    </TTGlyph>
    <TTGlyph name="Ncaron" xMin="209" yMin="-70" xMax="1722" yMax="1882">
      <component glyphName="N" x="0" y="0" flags="0x204"/>
      <component glyphName="caron" x="664" y="254" flags="0x4"/>
    </TTGlyph>
    <TTGlyph name="Ncommaaccent" xMin="209" yMin="-516" xMax="1722" yMax="1640">
      <component glyphName="N" x="0" y="0" flags="0x204"/>
      <component glyphName="uni0326" x="645" y="111" flags="0x4"/>
    </TTGlyph>
    <TTGlyph name="Ntilde" xMin="209" yMin="-70" xMax="1722" yMax="1737">
      <component glyphName="N" x="0" y="0" flags="0x204"/>
      <component glyphName="tilde" x="504" y="213" flags="0x4"/>
    </TTGlyph>
    <TTGlyph name="O" xMin="115" yMin="-53" xMax="1798" yMax="1485">
      <contour>
        <pt x="1798" y="788" on="1"/>
        <pt x="1798" y="654" on="0"/>
        <pt x="1707" y="426" on="0"/>
        <pt x="1553" y="239" on="0"/>
        <pt x="1351" y="95" on="0"/>
        <pt x="1129" y="-3" on="0"/>
        <pt x="900" y="-53" on="0"/>
        <pt x="797" y="-53" on="1"/>
        <pt x="645" y="-53" on="0"/>
        <pt x="394" y="48" on="0"/>
        <pt x="214" y="228" on="0"/>
        <pt x="115" y="476" on="0"/>
        <pt x="115" y="623" on="1"/>
        <pt x="115" y="752" on="0"/>
        <pt x="206" y="981" on="0"/>
        <pt x="361" y="1172" on="0"/>
        <pt x="566" y="1324" on="0"/>
        <pt x="795" y="1429" on="0"/>
        <pt x="1034" y="1485" on="0"/>
        <pt x="1145" y="1485" on="1"/>
        <pt x="1245" y="1485" on="0"/>
        <pt x="1419" y="1434" on="0"/>
        <pt x="1564" y="1341" on="0"/>
        <pt x="1678" y="1212" on="0"/>
        <pt x="1757" y="1057" on="0"/>
        <pt x="1798" y="881" on="0"/>
      </contour>
      <contour>
        <pt x="897" y="1352" on="1"/>
        <pt x="767" y="1352" on="0"/>
        <pt x="574" y="1257" on="0"/>
        <pt x="446" y="1095" on="0"/>
        <pt x="383" y="880" on="0"/>
        <pt x="383" y="760" on="1"/>
        <pt x="383" y="609" on="0"/>
        <pt x="489" y="357" on="0"/>
        <pt x="674" y="175" on="0"/>
        <pt x="926" y="74" on="0"/>
        <pt x="1073" y="74" on="1"/>
        <pt x="1153" y="74" on="0"/>
        <pt x="1283" y="126" on="0"/>
        <pt x="1385" y="215" on="0"/>
        <pt x="1460" y="334" on="0"/>
        <pt x="1508" y="468" on="0"/>
        <pt x="1532" y="609" on="0"/>
        <pt x="1532" y="676" on="1"/>
        <pt x="1532" y="817" on="0"/>
        <pt x="1440" y="1063" on="0"/>
        <pt x="1272" y="1246" on="0"/>
        <pt x="1038" y="1352" on="0"/>
      </contour>
    </TTGlyph>
    <TTGlyph name="OE" xMin="115" yMin="-53" xMax="3002" yMax="1518">
      <contour>
        <pt x="2957" y="1364" on="1"/>
        <pt x="2939" y="1352" on="0"/>
        <pt x="2910" y="1335" on="1"/>
        <pt x="2884" y="1321" on="0"/>
        <pt x="2804" y="1278" on="0"/>
        <pt x="2744" y="1249" on="1"/>
        <pt x="2768" y="1268" on="0"/>
        <pt x="2764" y="1302" on="0"/>
        <pt x="2752" y="1315" on="1"/>
        <pt x="2738" y="1330" on="0"/>
        <pt x="2712" y="1343" on="1"/>
        <pt x="2664" y="1366" on="0"/>
        <pt x="2512" y="1386" on="0"/>
        <pt x="2427" y="1386" on="1"/>
        <pt x="2306" y="1386" on="0"/>
        <pt x="2091" y="1342" on="0"/>
        <pt x="1924" y="1225" on="0"/>
        <pt x="1816" y="1020" on="0"/>
        <pt x="1802" y="860" on="1"/>
        <pt x="1864" y="858" on="0"/>
        <pt x="1985" y="858" on="0"/>
        <pt x="2044" y="858" on="1"/>
        <pt x="2115" y="858" on="0"/>
        <pt x="2290" y="865" on="0"/>
        <pt x="2473" y="874" on="0"/>
        <pt x="2649" y="884" on="0"/>
        <pt x="2791" y="891" on="0"/>
        <pt x="2886" y="891" on="0"/>
        <pt x="2896" y="887" on="1"/>
        <pt x="2908" y="881" on="0"/>
        <pt x="2893" y="854" on="0"/>
        <pt x="2850" y="819" on="0"/>
        <pt x="2787" y="779" on="0"/>
        <pt x="2717" y="742" on="0"/>
        <pt x="2646" y="711" on="0"/>
        <pt x="2617" y="702" on="1"/>
        <pt x="2640" y="741" on="0"/>
        <pt x="2611" y="774" on="0"/>
        <pt x="2546" y="774" on="1"/>
        <pt x="2517" y="774" on="0"/>
        <pt x="2469" y="772" on="0"/>
        <pt x="2407" y="767" on="0"/>
        <pt x="2315" y="760" on="0"/>
        <pt x="2169" y="749" on="0"/>
        <pt x="1953" y="734" on="0"/>
        <pt x="1798" y="725" on="1"/>
        <pt x="1798" y="697" on="0"/>
        <pt x="1805" y="639" on="0"/>
        <pt x="1810" y="610" on="1"/>
        <pt x="1827" y="509" on="0"/>
        <pt x="1899" y="358" on="0"/>
        <pt x="1998" y="249" on="0"/>
        <pt x="2122" y="177" on="0"/>
        <pt x="2259" y="131" on="0"/>
        <pt x="2406" y="108" on="0"/>
        <pt x="2480" y="102" on="1"/>
        <pt x="2566" y="98" on="0"/>
        <pt x="2650" y="110" on="1"/>
        <pt x="2686" y="115" on="0"/>
        <pt x="2765" y="133" on="0"/>
        <pt x="2844" y="162" on="0"/>
        <pt x="2920" y="204" on="0"/>
        <pt x="2953" y="233" on="1"/>
        <pt x="2879" y="170" on="0"/>
        <pt x="2718" y="67" on="0"/>
        <pt x="2547" y="-8" on="0"/>
        <pt x="2371" y="-49" on="0"/>
        <pt x="2284" y="-49" on="1"/>
        <pt x="2225" y="-49" on="0"/>
        <pt x="2096" y="-34" on="0"/>
        <pt x="1966" y="-1" on="0"/>
        <pt x="1840" y="54" on="0"/>
        <pt x="1730" y="133" on="0"/>
        <pt x="1640" y="240" on="0"/>
        <pt x="1610" y="309" on="1"/>
        <pt x="1532" y="221" on="0"/>
        <pt x="1334" y="86" on="0"/>
        <pt x="1118" y="-6" on="0"/>
        <pt x="897" y="-53" on="0"/>
        <pt x="797" y="-53" on="1"/>
        <pt x="645" y="-53" on="0"/>
        <pt x="394" y="48" on="0"/>
        <pt x="214" y="228" on="0"/>
        <pt x="115" y="476" on="0"/>
        <pt x="115" y="623" on="1"/>
        <pt x="115" y="752" on="0"/>
        <pt x="206" y="981" on="0"/>
        <pt x="361" y="1172" on="0"/>
        <pt x="566" y="1324" on="0"/>
        <pt x="795" y="1429" on="0"/>
        <pt x="1034" y="1485" on="0"/>
        <pt x="1145" y="1485" on="1"/>
        <pt x="1252" y="1485" on="0"/>
        <pt x="1436" y="1426" on="0"/>
        <pt x="1587" y="1321" on="0"/>
        <pt x="1701" y="1176" on="0"/>
        <pt x="1737" y="1090" on="1"/>
        <pt x="1816" y="1195" on="0"/>
        <pt x="2028" y="1355" on="0"/>
        <pt x="2271" y="1463" on="0"/>
        <pt x="2533" y="1518" on="0"/>
        <pt x="2662" y="1518" on="1"/>
        <pt x="2718" y="1518" on="0"/>
        <pt x="2813" y="1508" on="0"/>
        <pt x="2888" y="1494" on="0"/>
        <pt x="2942" y="1477" on="0"/>
        <pt x="2957" y="1470" on="1"/>
        <pt x="3002" y="1450" on="0"/>
        <pt x="3002" y="1423" on="1"/>
        <pt x="3002" y="1409" on="0"/>
        <pt x="2979" y="1378" on="0"/>
      </contour>
      <contour>
        <pt x="897" y="1352" on="1"/>
        <pt x="767" y="1352" on="0"/>
        <pt x="574" y="1257" on="0"/>
        <pt x="446" y="1095" on="0"/>
        <pt x="383" y="880" on="0"/>
        <pt x="383" y="760" on="1"/>
        <pt x="383" y="609" on="0"/>
        <pt x="489" y="357" on="0"/>
        <pt x="674" y="175" on="0"/>
        <pt x="926" y="74" on="0"/>
        <pt x="1073" y="74" on="1"/>
        <pt x="1153" y="74" on="0"/>
        <pt x="1283" y="126" on="0"/>
        <pt x="1385" y="215" on="0"/>
        <pt x="1460" y="334" on="0"/>
        <pt x="1508" y="468" on="0"/>
        <pt x="1532" y="609" on="0"/>
        <pt x="1532" y="676" on="1"/>
        <pt x="1532" y="817" on="0"/>
        <pt x="1440" y="1063" on="0"/>
        <pt x="1272" y="1246" on="0"/>
        <pt x="1038" y="1352" on="0"/>
      </contour>
    </TTGlyph>
    <TTGlyph name="Oacute" xMin="115" yMin="-53" xMax="1798" yMax="1933">
      <component glyphName="O" x="0" y="0" flags="0x204"/>
      <component glyphName="acute" x="786" y="252" flags="0x4"/>
    </TTGlyph>
    <TTGlyph name="Obreve" xMin="115" yMin="-53" xMax="1798" yMax="1919">
      <component glyphName="O" x="0" y="0" flags="0x204"/>
      <component glyphName="breve" x="571" y="293" flags="0x4"/>
    </TTGlyph>
    <TTGlyph name="Ocircumflex" xMin="115" yMin="-53" xMax="1798" yMax="1917">
      <component glyphName="O" x="0" y="0" flags="0x204"/>
      <component glyphName="circumflex" x="625" y="289" flags="0x4"/>
    </TTGlyph>
    <TTGlyph name="Odieresis" xMin="115" yMin="-53" xMax="1798" yMax="1827">
      <component glyphName="O" x="0" y="0" flags="0x204"/>
      <component glyphName="dieresis" x="555" y="305" flags="0x4"/>
    </TTGlyph>
    <TTGlyph name="Ograve" xMin="114" yMin="-53" xMax="1797" yMax="1937">
      <component glyphName="O" x="-1" y="0" flags="0x4"/>
      <component glyphName="grave" x="475" y="231" flags="0x4"/>
    </TTGlyph>
    <TTGlyph name="Ohungarumlaut" xMin="115" yMin="-53" xMax="1798" yMax="1955">
      <component glyphName="O" x="0" y="0" flags="0x204"/>
      <component glyphName="hungarumlaut" x="666" y="274" flags="0x4"/>
    </TTGlyph>
    <TTGlyph name="Omacron" xMin="115" yMin="-53" xMax="1798" yMax="1691">
      <component glyphName="O" x="0" y="0" flags="0x204"/>
      <component glyphName="macron" x="541" y="229" flags="0x4"/>
    </TTGlyph>
    <TTGlyph name="Oslash" xMin="117" yMin="-190" xMax="1800" yMax="1677">
      <contour>
        <pt x="1571" y="1677" on="1"/>
        <pt x="1561" y="1644" on="0"/>
        <pt x="1547" y="1602" on="1"/>
        <pt x="1534" y="1566" on="0"/>
        <pt x="1496" y="1464" on="0"/>
        <pt x="1470" y="1401" on="1"/>
        <pt x="1548" y="1356" on="0"/>
        <pt x="1670" y="1226" on="0"/>
        <pt x="1755" y="1067" on="0"/>
        <pt x="1800" y="885" on="0"/>
        <pt x="1800" y="788" on="1"/>
        <pt x="1800" y="654" on="0"/>
        <pt x="1709" y="426" on="0"/>
        <pt x="1555" y="239" on="0"/>
        <pt x="1353" y="95" on="0"/>
        <pt x="1131" y="-3" on="0"/>
        <pt x="902" y="-53" on="0"/>
        <pt x="799" y="-53" on="1"/>
        <pt x="664" y="-53" on="0"/>
        <pt x="549" y="-12" on="1"/>
        <pt x="499" y="-59" on="0"/>
        <pt x="398" y="-147" on="0"/>
        <pt x="344" y="-190" on="1"/>
        <pt x="389" y="-141" on="0"/>
        <pt x="474" y="-46" on="0"/>
        <pt x="512" y="0" on="1"/>
        <pt x="420" y="37" on="0"/>
        <pt x="274" y="160" on="0"/>
        <pt x="172" y="320" on="0"/>
        <pt x="117" y="514" on="0"/>
        <pt x="117" y="623" on="1"/>
        <pt x="117" y="758" on="0"/>
        <pt x="220" y="1003" on="0"/>
        <pt x="395" y="1207" on="0"/>
        <pt x="625" y="1363" on="0"/>
        <pt x="752" y="1409" on="1"/>
        <pt x="781" y="1419" on="0"/>
        <pt x="866" y="1445" on="0"/>
        <pt x="969" y="1469" on="0"/>
        <pt x="1086" y="1485" on="0"/>
        <pt x="1147" y="1485" on="1"/>
        <pt x="1159" y="1485" on="0"/>
        <pt x="1184" y="1483" on="0"/>
        <pt x="1198" y="1483" on="1"/>
        <pt x="1208" y="1501" on="0"/>
        <pt x="1253" y="1526" on="0"/>
        <pt x="1314" y="1549" on="0"/>
        <pt x="1387" y="1572" on="0"/>
        <pt x="1463" y="1603" on="0"/>
        <pt x="1538" y="1646" on="0"/>
      </contour>
      <contour>
        <pt x="899" y="1352" on="1"/>
        <pt x="769" y="1352" on="0"/>
        <pt x="576" y="1257" on="0"/>
        <pt x="448" y="1095" on="0"/>
        <pt x="385" y="880" on="0"/>
        <pt x="385" y="760" on="1"/>
        <pt x="385" y="669" on="0"/>
        <pt x="424" y="505" on="0"/>
        <pt x="496" y="362" on="0"/>
        <pt x="599" y="244" on="0"/>
        <pt x="664" y="199" on="1"/>
        <pt x="791" y="378" on="0"/>
        <pt x="967" y="703" on="0"/>
        <pt x="1083" y="983" on="0"/>
        <pt x="1147" y="1212" on="0"/>
        <pt x="1163" y="1294" on="1"/>
        <pt x="1104" y="1322" on="0"/>
        <pt x="971" y="1352" on="0"/>
      </contour>
      <contour>
        <pt x="1075" y="74" on="1"/>
        <pt x="1155" y="74" on="0"/>
        <pt x="1285" y="126" on="0"/>
        <pt x="1387" y="215" on="0"/>
        <pt x="1462" y="334" on="0"/>
        <pt x="1510" y="468" on="0"/>
        <pt x="1534" y="609" on="0"/>
        <pt x="1534" y="676" on="1"/>
        <pt x="1534" y="815" on="0"/>
        <pt x="1443" y="1058" on="0"/>
        <pt x="1362" y="1149" on="1"/>
        <pt x="1311" y="1041" on="0"/>
        <pt x="1180" y="799" on="0"/>
        <pt x="1021" y="545" on="0"/>
        <pt x="830" y="288" on="0"/>
        <pt x="719" y="164" on="1"/>
        <pt x="796" y="119" on="0"/>
        <pt x="975" y="74" on="0"/>
      </contour>
    </TTGlyph>
    <TTGlyph name="Oslashacute" xMin="117" yMin="-190" xMax="1800" yMax="1935">
      <component glyphName="Oslash" x="0" y="0" flags="0x204"/>
      <component glyphName="acute" x="764" y="254" flags="0x4"/>
    </TTGlyph>
    <TTGlyph name="Otilde" xMin="115" yMin="-53" xMax="1798" yMax="1823">
      <component glyphName="O" x="0" y="0" flags="0x204"/>
      <component glyphName="tilde" x="494" y="299" flags="0x4"/>
    </TTGlyph>
    <TTGlyph name="P" xMin="57" yMin="-86" xMax="1378" yMax="1483">
      <contour>
        <pt x="825" y="115" on="1"/>
        <pt x="785" y="82" on="0"/>
        <pt x="684" y="11" on="0"/>
        <pt x="570" y="-48" on="0"/>
        <pt x="445" y="-86" on="0"/>
        <pt x="381" y="-86" on="1"/>
        <pt x="362" y="-86" on="0"/>
        <pt x="323" y="-76" on="0"/>
        <pt x="293" y="-51" on="0"/>
        <pt x="274" y="-9" on="0"/>
        <pt x="276" y="23" on="1"/>
        <pt x="276" y="59" on="0"/>
        <pt x="280" y="208" on="1"/>
        <pt x="281" y="271" on="0"/>
        <pt x="286" y="459" on="0"/>
        <pt x="293" y="725" on="0"/>
        <pt x="303" y="1077" on="0"/>
        <pt x="309" y="1305" on="1"/>
        <pt x="243" y="1297" on="0"/>
        <pt x="116" y="1283" on="0"/>
        <pt x="57" y="1278" on="1"/>
        <pt x="313" y="1466" on="1"/>
        <pt x="350" y="1460" on="0"/>
        <pt x="433" y="1456" on="0"/>
        <pt x="473" y="1456" on="1"/>
        <pt x="532" y="1456" on="0"/>
        <pt x="644" y="1464" on="0"/>
        <pt x="751" y="1475" on="0"/>
        <pt x="856" y="1483" on="0"/>
        <pt x="909" y="1483" on="1"/>
        <pt x="995" y="1483" on="0"/>
        <pt x="1163" y="1440" on="0"/>
        <pt x="1296" y="1351" on="0"/>
        <pt x="1378" y="1214" on="0"/>
        <pt x="1378" y="1120" on="1"/>
        <pt x="1378" y="1049" on="0"/>
        <pt x="1321" y="906" on="0"/>
        <pt x="1224" y="772" on="0"/>
        <pt x="1096" y="654" on="0"/>
        <pt x="955" y="566" on="0"/>
        <pt x="809" y="512" on="0"/>
        <pt x="743" y="510" on="1"/>
        <pt x="713" y="530" on="1"/>
        <pt x="800" y="550" on="0"/>
        <pt x="948" y="634" on="0"/>
        <pt x="1056" y="753" on="0"/>
        <pt x="1116" y="904" on="0"/>
        <pt x="1116" y="991" on="1"/>
        <pt x="1116" y="1052" on="0"/>
        <pt x="1080" y="1150" on="0"/>
        <pt x="1016" y="1226" on="0"/>
        <pt x="931" y="1281" on="0"/>
        <pt x="833" y="1316" on="0"/>
        <pt x="728" y="1333" on="0"/>
        <pt x="676" y="1333" on="1"/>
        <pt x="647" y="1333" on="0"/>
        <pt x="588" y="1331" on="0"/>
        <pt x="559" y="1329" on="1"/>
        <pt x="520" y="115" on="1"/>
        <pt x="543" y="98" on="0"/>
        <pt x="607" y="84" on="0"/>
        <pt x="641" y="84" on="1"/>
        <pt x="675" y="84" on="0"/>
        <pt x="741" y="93" on="0"/>
        <pt x="767" y="99" on="1"/>
        <pt x="798" y="106" on="0"/>
      </contour>
    </TTGlyph>
    <TTGlyph name="Q" xMin="115" yMin="-694" xMax="2810" yMax="1485">
      <contour>
        <pt x="1798" y="788" on="1"/>
        <pt x="1798" y="682" on="0"/>
        <pt x="1740" y="495" on="0"/>
        <pt x="1639" y="334" on="0"/>
        <pt x="1501" y="199" on="0"/>
        <pt x="1421" y="145" on="1"/>
        <pt x="1517" y="51" on="0"/>
        <pt x="1707" y="-120" on="0"/>
        <pt x="1785" y="-187" on="1"/>
        <pt x="1875" y="-265" on="0"/>
        <pt x="1958" y="-334" on="1"/>
        <pt x="2035" y="-383" on="0"/>
        <pt x="2124" y="-421" on="1"/>
        <pt x="2162" y="-438" on="0"/>
        <pt x="2250" y="-469" on="0"/>
        <pt x="2347" y="-493" on="0"/>
        <pt x="2451" y="-508" on="0"/>
        <pt x="2505" y="-508" on="1"/>
        <pt x="2582" y="-508" on="0"/>
        <pt x="2736" y="-471" on="0"/>
        <pt x="2810" y="-426" on="1"/>
        <pt x="2738" y="-488" on="0"/>
        <pt x="2589" y="-587" on="0"/>
        <pt x="2433" y="-656" on="0"/>
        <pt x="2270" y="-694" on="0"/>
        <pt x="2183" y="-694" on="1"/>
        <pt x="2123" y="-694" on="0"/>
        <pt x="1998" y="-672" on="0"/>
        <pt x="1864" y="-619" on="0"/>
        <pt x="1719" y="-528" on="0"/>
        <pt x="1640" y="-459" on="1"/>
        <pt x="1116" y="0" on="1"/>
        <pt x="949" y="-53" on="0"/>
        <pt x="797" y="-53" on="1"/>
        <pt x="645" y="-53" on="0"/>
        <pt x="394" y="48" on="0"/>
        <pt x="214" y="228" on="0"/>
        <pt x="115" y="476" on="0"/>
        <pt x="115" y="623" on="1"/>
        <pt x="115" y="758" on="0"/>
        <pt x="218" y="1003" on="0"/>
        <pt x="393" y="1207" on="0"/>
        <pt x="623" y="1363" on="0"/>
        <pt x="750" y="1409" on="1"/>
        <pt x="779" y="1419" on="0"/>
        <pt x="864" y="1445" on="0"/>
        <pt x="967" y="1469" on="0"/>
        <pt x="1084" y="1485" on="0"/>
        <pt x="1145" y="1485" on="1"/>
        <pt x="1245" y="1485" on="0"/>
        <pt x="1419" y="1434" on="0"/>
        <pt x="1564" y="1341" on="0"/>
        <pt x="1678" y="1212" on="0"/>
        <pt x="1757" y="1057" on="0"/>
        <pt x="1798" y="881" on="0"/>
      </contour>
      <contour>
        <pt x="897" y="1352" on="1"/>
        <pt x="767" y="1352" on="0"/>
        <pt x="574" y="1257" on="0"/>
        <pt x="446" y="1095" on="0"/>
        <pt x="383" y="880" on="0"/>
        <pt x="383" y="760" on="1"/>
        <pt x="383" y="609" on="0"/>
        <pt x="489" y="357" on="0"/>
        <pt x="674" y="175" on="0"/>
        <pt x="926" y="74" on="0"/>
        <pt x="1073" y="74" on="1"/>
        <pt x="1153" y="74" on="0"/>
        <pt x="1283" y="126" on="0"/>
        <pt x="1385" y="215" on="0"/>
        <pt x="1460" y="334" on="0"/>
        <pt x="1508" y="468" on="0"/>
        <pt x="1532" y="609" on="0"/>
        <pt x="1532" y="676" on="1"/>
        <pt x="1532" y="817" on="0"/>
        <pt x="1440" y="1063" on="0"/>
        <pt x="1272" y="1246" on="0"/>
        <pt x="1038" y="1352" on="0"/>
      </contour>
    </TTGlyph>
    <TTGlyph name="R" xMin="23" yMin="-86" xMax="1939" yMax="1477">
      <contour>
        <pt x="825" y="115" on="1"/>
        <pt x="785" y="82" on="0"/>
        <pt x="684" y="11" on="0"/>
        <pt x="570" y="-48" on="0"/>
        <pt x="445" y="-86" on="0"/>
        <pt x="381" y="-86" on="1"/>
        <pt x="362" y="-86" on="0"/>
        <pt x="324" y="-76" on="0"/>
        <pt x="294" y="-51" on="0"/>
        <pt x="275" y="-9" on="0"/>
        <pt x="276" y="23" on="1"/>
        <pt x="276" y="60" on="0"/>
        <pt x="280" y="209" on="1"/>
        <pt x="281" y="272" on="0"/>
        <pt x="286" y="460" on="0"/>
        <pt x="293" y="726" on="0"/>
        <pt x="303" y="1079" on="0"/>
        <pt x="309" y="1307" on="1"/>
        <pt x="283" y="1304" on="0"/>
        <pt x="233" y="1303" on="0"/>
        <pt x="207" y="1303" on="1"/>
        <pt x="169" y="1303" on="0"/>
        <pt x="74" y="1307" on="0"/>
        <pt x="23" y="1313" on="1"/>
        <pt x="276" y="1473" on="1"/>
        <pt x="354" y="1462" on="0"/>
        <pt x="492" y="1454" on="0"/>
        <pt x="537" y="1454" on="1"/>
        <pt x="587" y="1454" on="0"/>
        <pt x="680" y="1461" on="0"/>
        <pt x="770" y="1470" on="0"/>
        <pt x="858" y="1477" on="0"/>
        <pt x="903" y="1477" on="1"/>
        <pt x="991" y="1477" on="0"/>
        <pt x="1153" y="1437" on="0"/>
        <pt x="1275" y="1352" on="0"/>
        <pt x="1348" y="1216" on="0"/>
        <pt x="1348" y="1120" on="1"/>
        <pt x="1348" y="1069" on="0"/>
        <pt x="1314" y="962" on="0"/>
        <pt x="1236" y="855" on="0"/>
        <pt x="1107" y="750" on="0"/>
        <pt x="1012" y="702" on="1"/>
        <pt x="1111" y="610" on="0"/>
        <pt x="1274" y="464" on="0"/>
        <pt x="1406" y="350" on="0"/>
        <pt x="1508" y="267" on="0"/>
        <pt x="1547" y="237" on="1"/>
        <pt x="1637" y="167" on="0"/>
        <pt x="1686" y="141" on="1"/>
        <pt x="1711" y="129" on="0"/>
        <pt x="1739" y="120" on="1"/>
        <pt x="1763" y="112" on="0"/>
        <pt x="1824" y="100" on="0"/>
        <pt x="1858" y="100" on="1"/>
        <pt x="1879" y="100" on="0"/>
        <pt x="1919" y="107" on="0"/>
        <pt x="1939" y="115" on="1"/>
        <pt x="1891" y="78" on="0"/>
        <pt x="1799" y="12" on="0"/>
        <pt x="1706" y="-37" on="0"/>
        <pt x="1611" y="-66" on="0"/>
        <pt x="1561" y="-66" on="1"/>
        <pt x="1533" y="-66" on="0"/>
        <pt x="1481" y="-55" on="0"/>
        <pt x="1427" y="-31" on="0"/>
        <pt x="1372" y="7" on="0"/>
        <pt x="1341" y="35" on="1"/>
        <pt x="1300" y="69" on="0"/>
        <pt x="1220" y="140" on="1"/>
        <pt x="1186" y="170" on="0"/>
        <pt x="1094" y="254" on="0"/>
        <pt x="974" y="364" on="0"/>
        <pt x="823" y="503" on="0"/>
        <pt x="731" y="590" on="1"/>
        <pt x="803" y="617" on="0"/>
        <pt x="931" y="693" on="0"/>
        <pt x="1026" y="791" on="0"/>
        <pt x="1081" y="912" on="0"/>
        <pt x="1081" y="985" on="1"/>
        <pt x="1081" y="1073" on="0"/>
        <pt x="1009" y="1205" on="0"/>
        <pt x="894" y="1293" on="0"/>
        <pt x="748" y="1337" on="0"/>
        <pt x="674" y="1337" on="1"/>
        <pt x="614" y="1337" on="0"/>
        <pt x="559" y="1331" on="1"/>
        <pt x="520" y="115" on="1"/>
        <pt x="543" y="98" on="0"/>
        <pt x="607" y="84" on="0"/>
        <pt x="641" y="84" on="1"/>
        <pt x="675" y="84" on="0"/>
        <pt x="741" y="93" on="0"/>
        <pt x="767" y="99" on="1"/>
        <pt x="798" y="106" on="0"/>
      </contour>
    </TTGlyph>
    <TTGlyph name="Racute" xMin="23" yMin="-86" xMax="1939" yMax="1964">
      <component glyphName="R" x="0" y="0" flags="0x204"/>
      <component glyphName="acute" x="602" y="283" flags="0x4"/>
    </TTGlyph>
    <TTGlyph name="Rcaron" xMin="23" yMin="-86" xMax="1939" yMax="1913">
      <component glyphName="R" x="0" y="0" flags="0x204"/>
      <component glyphName="caron" x="555" y="285" flags="0x4"/>
    </TTGlyph>
    <TTGlyph name="Rcommaaccent" xMin="23" yMin="-533" xMax="1939" yMax="1477">
      <component glyphName="R" x="0" y="0" flags="0x204"/>
      <component glyphName="uni0326" x="592" y="94" flags="0x4"/>
    </TTGlyph>
    <TTGlyph name="S" xMin="65" yMin="-96" xMax="1237" yMax="1491">
      <contour>
        <pt x="1204" y="1456" on="1"/>
        <pt x="1222" y="1448" on="0"/>
        <pt x="1221" y="1416" on="0"/>
        <pt x="1195" y="1374" on="0"/>
        <pt x="1148" y="1327" on="0"/>
        <pt x="1120" y="1303" on="1"/>
        <pt x="1097" y="1284" on="0"/>
        <pt x="1067" y="1262" on="1"/>
        <pt x="1041" y="1242" on="0"/>
        <pt x="966" y="1191" on="0"/>
        <pt x="918" y="1161" on="1"/>
        <pt x="945" y="1186" on="0"/>
        <pt x="967" y="1226" on="0"/>
        <pt x="967" y="1243" on="1"/>
        <pt x="967" y="1266" on="0"/>
        <pt x="931" y="1300" on="0"/>
        <pt x="875" y="1323" on="0"/>
        <pt x="806" y="1337" on="0"/>
        <pt x="741" y="1344" on="0"/>
        <pt x="687" y="1346" on="0"/>
        <pt x="674" y="1346" on="1"/>
        <pt x="621" y="1346" on="0"/>
        <pt x="513" y="1325" on="0"/>
        <pt x="427" y="1276" on="0"/>
        <pt x="373" y="1195" on="0"/>
        <pt x="373" y="1135" on="1"/>
        <pt x="373" y="1067" on="0"/>
        <pt x="449" y="970" on="0"/>
        <pt x="573" y="898" on="0"/>
        <pt x="730" y="844" on="0"/>
        <pt x="891" y="795" on="0"/>
        <pt x="1042" y="745" on="0"/>
        <pt x="1098" y="713" on="1"/>
        <pt x="1172" y="669" on="0"/>
        <pt x="1237" y="552" on="0"/>
        <pt x="1237" y="487" on="1"/>
        <pt x="1237" y="403" on="0"/>
        <pt x="1148" y="252" on="0"/>
        <pt x="1005" y="122" on="0"/>
        <pt x="823" y="18" on="0"/>
        <pt x="637" y="-56" on="0"/>
        <pt x="463" y="-96" on="0"/>
        <pt x="399" y="-96" on="1"/>
        <pt x="316" y="-96" on="0"/>
        <pt x="190" y="-63" on="0"/>
        <pt x="106" y="-17" on="0"/>
        <pt x="65" y="32" on="0"/>
        <pt x="68" y="47" on="1"/>
        <pt x="70" y="65" on="0"/>
        <pt x="103" y="108" on="0"/>
        <pt x="169" y="158" on="0"/>
        <pt x="269" y="218" on="0"/>
        <pt x="340" y="254" on="1"/>
        <pt x="311" y="226" on="0"/>
        <pt x="317" y="178" on="0"/>
        <pt x="368" y="140" on="0"/>
        <pt x="451" y="111" on="0"/>
        <pt x="544" y="92" on="0"/>
        <pt x="638" y="82" on="0"/>
        <pt x="674" y="82" on="1"/>
        <pt x="735" y="82" on="0"/>
        <pt x="856" y="108" on="0"/>
        <pt x="953" y="165" on="0"/>
        <pt x="1014" y="258" on="0"/>
        <pt x="1014" y="324" on="1"/>
        <pt x="1014" y="363" on="0"/>
        <pt x="982" y="446" on="0"/>
        <pt x="905" y="524" on="0"/>
        <pt x="775" y="593" on="0"/>
        <pt x="678" y="618" on="1"/>
        <pt x="530" y="657" on="0"/>
        <pt x="327" y="740" on="0"/>
        <pt x="204" y="835" on="0"/>
        <pt x="156" y="948" on="0"/>
        <pt x="162" y="1018" on="1"/>
        <pt x="168" y="1099" on="0"/>
        <pt x="254" y="1232" on="0"/>
        <pt x="387" y="1337" on="0"/>
        <pt x="552" y="1415" on="0"/>
        <pt x="723" y="1466" on="0"/>
        <pt x="885" y="1491" on="0"/>
        <pt x="948" y="1491" on="1"/>
        <pt x="996" y="1491" on="0"/>
        <pt x="1081" y="1483" on="0"/>
        <pt x="1148" y="1473" on="0"/>
        <pt x="1194" y="1460" on="0"/>
      </contour>
    </TTGlyph>
    <TTGlyph name="Sacute" xMin="65" yMin="-96" xMax="1237" yMax="1927">
      <component glyphName="S" x="0" y="0" flags="0x204"/>
      <component glyphName="acute" x="559" y="246" flags="0x4"/>
    </TTGlyph>
    <TTGlyph name="Scaron" xMin="65" yMin="-96" xMax="1237" yMax="1876">
      <component glyphName="S" x="0" y="0" flags="0x204"/>
      <component glyphName="caron" x="401" y="248" flags="0x4"/>
    </TTGlyph>
    <TTGlyph name="Scedilla" xMin="65" yMin="-545" xMax="1237" yMax="1491">
      <contour>
        <pt x="1204" y="1456" on="1"/>
        <pt x="1222" y="1448" on="0"/>
        <pt x="1221" y="1416" on="0"/>
        <pt x="1195" y="1374" on="0"/>
        <pt x="1148" y="1327" on="0"/>
        <pt x="1120" y="1303" on="1"/>
        <pt x="1098" y="1284" on="0"/>
        <pt x="1068" y="1262" on="1"/>
        <pt x="1042" y="1243" on="0"/>
        <pt x="968" y="1192" on="0"/>
        <pt x="920" y="1163" on="1"/>
        <pt x="946" y="1186" on="0"/>
        <pt x="967" y="1226" on="0"/>
        <pt x="967" y="1243" on="1"/>
        <pt x="967" y="1266" on="0"/>
        <pt x="931" y="1300" on="0"/>
        <pt x="875" y="1323" on="0"/>
        <pt x="806" y="1337" on="0"/>
        <pt x="741" y="1344" on="0"/>
        <pt x="687" y="1346" on="0"/>
        <pt x="674" y="1346" on="1"/>
        <pt x="621" y="1346" on="0"/>
        <pt x="513" y="1325" on="0"/>
        <pt x="427" y="1276" on="0"/>
        <pt x="373" y="1195" on="0"/>
        <pt x="373" y="1135" on="1"/>
        <pt x="373" y="1067" on="0"/>
        <pt x="449" y="970" on="0"/>
        <pt x="573" y="898" on="0"/>
        <pt x="730" y="844" on="0"/>
        <pt x="891" y="795" on="0"/>
        <pt x="1042" y="745" on="0"/>
        <pt x="1098" y="713" on="1"/>
        <pt x="1172" y="669" on="0"/>
        <pt x="1237" y="552" on="0"/>
        <pt x="1237" y="487" on="1"/>
        <pt x="1237" y="427" on="0"/>
        <pt x="1190" y="314" on="0"/>
        <pt x="1108" y="212" on="0"/>
        <pt x="999" y="121" on="0"/>
        <pt x="873" y="44" on="0"/>
        <pt x="738" y="-19" on="0"/>
        <pt x="672" y="-41" on="1"/>
        <pt x="586" y="-129" on="1"/>
        <pt x="592" y="-123" on="0"/>
        <pt x="628" y="-117" on="0"/>
        <pt x="639" y="-115" on="1"/>
        <pt x="668" y="-111" on="0"/>
        <pt x="723" y="-117" on="0"/>
        <pt x="765" y="-137" on="0"/>
        <pt x="791" y="-171" on="0"/>
        <pt x="791" y="-195" on="1"/>
        <pt x="791" y="-228" on="0"/>
        <pt x="755" y="-296" on="0"/>
        <pt x="696" y="-361" on="0"/>
        <pt x="621" y="-420" on="0"/>
        <pt x="546" y="-469" on="0"/>
        <pt x="476" y="-504" on="0"/>
        <pt x="451" y="-512" on="1"/>
        <pt x="432" y="-522" on="0"/>
        <pt x="383" y="-534" on="0"/>
        <pt x="361" y="-538" on="1"/>
        <pt x="335" y="-542" on="0"/>
        <pt x="309" y="-545" on="1"/>
        <pt x="335" y="-500" on="0"/>
        <pt x="386" y="-434" on="0"/>
        <pt x="412" y="-414" on="1"/>
        <pt x="427" y="-426" on="0"/>
        <pt x="471" y="-438" on="0"/>
        <pt x="514" y="-441" on="0"/>
        <pt x="548" y="-438" on="0"/>
        <pt x="553" y="-434" on="1"/>
        <pt x="572" y="-422" on="0"/>
        <pt x="598" y="-365" on="0"/>
        <pt x="598" y="-334" on="1"/>
        <pt x="598" y="-306" on="0"/>
        <pt x="576" y="-272" on="0"/>
        <pt x="542" y="-254" on="0"/>
        <pt x="499" y="-248" on="0"/>
        <pt x="477" y="-248" on="1"/>
        <pt x="457" y="-248" on="0"/>
        <pt x="415" y="-252" on="0"/>
        <pt x="395" y="-258" on="1"/>
        <pt x="458" y="-192" on="0"/>
        <pt x="555" y="-98" on="0"/>
        <pt x="590" y="-66" on="1"/>
        <pt x="536" y="-81" on="0"/>
        <pt x="438" y="-96" on="0"/>
        <pt x="399" y="-96" on="1"/>
        <pt x="316" y="-96" on="0"/>
        <pt x="190" y="-63" on="0"/>
        <pt x="106" y="-17" on="0"/>
        <pt x="65" y="32" on="0"/>
        <pt x="68" y="47" on="1"/>
        <pt x="70" y="65" on="0"/>
        <pt x="103" y="108" on="0"/>
        <pt x="169" y="158" on="0"/>
        <pt x="269" y="218" on="0"/>
        <pt x="340" y="254" on="1"/>
        <pt x="311" y="226" on="0"/>
        <pt x="317" y="178" on="0"/>
        <pt x="368" y="140" on="0"/>
        <pt x="451" y="111" on="0"/>
        <pt x="544" y="92" on="0"/>
        <pt x="638" y="82" on="0"/>
        <pt x="674" y="82" on="1"/>
        <pt x="735" y="82" on="0"/>
        <pt x="856" y="108" on="0"/>
        <pt x="953" y="165" on="0"/>
        <pt x="1014" y="258" on="0"/>
        <pt x="1014" y="324" on="1"/>
        <pt x="1014" y="363" on="0"/>
        <pt x="982" y="446" on="0"/>
        <pt x="905" y="524" on="0"/>
        <pt x="775" y="593" on="0"/>
        <pt x="678" y="618" on="1"/>
        <pt x="530" y="657" on="0"/>
        <pt x="327" y="740" on="0"/>
        <pt x="204" y="835" on="0"/>
        <pt x="156" y="948" on="0"/>
        <pt x="162" y="1018" on="1"/>
        <pt x="168" y="1099" on="0"/>
        <pt x="254" y="1232" on="0"/>
        <pt x="387" y="1337" on="0"/>
        <pt x="552" y="1415" on="0"/>
        <pt x="723" y="1466" on="0"/>
        <pt x="885" y="1491" on="0"/>
        <pt x="948" y="1491" on="1"/>
        <pt x="996" y="1491" on="0"/>
        <pt x="1081" y="1483" on="0"/>
        <pt x="1148" y="1473" on="0"/>
        <pt x="1194" y="1460" on="0"/>
      </contour>
    </TTGlyph>
    <TTGlyph name="Scircumflex" xMin="65" yMin="-96" xMax="1237" yMax="1913">
      <component glyphName="S" x="0" y="0" flags="0x204"/>
      <component glyphName="circumflex" x="340" y="285" flags="0x4"/>
    </TTGlyph>
    <TTGlyph name="T" xMin="-11" yMin="-86" xMax="1518" yMax="1579">
      <contour>
        <pt x="1114" y="115" on="1"/>
        <pt x="1074" y="82" on="0"/>
        <pt x="973" y="11" on="0"/>
        <pt x="859" y="-48" on="0"/>
        <pt x="734" y="-86" on="0"/>
        <pt x="670" y="-86" on="1"/>
        <pt x="650" y="-86" on="0"/>
        <pt x="612" y="-76" on="0"/>
        <pt x="582" y="-51" on="0"/>
        <pt x="564" y="-9" on="0"/>
        <pt x="565" y="23" on="1"/>
        <pt x="565" y="61" on="0"/>
        <pt x="569" y="211" on="1"/>
        <pt x="570" y="275" on="0"/>
        <pt x="575" y="466" on="0"/>
        <pt x="582" y="736" on="0"/>
        <pt x="592" y="1095" on="0"/>
        <pt x="598" y="1327" on="1"/>
        <pt x="504" y="1316" on="0"/>
        <pt x="319" y="1303" on="0"/>
        <pt x="225" y="1303" on="1"/>
        <pt x="139" y="1303" on="0"/>
        <pt x="25" y="1323" on="0"/>
        <pt x="2" y="1348" on="1"/>
        <pt x="-11" y="1370" on="0"/>
        <pt x="10" y="1403" on="1"/>
        <pt x="19" y="1417" on="0"/>
        <pt x="53" y="1453" on="0"/>
        <pt x="112" y="1497" on="0"/>
        <pt x="198" y="1549" on="0"/>
        <pt x="258" y="1579" on="1"/>
        <pt x="242" y="1559" on="0"/>
        <pt x="244" y="1532" on="0"/>
        <pt x="251" y="1523" on="1"/>
        <pt x="259" y="1512" on="0"/>
        <pt x="274" y="1505" on="1"/>
        <pt x="303" y="1494" on="0"/>
        <pt x="422" y="1477" on="0"/>
        <pt x="528" y="1477" on="1"/>
        <pt x="644" y="1477" on="0"/>
        <pt x="869" y="1495" on="0"/>
        <pt x="1088" y="1518" on="0"/>
        <pt x="1305" y="1536" on="0"/>
        <pt x="1413" y="1536" on="1"/>
        <pt x="1442" y="1536" on="0"/>
        <pt x="1487" y="1533" on="0"/>
        <pt x="1499" y="1528" on="1"/>
        <pt x="1518" y="1521" on="0"/>
        <pt x="1506" y="1490" on="0"/>
        <pt x="1461" y="1451" on="0"/>
        <pt x="1395" y="1408" on="0"/>
        <pt x="1325" y="1370" on="0"/>
        <pt x="1261" y="1341" on="0"/>
        <pt x="1243" y="1335" on="1"/>
        <pt x="1252" y="1366" on="0"/>
        <pt x="1210" y="1391" on="0"/>
        <pt x="1143" y="1386" on="1"/>
        <pt x="993" y="1374" on="0"/>
        <pt x="848" y="1356" on="1"/>
        <pt x="809" y="115" on="1"/>
        <pt x="832" y="98" on="0"/>
        <pt x="896" y="84" on="0"/>
        <pt x="930" y="84" on="1"/>
        <pt x="964" y="84" on="0"/>
        <pt x="1030" y="93" on="0"/>
        <pt x="1056" y="99" on="1"/>
        <pt x="1087" y="106" on="0"/>
      </contour>
    </TTGlyph>
    <TTGlyph name="Tbar" xMin="-11" yMin="-86" xMax="1518" yMax="1579">
      <contour>
        <pt x="1114" y="115" on="1"/>
        <pt x="1074" y="82" on="0"/>
        <pt x="973" y="11" on="0"/>
        <pt x="859" y="-48" on="0"/>
        <pt x="734" y="-86" on="0"/>
        <pt x="670" y="-86" on="1"/>
        <pt x="650" y="-86" on="0"/>
        <pt x="612" y="-76" on="0"/>
        <pt x="582" y="-51" on="0"/>
        <pt x="564" y="-9" on="0"/>
        <pt x="565" y="23" on="1"/>
        <pt x="565" y="42" on="0"/>
        <pt x="567" y="110" on="1"/>
        <pt x="568" y="139" on="0"/>
        <pt x="569" y="224" on="0"/>
        <pt x="572" y="343" on="0"/>
        <pt x="575" y="501" on="0"/>
        <pt x="578" y="602" on="1"/>
        <pt x="279" y="602" on="1"/>
        <pt x="305" y="624" on="0"/>
        <pt x="327" y="643" on="1"/>
        <pt x="346" y="659" on="0"/>
        <pt x="381" y="689" on="0"/>
        <pt x="387" y="694" on="1"/>
        <pt x="394" y="700" on="0"/>
        <pt x="423" y="731" on="0"/>
        <pt x="456" y="762" on="0"/>
        <pt x="488" y="786" on="0"/>
        <pt x="498" y="786" on="1"/>
        <pt x="584" y="786" on="1"/>
        <pt x="598" y="1327" on="1"/>
        <pt x="504" y="1316" on="0"/>
        <pt x="319" y="1303" on="0"/>
        <pt x="225" y="1303" on="1"/>
        <pt x="139" y="1303" on="0"/>
        <pt x="25" y="1323" on="0"/>
        <pt x="2" y="1348" on="1"/>
        <pt x="-11" y="1370" on="0"/>
        <pt x="10" y="1403" on="1"/>
        <pt x="19" y="1417" on="0"/>
        <pt x="53" y="1453" on="0"/>
        <pt x="112" y="1497" on="0"/>
        <pt x="198" y="1549" on="0"/>
        <pt x="258" y="1579" on="1"/>
        <pt x="242" y="1559" on="0"/>
        <pt x="244" y="1532" on="0"/>
        <pt x="251" y="1523" on="1"/>
        <pt x="259" y="1512" on="0"/>
        <pt x="274" y="1505" on="1"/>
        <pt x="303" y="1494" on="0"/>
        <pt x="422" y="1477" on="0"/>
        <pt x="528" y="1477" on="1"/>
        <pt x="644" y="1477" on="0"/>
        <pt x="869" y="1495" on="0"/>
        <pt x="1088" y="1518" on="0"/>
        <pt x="1305" y="1536" on="0"/>
        <pt x="1413" y="1536" on="1"/>
        <pt x="1442" y="1536" on="0"/>
        <pt x="1487" y="1533" on="0"/>
        <pt x="1499" y="1528" on="1"/>
        <pt x="1518" y="1521" on="0"/>
        <pt x="1506" y="1490" on="0"/>
        <pt x="1461" y="1451" on="0"/>
        <pt x="1395" y="1408" on="0"/>
        <pt x="1325" y="1370" on="0"/>
        <pt x="1261" y="1341" on="0"/>
        <pt x="1243" y="1335" on="1"/>
        <pt x="1252" y="1366" on="0"/>
        <pt x="1210" y="1391" on="0"/>
        <pt x="1143" y="1386" on="1"/>
        <pt x="993" y="1374" on="0"/>
        <pt x="848" y="1356" on="1"/>
        <pt x="829" y="786" on="1"/>
        <pt x="1096" y="786" on="1"/>
        <pt x="1087" y="784" on="0"/>
        <pt x="1056" y="759" on="0"/>
        <pt x="1023" y="727" on="0"/>
        <pt x="995" y="698" on="0"/>
        <pt x="989" y="692" on="1"/>
        <pt x="982" y="687" on="0"/>
        <pt x="953" y="657" on="0"/>
        <pt x="920" y="626" on="0"/>
        <pt x="888" y="602" on="0"/>
        <pt x="879" y="602" on="1"/>
        <pt x="823" y="602" on="1"/>
        <pt x="809" y="115" on="1"/>
        <pt x="832" y="98" on="0"/>
        <pt x="896" y="84" on="0"/>
        <pt x="930" y="84" on="1"/>
        <pt x="964" y="84" on="0"/>
        <pt x="1030" y="93" on="0"/>
        <pt x="1056" y="99" on="1"/>
        <pt x="1087" y="106" on="0"/>
      </contour>
    </TTGlyph>
    <TTGlyph name="Tcaron" xMin="-11" yMin="-86" xMax="1518" yMax="1935">
      <component glyphName="T" x="0" y="0" flags="0x204"/>
      <component glyphName="caron" x="451" y="307" flags="0x4"/>
    </TTGlyph>
    <TTGlyph name="Tcommaaccent" xMin="-11" yMin="-627" xMax="1518" yMax="1579">
      <component glyphName="T" x="0" y="0" flags="0x204"/>
      <component glyphName="uni0326" x="408" y="0" flags="0x4"/>
    </TTGlyph>
    <TTGlyph name="Thorn" xMin="23" yMin="-190" xMax="1389" yMax="1561">
      <contour>
        <pt x="836" y="8" on="1"/>
        <pt x="717" y="-73" on="0"/>
        <pt x="504" y="-178" on="0"/>
        <pt x="426" y="-186" on="1"/>
        <pt x="387" y="-190" on="0"/>
        <pt x="328" y="-188" on="0"/>
        <pt x="288" y="-162" on="0"/>
        <pt x="268" y="-106" on="0"/>
        <pt x="268" y="-57" on="1"/>
        <pt x="268" y="-35" on="0"/>
        <pt x="268" y="81" on="0"/>
        <pt x="269" y="246" on="0"/>
        <pt x="270" y="447" on="0"/>
        <pt x="271" y="662" on="0"/>
        <pt x="273" y="879" on="0"/>
        <pt x="274" y="977" on="1"/>
        <pt x="222" y="972" on="0"/>
        <pt x="121" y="962" on="0"/>
        <pt x="70" y="958" on="1"/>
        <pt x="276" y="1090" on="1"/>
        <pt x="276" y="1144" on="0"/>
        <pt x="277" y="1237" on="0"/>
        <pt x="278" y="1308" on="0"/>
        <pt x="280" y="1355" on="0"/>
        <pt x="281" y="1364" on="1"/>
        <pt x="282" y="1399" on="0"/>
        <pt x="221" y="1427" on="0"/>
        <pt x="176" y="1427" on="1"/>
        <pt x="141" y="1427" on="0"/>
        <pt x="60" y="1414" on="0"/>
        <pt x="23" y="1405" on="1"/>
        <pt x="74" y="1439" on="0"/>
        <pt x="173" y="1496" on="0"/>
        <pt x="272" y="1538" on="0"/>
        <pt x="375" y="1561" on="0"/>
        <pt x="432" y="1561" on="1"/>
        <pt x="453" y="1561" on="0"/>
        <pt x="493" y="1556" on="0"/>
        <pt x="523" y="1545" on="0"/>
        <pt x="541" y="1527" on="0"/>
        <pt x="541" y="1513" on="1"/>
        <pt x="540" y="1483" on="0"/>
        <pt x="540" y="1429" on="1"/>
        <pt x="539" y="1383" on="0"/>
        <pt x="539" y="1229" on="0"/>
        <pt x="539" y="1114" on="1"/>
        <pt x="639" y="1117" on="0"/>
        <pt x="828" y="1137" on="0"/>
        <pt x="922" y="1137" on="1"/>
        <pt x="972" y="1137" on="0"/>
        <pt x="1081" y="1123" on="0"/>
        <pt x="1185" y="1092" on="0"/>
        <pt x="1278" y="1043" on="0"/>
        <pt x="1348" y="973" on="0"/>
        <pt x="1389" y="880" on="0"/>
        <pt x="1389" y="821" on="1"/>
        <pt x="1389" y="754" on="0"/>
        <pt x="1327" y="625" on="0"/>
        <pt x="1225" y="509" on="0"/>
        <pt x="1093" y="410" on="0"/>
        <pt x="952" y="337" on="0"/>
        <pt x="812" y="293" on="0"/>
        <pt x="754" y="291" on="1"/>
        <pt x="725" y="309" on="1"/>
        <pt x="804" y="323" on="0"/>
        <pt x="950" y="390" on="0"/>
        <pt x="1061" y="493" on="0"/>
        <pt x="1128" y="628" on="0"/>
        <pt x="1128" y="709" on="1"/>
        <pt x="1128" y="766" on="0"/>
        <pt x="1088" y="855" on="0"/>
        <pt x="1021" y="922" on="0"/>
        <pt x="932" y="967" on="0"/>
        <pt x="835" y="996" on="0"/>
        <pt x="735" y="1008" on="0"/>
        <pt x="690" y="1008" on="1"/>
        <pt x="652" y="1008" on="0"/>
        <pt x="576" y="1003" on="0"/>
        <pt x="539" y="1001" on="1"/>
        <pt x="538" y="916" on="0"/>
        <pt x="537" y="713" on="0"/>
        <pt x="537" y="470" on="0"/>
        <pt x="537" y="182" on="0"/>
        <pt x="537" y="12" on="1"/>
        <pt x="589" y="3" on="0"/>
        <pt x="676" y="-4" on="0"/>
        <pt x="711" y="-4" on="1"/>
        <pt x="742" y="-4" on="0"/>
        <pt x="788" y="0" on="0"/>
        <pt x="804" y="2" on="1"/>
        <pt x="822" y="5" on="0"/>
      </contour>
    </TTGlyph>
    <TTGlyph name="U" xMin="8" yMin="-49" xMax="1640" yMax="1505">
      <contour>
        <pt x="1638" y="1434" on="1"/>
        <pt x="1637" y="1421" on="0"/>
        <pt x="1632" y="1340" on="0"/>
        <pt x="1621" y="1222" on="0"/>
        <pt x="1604" y="1074" on="0"/>
        <pt x="1580" y="914" on="0"/>
        <pt x="1548" y="750" on="0"/>
        <pt x="1507" y="599" on="0"/>
        <pt x="1456" y="470" on="0"/>
        <pt x="1425" y="424" on="1"/>
        <pt x="1362" y="332" on="0"/>
        <pt x="1205" y="168" on="0"/>
        <pt x="1035" y="42" on="0"/>
        <pt x="861" y="-37" on="0"/>
        <pt x="782" y="-43" on="1"/>
        <pt x="704" y="-49" on="0"/>
        <pt x="550" y="-12" on="0"/>
        <pt x="422" y="86" on="0"/>
        <pt x="331" y="251" on="0"/>
        <pt x="315" y="373" on="1"/>
        <pt x="305" y="454" on="0"/>
        <pt x="291" y="641" on="0"/>
        <pt x="283" y="831" on="0"/>
        <pt x="279" y="1012" on="0"/>
        <pt x="277" y="1161" on="0"/>
        <pt x="275" y="1266" on="0"/>
        <pt x="274" y="1284" on="1"/>
        <pt x="268" y="1348" on="0"/>
        <pt x="186" y="1348" on="1"/>
        <pt x="154" y="1348" on="0"/>
        <pt x="65" y="1325" on="0"/>
        <pt x="8" y="1300" on="1"/>
        <pt x="56" y="1345" on="0"/>
        <pt x="148" y="1420" on="0"/>
        <pt x="246" y="1474" on="0"/>
        <pt x="352" y="1505" on="0"/>
        <pt x="414" y="1505" on="1"/>
        <pt x="435" y="1505" on="0"/>
        <pt x="472" y="1499" on="0"/>
        <pt x="499" y="1486" on="0"/>
        <pt x="515" y="1465" on="0"/>
        <pt x="514" y="1450" on="1"/>
        <pt x="513" y="1435" on="0"/>
        <pt x="513" y="1352" on="0"/>
        <pt x="515" y="1233" on="0"/>
        <pt x="519" y="1088" on="0"/>
        <pt x="523" y="934" on="0"/>
        <pt x="528" y="780" on="0"/>
        <pt x="533" y="644" on="0"/>
        <pt x="537" y="536" on="0"/>
        <pt x="539" y="504" on="1"/>
        <pt x="545" y="396" on="0"/>
        <pt x="622" y="247" on="0"/>
        <pt x="735" y="154" on="0"/>
        <pt x="871" y="113" on="0"/>
        <pt x="936" y="113" on="1"/>
        <pt x="995" y="113" on="0"/>
        <pt x="1094" y="141" on="0"/>
        <pt x="1128" y="166" on="1"/>
        <pt x="1166" y="194" on="0"/>
        <pt x="1230" y="334" on="0"/>
        <pt x="1282" y="524" on="0"/>
        <pt x="1324" y="748" on="0"/>
        <pt x="1358" y="975" on="0"/>
        <pt x="1382" y="1187" on="0"/>
        <pt x="1391" y="1270" on="1"/>
        <pt x="1392" y="1290" on="0"/>
        <pt x="1381" y="1306" on="1"/>
        <pt x="1372" y="1320" on="0"/>
        <pt x="1331" y="1343" on="0"/>
        <pt x="1290" y="1343" on="1"/>
        <pt x="1269" y="1343" on="0"/>
        <pt x="1216" y="1336" on="0"/>
        <pt x="1182" y="1327" on="1"/>
        <pt x="1226" y="1361" on="0"/>
        <pt x="1313" y="1422" on="0"/>
        <pt x="1401" y="1467" on="0"/>
        <pt x="1495" y="1493" on="0"/>
        <pt x="1546" y="1493" on="1"/>
        <pt x="1588" y="1493" on="0"/>
        <pt x="1640" y="1468" on="0"/>
      </contour>
    </TTGlyph>
    <TTGlyph name="Uacute" xMin="8" yMin="-49" xMax="1640" yMax="1884">
      <component glyphName="U" x="0" y="0" flags="0x204"/>
      <component glyphName="acute" x="862" y="203" flags="0x4"/>
    </TTGlyph>
    <TTGlyph name="Ubreve" xMin="8" yMin="-49" xMax="1640" yMax="1843">
      <component glyphName="U" x="0" y="0" flags="0x204"/>
      <component glyphName="breve" x="567" y="217" flags="0x4"/>
    </TTGlyph>
    <TTGlyph name="Ucircumflex" xMin="8" yMin="-49" xMax="1640" yMax="1851">
      <component glyphName="U" x="0" y="0" flags="0x204"/>
      <component glyphName="circumflex" x="594" y="223" flags="0x4"/>
    </TTGlyph>
    <TTGlyph name="Udieresis" xMin="8" yMin="-49" xMax="1640" yMax="1778">
      <component glyphName="U" x="0" y="0" flags="0x204"/>
      <component glyphName="dieresis" x="547" y="256" flags="0x4"/>
    </TTGlyph>
    <TTGlyph name="Ugrave" xMin="8" yMin="-49" xMax="1640" yMax="1915">
      <component glyphName="U" x="0" y="0" flags="0x204"/>
      <component glyphName="grave" x="504" y="209" flags="0x4"/>
    </TTGlyph>
    <TTGlyph name="Uhungarumlaut" xMin="8" yMin="-49" xMax="1640" yMax="1917">
      <component glyphName="U" x="0" y="0" flags="0x204"/>
      <component glyphName="hungarumlaut" x="692" y="236" flags="0x4"/>
    </TTGlyph>
    <TTGlyph name="Umacron" xMin="8" yMin="-49" xMax="1640" yMax="1693">
      <component glyphName="U" x="0" y="0" flags="0x204"/>
      <component glyphName="macron" x="512" y="231" flags="0x4"/>
    </TTGlyph>
    <TTGlyph name="Uogonek" xMin="8" yMin="-471" xMax="1640" yMax="1505">
      <contour>
        <pt x="1243" y="-254" on="1"/>
        <pt x="1208" y="-282" on="0"/>
        <pt x="1116" y="-357" on="0"/>
        <pt x="1014" y="-424" on="0"/>
        <pt x="909" y="-471" on="0"/>
        <pt x="862" y="-471" on="1"/>
        <pt x="827" y="-471" on="0"/>
        <pt x="765" y="-441" on="0"/>
        <pt x="719" y="-391" on="0"/>
        <pt x="692" y="-327" on="0"/>
        <pt x="692" y="-293" on="1"/>
        <pt x="692" y="-254" on="0"/>
        <pt x="715" y="-182" on="0"/>
        <pt x="754" y="-116" on="0"/>
        <pt x="807" y="-57" on="0"/>
        <pt x="838" y="-33" on="1"/>
        <pt x="824" y="-36" on="0"/>
        <pt x="796" y="-41" on="0"/>
        <pt x="782" y="-43" on="1"/>
        <pt x="704" y="-49" on="0"/>
        <pt x="550" y="-12" on="0"/>
        <pt x="422" y="86" on="0"/>
        <pt x="331" y="251" on="0"/>
        <pt x="315" y="373" on="1"/>
        <pt x="305" y="454" on="0"/>
        <pt x="291" y="641" on="0"/>
        <pt x="283" y="831" on="0"/>
        <pt x="279" y="1012" on="0"/>
        <pt x="277" y="1161" on="0"/>
        <pt x="275" y="1266" on="0"/>
        <pt x="274" y="1284" on="1"/>
        <pt x="268" y="1348" on="0"/>
        <pt x="186" y="1348" on="1"/>
        <pt x="154" y="1348" on="0"/>
        <pt x="65" y="1325" on="0"/>
        <pt x="8" y="1300" on="1"/>
        <pt x="56" y="1345" on="0"/>
        <pt x="148" y="1420" on="0"/>
        <pt x="246" y="1474" on="0"/>
        <pt x="352" y="1505" on="0"/>
        <pt x="414" y="1505" on="1"/>
        <pt x="435" y="1505" on="0"/>
        <pt x="472" y="1499" on="0"/>
        <pt x="499" y="1486" on="0"/>
        <pt x="515" y="1465" on="0"/>
        <pt x="514" y="1450" on="1"/>
        <pt x="513" y="1435" on="0"/>
        <pt x="513" y="1352" on="0"/>
        <pt x="515" y="1233" on="0"/>
        <pt x="519" y="1088" on="0"/>
        <pt x="523" y="934" on="0"/>
        <pt x="528" y="780" on="0"/>
        <pt x="533" y="644" on="0"/>
        <pt x="537" y="536" on="0"/>
        <pt x="539" y="504" on="1"/>
        <pt x="545" y="396" on="0"/>
        <pt x="622" y="247" on="0"/>
        <pt x="735" y="154" on="0"/>
        <pt x="871" y="113" on="0"/>
        <pt x="936" y="113" on="1"/>
        <pt x="995" y="113" on="0"/>
        <pt x="1094" y="141" on="0"/>
        <pt x="1128" y="166" on="1"/>
        <pt x="1166" y="194" on="0"/>
        <pt x="1230" y="334" on="0"/>
        <pt x="1282" y="524" on="0"/>
        <pt x="1324" y="748" on="0"/>
        <pt x="1358" y="975" on="0"/>
        <pt x="1382" y="1187" on="0"/>
        <pt x="1391" y="1270" on="1"/>
        <pt x="1392" y="1290" on="0"/>
        <pt x="1381" y="1306" on="1"/>
        <pt x="1372" y="1320" on="0"/>
        <pt x="1331" y="1343" on="0"/>
        <pt x="1290" y="1343" on="1"/>
        <pt x="1269" y="1343" on="0"/>
        <pt x="1216" y="1336" on="0"/>
        <pt x="1182" y="1327" on="1"/>
        <pt x="1226" y="1361" on="0"/>
        <pt x="1313" y="1422" on="0"/>
        <pt x="1401" y="1467" on="0"/>
        <pt x="1495" y="1493" on="0"/>
        <pt x="1546" y="1493" on="1"/>
        <pt x="1588" y="1493" on="0"/>
        <pt x="1640" y="1468" on="0"/>
        <pt x="1638" y="1434" on="1"/>
        <pt x="1637" y="1421" on="0"/>
        <pt x="1632" y="1340" on="0"/>
        <pt x="1621" y="1222" on="0"/>
        <pt x="1604" y="1074" on="0"/>
        <pt x="1580" y="914" on="0"/>
        <pt x="1548" y="750" on="0"/>
        <pt x="1507" y="599" on="0"/>
        <pt x="1456" y="470" on="0"/>
        <pt x="1425" y="424" on="1"/>
        <pt x="1377" y="355" on="0"/>
        <pt x="1263" y="227" on="0"/>
        <pt x="1139" y="116" on="0"/>
        <pt x="1007" y="28" on="0"/>
        <pt x="942" y="0" on="1"/>
        <pt x="916" y="-34" on="0"/>
        <pt x="881" y="-112" on="0"/>
        <pt x="881" y="-156" on="1"/>
        <pt x="881" y="-191" on="0"/>
        <pt x="910" y="-256" on="0"/>
        <pt x="959" y="-305" on="0"/>
        <pt x="1024" y="-334" on="0"/>
        <pt x="1059" y="-334" on="1"/>
        <pt x="1083" y="-334" on="0"/>
        <pt x="1130" y="-317" on="0"/>
        <pt x="1176" y="-292" on="0"/>
        <pt x="1222" y="-264" on="0"/>
      </contour>
    </TTGlyph>
    <TTGlyph name="Uring" xMin="8" yMin="-49" xMax="1640" yMax="1960">
      <component glyphName="U" x="0" y="0" flags="0x204"/>
      <component glyphName="ring" x="659" y="246" flags="0x4"/>
    </TTGlyph>
    <TTGlyph name="Utilde" xMin="8" yMin="-49" xMax="1640" yMax="1794">
      <component glyphName="U" x="0" y="0" flags="0x204"/>
      <component glyphName="tilde" x="512" y="270" flags="0x4"/>
    </TTGlyph>
    <TTGlyph name="V" xMin="-2" yMin="-59" xMax="1500" yMax="1501">
      <contour>
        <pt x="1491" y="1434" on="1"/>
        <pt x="1500" y="1402" on="0"/>
        <pt x="1494" y="1304" on="0"/>
        <pt x="1466" y="1184" on="0"/>
        <pt x="1416" y="1048" on="0"/>
        <pt x="1345" y="908" on="0"/>
        <pt x="1255" y="770" on="0"/>
        <pt x="1200" y="707" on="1"/>
        <pt x="1113" y="605" on="0"/>
        <pt x="981" y="435" on="0"/>
        <pt x="886" y="293" on="0"/>
        <pt x="826" y="177" on="0"/>
        <pt x="811" y="129" on="1"/>
        <pt x="786" y="109" on="0"/>
        <pt x="754" y="81" on="1"/>
        <pt x="727" y="57" on="0"/>
        <pt x="653" y="-13" on="0"/>
        <pt x="610" y="-59" on="1"/>
        <pt x="587" y="104" on="0"/>
        <pt x="512" y="442" on="0"/>
        <pt x="415" y="766" on="0"/>
        <pt x="302" y="1063" on="0"/>
        <pt x="242" y="1186" on="1"/>
        <pt x="205" y="1261" on="0"/>
        <pt x="125" y="1317" on="0"/>
        <pt x="82" y="1317" on="1"/>
        <pt x="43" y="1317" on="0"/>
        <pt x="-2" y="1300" on="1"/>
        <pt x="29" y="1325" on="0"/>
        <pt x="104" y="1391" on="0"/>
        <pt x="186" y="1451" on="0"/>
        <pt x="269" y="1493" on="0"/>
        <pt x="307" y="1493" on="1"/>
        <pt x="345" y="1493" on="0"/>
        <pt x="419" y="1453" on="0"/>
        <pt x="442" y="1407" on="1"/>
        <pt x="453" y="1384" on="0"/>
        <pt x="506" y="1267" on="0"/>
        <pt x="574" y="1098" on="0"/>
        <pt x="652" y="888" on="0"/>
        <pt x="726" y="656" on="0"/>
        <pt x="790" y="413" on="0"/>
        <pt x="809" y="295" on="1"/>
        <pt x="851" y="358" on="0"/>
        <pt x="924" y="463" on="0"/>
        <pt x="951" y="501" on="1"/>
        <pt x="983" y="546" on="0"/>
        <pt x="1008" y="582" on="1"/>
        <pt x="1066" y="668" on="0"/>
        <pt x="1160" y="836" on="0"/>
        <pt x="1226" y="992" on="0"/>
        <pt x="1262" y="1133" on="0"/>
        <pt x="1262" y="1192" on="1"/>
        <pt x="1262" y="1216" on="0"/>
        <pt x="1255" y="1266" on="0"/>
        <pt x="1235" y="1308" on="0"/>
        <pt x="1202" y="1335" on="0"/>
        <pt x="1176" y="1335" on="1"/>
        <pt x="1157" y="1335" on="0"/>
        <pt x="1108" y="1317" on="0"/>
        <pt x="1077" y="1292" on="1"/>
        <pt x="1114" y="1328" on="0"/>
        <pt x="1191" y="1403" on="0"/>
        <pt x="1271" y="1463" on="0"/>
        <pt x="1356" y="1501" on="0"/>
        <pt x="1401" y="1501" on="1"/>
        <pt x="1433" y="1501" on="0"/>
        <pt x="1482" y="1471" on="0"/>
      </contour>
    </TTGlyph>
    <TTGlyph name="W" xMin="-39" yMin="-78" xMax="2310" yMax="1536">
      <contour>
        <pt x="2310" y="1327" on="1"/>
        <pt x="2310" y="1281" on="0"/>
        <pt x="2291" y="1157" on="0"/>
        <pt x="2241" y="1005" on="0"/>
        <pt x="2157" y="829" on="0"/>
        <pt x="2093" y="731" on="1"/>
        <pt x="2047" y="661" on="0"/>
        <pt x="1943" y="520" on="0"/>
        <pt x="1841" y="372" on="0"/>
        <pt x="1747" y="215" on="0"/>
        <pt x="1712" y="129" on="1"/>
        <pt x="1511" y="-78" on="1"/>
        <pt x="1513" y="-62" on="0"/>
        <pt x="1516" y="-30" on="0"/>
        <pt x="1516" y="-14" on="1"/>
        <pt x="1516" y="45" on="0"/>
        <pt x="1495" y="159" on="0"/>
        <pt x="1483" y="205" on="1"/>
        <pt x="1468" y="259" on="0"/>
        <pt x="1450" y="307" on="1"/>
        <pt x="1424" y="371" on="0"/>
        <pt x="1350" y="518" on="0"/>
        <pt x="1270" y="677" on="0"/>
        <pt x="1192" y="843" on="0"/>
        <pt x="1161" y="924" on="1"/>
        <pt x="1135" y="878" on="0"/>
        <pt x="1084" y="798" on="0"/>
        <pt x="1064" y="768" on="1"/>
        <pt x="1040" y="733" on="0"/>
        <pt x="1018" y="702" on="1"/>
        <pt x="941" y="593" on="0"/>
        <pt x="884" y="487" on="1"/>
        <pt x="860" y="442" on="0"/>
        <pt x="815" y="343" on="0"/>
        <pt x="783" y="245" on="0"/>
        <pt x="768" y="151" on="0"/>
        <pt x="774" y="111" on="1"/>
        <pt x="578" y="-78" on="1"/>
        <pt x="575" y="17" on="0"/>
        <pt x="546" y="225" on="0"/>
        <pt x="500" y="440" on="0"/>
        <pt x="441" y="655" on="0"/>
        <pt x="375" y="862" on="0"/>
        <pt x="306" y="1052" on="0"/>
        <pt x="274" y="1135" on="1"/>
        <pt x="252" y="1186" on="0"/>
        <pt x="222" y="1226" on="1"/>
        <pt x="209" y="1243" on="0"/>
        <pt x="178" y="1276" on="0"/>
        <pt x="140" y="1301" on="0"/>
        <pt x="98" y="1317" on="0"/>
        <pt x="74" y="1317" on="1"/>
        <pt x="48" y="1317" on="0"/>
        <pt x="-10" y="1297" on="0"/>
        <pt x="-39" y="1272" on="1"/>
        <pt x="-8" y="1301" on="0"/>
        <pt x="75" y="1379" on="0"/>
        <pt x="166" y="1449" on="0"/>
        <pt x="259" y="1497" on="0"/>
        <pt x="301" y="1497" on="1"/>
        <pt x="333" y="1497" on="0"/>
        <pt x="396" y="1468" on="0"/>
        <pt x="424" y="1434" on="1"/>
        <pt x="442" y="1411" on="0"/>
        <pt x="497" y="1299" on="0"/>
        <pt x="561" y="1140" on="0"/>
        <pt x="629" y="943" on="0"/>
        <pt x="691" y="729" on="0"/>
        <pt x="742" y="506" on="0"/>
        <pt x="758" y="401" on="1"/>
        <pt x="812" y="500" on="0"/>
        <pt x="912" y="677" on="0"/>
        <pt x="1001" y="841" on="0"/>
        <pt x="1080" y="998" on="0"/>
        <pt x="1114" y="1077" on="1"/>
        <pt x="1106" y="1114" on="0"/>
        <pt x="1098" y="1182" on="0"/>
        <pt x="1098" y="1217" on="1"/>
        <pt x="1098" y="1279" on="0"/>
        <pt x="1116" y="1335" on="1"/>
        <pt x="1366" y="1536" on="1"/>
        <pt x="1351" y="1485" on="0"/>
        <pt x="1339" y="1390" on="0"/>
        <pt x="1339" y="1352" on="1"/>
        <pt x="1339" y="1284" on="0"/>
        <pt x="1388" y="1118" on="0"/>
        <pt x="1465" y="935" on="0"/>
        <pt x="1556" y="742" on="0"/>
        <pt x="1641" y="551" on="0"/>
        <pt x="1707" y="371" on="0"/>
        <pt x="1720" y="293" on="1"/>
        <pt x="1744" y="332" on="0"/>
        <pt x="1789" y="404" on="0"/>
        <pt x="1806" y="433" on="1"/>
        <pt x="1826" y="466" on="0"/>
        <pt x="1845" y="496" on="1"/>
        <pt x="1893" y="577" on="0"/>
        <pt x="1981" y="751" on="0"/>
        <pt x="2050" y="922" on="0"/>
        <pt x="2091" y="1080" on="0"/>
        <pt x="2091" y="1145" on="1"/>
        <pt x="2091" y="1175" on="0"/>
        <pt x="2075" y="1236" on="0"/>
        <pt x="2044" y="1286" on="0"/>
        <pt x="1996" y="1317" on="0"/>
        <pt x="1964" y="1317" on="1"/>
        <pt x="1947" y="1317" on="0"/>
        <pt x="1906" y="1304" on="0"/>
        <pt x="1884" y="1290" on="1"/>
        <pt x="1916" y="1320" on="0"/>
        <pt x="1986" y="1389" on="0"/>
        <pt x="2062" y="1448" on="0"/>
        <pt x="2142" y="1487" on="0"/>
        <pt x="2185" y="1487" on="1"/>
        <pt x="2221" y="1487" on="0"/>
        <pt x="2269" y="1459" on="0"/>
        <pt x="2298" y="1414" on="0"/>
        <pt x="2310" y="1357" on="0"/>
      </contour>
    </TTGlyph>
    <TTGlyph name="Wacute" xMin="-39" yMin="-78" xMax="2310" yMax="1931">
      <component glyphName="W" x="0" y="0" flags="0x204"/>
      <component glyphName="acute" x="1126" y="250" flags="0x4"/>
    </TTGlyph>
    <TTGlyph name="Wcircumflex" xMin="-39" yMin="-78" xMax="2310" yMax="1911">
      <component glyphName="W" x="0" y="0" flags="0x204"/>
      <component glyphName="circumflex" x="954" y="283" flags="0x4"/>
    </TTGlyph>
    <TTGlyph name="Wdieresis" xMin="-39" yMin="-78" xMax="2310" yMax="1805">
      <component glyphName="W" x="0" y="0" flags="0x204"/>
      <component glyphName="dieresis" x="893" y="283" flags="0x4"/>
    </TTGlyph>
    <TTGlyph name="Wgrave" xMin="-39" yMin="-78" xMax="2310" yMax="1952">
      <component glyphName="W" x="0" y="0" flags="0x204"/>
      <component glyphName="grave" x="868" y="246" flags="0x4"/>
    </TTGlyph>
    <TTGlyph name="X" xMin="49" yMin="-31" xMax="1729" yMax="1511">
      <contour>
        <pt x="1690" y="184" on="1"/>
        <pt x="1610" y="101" on="0"/>
        <pt x="1472" y="14" on="0"/>
        <pt x="1420" y="-6" on="1"/>
        <pt x="1359" y="-29" on="0"/>
        <pt x="1309" y="-31" on="1"/>
        <pt x="1245" y="-30" on="0"/>
        <pt x="1141" y="30" on="0"/>
        <pt x="1047" y="136" on="0"/>
        <pt x="954" y="284" on="0"/>
        <pt x="901" y="375" on="1"/>
        <pt x="719" y="678" on="1"/>
        <pt x="659" y="599" on="0"/>
        <pt x="460" y="351" on="0"/>
        <pt x="315" y="180" on="1"/>
        <pt x="327" y="174" on="0"/>
        <pt x="345" y="170" on="1"/>
        <pt x="360" y="166" on="0"/>
        <pt x="403" y="160" on="0"/>
        <pt x="430" y="160" on="1"/>
        <pt x="475" y="160" on="0"/>
        <pt x="589" y="186" on="0"/>
        <pt x="655" y="221" on="1"/>
        <pt x="565" y="126" on="0"/>
        <pt x="403" y="23" on="0"/>
        <pt x="340" y="0" on="1"/>
        <pt x="267" y="-28" on="0"/>
        <pt x="203" y="-31" on="1"/>
        <pt x="178" y="-31" on="0"/>
        <pt x="132" y="-20" on="0"/>
        <pt x="101" y="0" on="0"/>
        <pt x="92" y="27" on="0"/>
        <pt x="106" y="43" on="1"/>
        <pt x="668" y="762" on="1"/>
        <pt x="627" y="830" on="0"/>
        <pt x="549" y="961" on="0"/>
        <pt x="481" y="1075" on="0"/>
        <pt x="427" y="1168" on="0"/>
        <pt x="410" y="1198" on="1"/>
        <pt x="390" y="1229" on="0"/>
        <pt x="361" y="1254" on="1"/>
        <pt x="336" y="1275" on="0"/>
        <pt x="262" y="1311" on="0"/>
        <pt x="211" y="1311" on="1"/>
        <pt x="177" y="1311" on="0"/>
        <pt x="96" y="1290" on="0"/>
        <pt x="49" y="1264" on="1"/>
        <pt x="91" y="1301" on="0"/>
        <pt x="183" y="1379" on="0"/>
        <pt x="282" y="1441" on="0"/>
        <pt x="388" y="1481" on="0"/>
        <pt x="444" y="1481" on="1"/>
        <pt x="486" y="1481" on="0"/>
        <pt x="555" y="1457" on="0"/>
        <pt x="580" y="1434" on="1"/>
        <pt x="597" y="1418" on="0"/>
        <pt x="655" y="1337" on="0"/>
        <pt x="729" y="1223" on="0"/>
        <pt x="816" y="1082" on="0"/>
        <pt x="862" y="1006" on="1"/>
        <pt x="931" y="1087" on="0"/>
        <pt x="1053" y="1207" on="0"/>
        <pt x="1163" y="1298" on="0"/>
        <pt x="1262" y="1366" on="0"/>
        <pt x="1309" y="1395" on="1"/>
        <pt x="1395" y="1449" on="0"/>
        <pt x="1548" y="1511" on="0"/>
        <pt x="1608" y="1511" on="1"/>
        <pt x="1626" y="1511" on="0"/>
        <pt x="1669" y="1502" on="0"/>
        <pt x="1705" y="1483" on="0"/>
        <pt x="1729" y="1455" on="0"/>
        <pt x="1729" y="1436" on="1"/>
        <pt x="1729" y="1419" on="0"/>
        <pt x="1698" y="1378" on="0"/>
        <pt x="1651" y="1336" on="0"/>
        <pt x="1593" y="1296" on="0"/>
        <pt x="1538" y="1261" on="0"/>
        <pt x="1495" y="1235" on="0"/>
        <pt x="1485" y="1229" on="1"/>
        <pt x="1508" y="1253" on="0"/>
        <pt x="1495" y="1294" on="0"/>
        <pt x="1447" y="1324" on="0"/>
        <pt x="1375" y="1341" on="0"/>
        <pt x="1339" y="1341" on="1"/>
        <pt x="1315" y="1341" on="0"/>
        <pt x="1268" y="1334" on="0"/>
        <pt x="1251" y="1323" on="1"/>
        <pt x="1225" y="1308" on="0"/>
        <pt x="1151" y="1230" on="0"/>
        <pt x="1061" y="1122" on="0"/>
        <pt x="961" y="993" on="0"/>
        <pt x="909" y="926" on="1"/>
        <pt x="1030" y="721" on="1"/>
        <pt x="1094" y="610" on="0"/>
        <pt x="1213" y="406" on="0"/>
        <pt x="1324" y="247" on="0"/>
        <pt x="1430" y="148" on="0"/>
        <pt x="1483" y="143" on="1"/>
        <pt x="1523" y="140" on="0"/>
        <pt x="1561" y="143" on="1"/>
        <pt x="1593" y="145" on="0"/>
        <pt x="1664" y="163" on="0"/>
      </contour>
    </TTGlyph>
    <TTGlyph name="Y" xMin="-109" yMin="-31" xMax="1367" yMax="1520">
      <contour>
        <pt x="1352" y="1481" on="1"/>
        <pt x="1367" y="1431" on="0"/>
        <pt x="1336" y="1311" on="0"/>
        <pt x="1259" y="1179" on="0"/>
        <pt x="1147" y="1037" on="0"/>
        <pt x="1015" y="894" on="0"/>
        <pt x="872" y="752" on="0"/>
        <pt x="803" y="686" on="1"/>
        <pt x="803" y="679" on="0"/>
        <pt x="804" y="655" on="0"/>
        <pt x="804" y="616" on="0"/>
        <pt x="805" y="558" on="0"/>
        <pt x="805" y="518" on="1"/>
        <pt x="805" y="458" on="0"/>
        <pt x="804" y="286" on="0"/>
        <pt x="801" y="164" on="1"/>
        <pt x="840" y="152" on="0"/>
        <pt x="881" y="152" on="1"/>
        <pt x="915" y="152" on="0"/>
        <pt x="977" y="166" on="0"/>
        <pt x="1025" y="182" on="0"/>
        <pt x="1055" y="197" on="0"/>
        <pt x="1057" y="199" on="1"/>
        <pt x="1020" y="150" on="0"/>
        <pt x="913" y="66" on="0"/>
        <pt x="798" y="4" on="0"/>
        <pt x="688" y="-31" on="0"/>
        <pt x="647" y="-31" on="1"/>
        <pt x="593" y="-31" on="0"/>
        <pt x="557" y="15" on="0"/>
        <pt x="557" y="57" on="1"/>
        <pt x="557" y="88" on="0"/>
        <pt x="560" y="178" on="0"/>
        <pt x="566" y="282" on="0"/>
        <pt x="571" y="391" on="0"/>
        <pt x="577" y="489" on="0"/>
        <pt x="580" y="568" on="0"/>
        <pt x="580" y="590" on="1"/>
        <pt x="580" y="600" on="0"/>
        <pt x="549" y="665" on="0"/>
        <pt x="497" y="759" on="0"/>
        <pt x="430" y="875" on="0"/>
        <pt x="357" y="995" on="0"/>
        <pt x="283" y="1112" on="0"/>
        <pt x="218" y="1209" on="0"/>
        <pt x="169" y="1278" on="0"/>
        <pt x="156" y="1290" on="1"/>
        <pt x="145" y="1299" on="0"/>
        <pt x="130" y="1306" on="1"/>
        <pt x="117" y="1312" on="0"/>
        <pt x="79" y="1323" on="0"/>
        <pt x="53" y="1323" on="1"/>
        <pt x="22" y="1323" on="0"/>
        <pt x="-59" y="1301" on="0"/>
        <pt x="-109" y="1270" on="1"/>
        <pt x="-70" y="1312" on="0"/>
        <pt x="14" y="1390" on="0"/>
        <pt x="107" y="1451" on="0"/>
        <pt x="208" y="1487" on="0"/>
        <pt x="264" y="1487" on="1"/>
        <pt x="298" y="1487" on="0"/>
        <pt x="354" y="1470" on="0"/>
        <pt x="371" y="1450" on="1"/>
        <pt x="384" y="1436" on="0"/>
        <pt x="442" y="1348" on="0"/>
        <pt x="517" y="1224" on="0"/>
        <pt x="604" y="1077" on="0"/>
        <pt x="687" y="928" on="0"/>
        <pt x="760" y="789" on="0"/>
        <pt x="784" y="737" on="1"/>
        <pt x="843" y="792" on="0"/>
        <pt x="962" y="921" on="0"/>
        <pt x="1057" y="1061" on="0"/>
        <pt x="1116" y="1207" on="0"/>
        <pt x="1116" y="1280" on="1"/>
        <pt x="1116" y="1338" on="0"/>
        <pt x="1079" y="1348" on="1"/>
        <pt x="1067" y="1350" on="0"/>
        <pt x="1052" y="1348" on="1"/>
        <pt x="1039" y="1346" on="0"/>
        <pt x="1006" y="1334" on="0"/>
        <pt x="987" y="1321" on="1"/>
        <pt x="1018" y="1351" on="0"/>
        <pt x="1087" y="1421" on="0"/>
        <pt x="1162" y="1480" on="0"/>
        <pt x="1243" y="1520" on="0"/>
        <pt x="1286" y="1520" on="1"/>
        <pt x="1312" y="1520" on="0"/>
        <pt x="1345" y="1499" on="0"/>
      </contour>
    </TTGlyph>
    <TTGlyph name="Yacute" xMin="-109" yMin="-31" xMax="1367" yMax="1812">
      <component glyphName="Y" x="0" y="0" flags="0x204"/>
      <component glyphName="acute" x="702" y="131" flags="0x4"/>
    </TTGlyph>
    <TTGlyph name="Ycircumflex" xMin="-109" yMin="-31" xMax="1367" yMax="1868">
      <component glyphName="Y" x="0" y="0" flags="0x204"/>
      <component glyphName="circumflex" x="465" y="240" flags="0x4"/>
    </TTGlyph>
    <TTGlyph name="Ydieresis" xMin="-109" yMin="-31" xMax="1367" yMax="1774">
      <component glyphName="Y" x="0" y="0" flags="0x204"/>
      <component glyphName="dieresis" x="356" y="252" flags="0x4"/>
    </TTGlyph>
    <TTGlyph name="Ygrave" xMin="-109" yMin="-31" xMax="1367" yMax="1874">
      <component glyphName="Y" x="0" y="0" flags="0x204"/>
      <component glyphName="grave" x="414" y="168" flags="0x4"/>
    </TTGlyph>
    <TTGlyph name="Z" xMin="55" yMin="-67" xMax="1569" yMax="1544">
      <contour>
        <pt x="1569" y="258" on="1"/>
        <pt x="1515" y="190" on="0"/>
        <pt x="1395" y="69" on="0"/>
        <pt x="1246" y="-19" on="0"/>
        <pt x="1057" y="-67" on="0"/>
        <pt x="934" y="-63" on="1"/>
        <pt x="837" y="-60" on="0"/>
        <pt x="628" y="-47" on="0"/>
        <pt x="426" y="-33" on="0"/>
        <pt x="244" y="-23" on="0"/>
        <pt x="174" y="-23" on="1"/>
        <pt x="136" y="-23" on="0"/>
        <pt x="75" y="-26" on="0"/>
        <pt x="55" y="-31" on="1"/>
        <pt x="87" y="2" on="0"/>
        <pt x="181" y="127" on="0"/>
        <pt x="293" y="288" on="0"/>
        <pt x="417" y="474" on="0"/>
        <pt x="542" y="662" on="0"/>
        <pt x="660" y="840" on="0"/>
        <pt x="711" y="913" on="1"/>
        <pt x="808" y="1054" on="0"/>
        <pt x="962" y="1255" on="0"/>
        <pt x="1022" y="1321" on="1"/>
        <pt x="980" y="1308" on="0"/>
        <pt x="894" y="1297" on="0"/>
        <pt x="859" y="1295" on="1"/>
        <pt x="818" y="1292" on="0"/>
        <pt x="780" y="1294" on="1"/>
        <pt x="671" y="1301" on="0"/>
        <pt x="461" y="1329" on="0"/>
        <pt x="365" y="1329" on="1"/>
        <pt x="284" y="1329" on="0"/>
        <pt x="143" y="1295" on="0"/>
        <pt x="86" y="1245" on="1"/>
        <pt x="152" y="1324" on="0"/>
        <pt x="266" y="1437" on="0"/>
        <pt x="389" y="1510" on="0"/>
        <pt x="535" y="1544" on="0"/>
        <pt x="633" y="1544" on="1"/>
        <pt x="702" y="1544" on="0"/>
        <pt x="833" y="1529" on="0"/>
        <pt x="962" y="1510" on="0"/>
        <pt x="1088" y="1495" on="0"/>
        <pt x="1153" y="1495" on="1"/>
        <pt x="1206" y="1495" on="0"/>
        <pt x="1309" y="1506" on="0"/>
        <pt x="1356" y="1520" on="1"/>
        <pt x="1303" y="1490" on="0"/>
        <pt x="1210" y="1397" on="0"/>
        <pt x="1175" y="1352" on="1"/>
        <pt x="1134" y="1300" on="0"/>
        <pt x="1098" y="1245" on="1"/>
        <pt x="1072" y="1202" on="0"/>
        <pt x="974" y="1049" on="0"/>
        <pt x="847" y="858" on="0"/>
        <pt x="699" y="643" on="0"/>
        <pt x="546" y="436" on="0"/>
        <pt x="397" y="252" on="0"/>
        <pt x="332" y="186" on="1"/>
        <pt x="342" y="186" on="1"/>
        <pt x="447" y="186" on="0"/>
        <pt x="652" y="172" on="0"/>
        <pt x="854" y="155" on="0"/>
        <pt x="1053" y="141" on="0"/>
        <pt x="1153" y="141" on="1"/>
        <pt x="1231" y="141" on="0"/>
        <pt x="1358" y="152" on="0"/>
        <pt x="1460" y="179" on="0"/>
        <pt x="1539" y="224" on="0"/>
      </contour>
    </TTGlyph>
    <TTGlyph name="Zacute" xMin="55" yMin="-67" xMax="1569" yMax="2037">
      <component glyphName="Z" x="0" y="0" flags="0x204"/>
      <component glyphName="acute" x="729" y="356" flags="0x4"/>
    </TTGlyph>
    <TTGlyph name="Zcaron" xMin="55" yMin="-67" xMax="1569" yMax="1962">
      <component glyphName="Z" x="0" y="0" flags="0x204"/>
      <component glyphName="caron" x="524" y="334" flags="0x4"/>
    </TTGlyph>
    <TTGlyph name="Zdotaccent" xMin="55" yMin="-67" xMax="1569" yMax="1878">
      <component glyphName="Z" x="0" y="0" flags="0x204"/>
      <component glyphName="dotaccent" x="612" y="356" flags="0x4"/>
    </TTGlyph>
    <TTGlyph name="a" xMin="98" yMin="-41" xMax="1491" yMax="1042">
      <contour>
        <pt x="1491" y="154" on="1"/>
        <pt x="1449" y="112" on="0"/>
        <pt x="1352" y="43" on="0"/>
        <pt x="1254" y="-7" on="0"/>
        <pt x="1162" y="-37" on="0"/>
        <pt x="1124" y="-39" on="1"/>
        <pt x="1103" y="-41" on="0"/>
        <pt x="1037" y="-36" on="0"/>
        <pt x="976" y="-6" on="0"/>
        <pt x="932" y="58" on="0"/>
        <pt x="932" y="117" on="1"/>
        <pt x="932" y="236" on="1"/>
        <pt x="877" y="182" on="0"/>
        <pt x="755" y="83" on="0"/>
        <pt x="626" y="6" on="0"/>
        <pt x="494" y="-39" on="0"/>
        <pt x="430" y="-39" on="1"/>
        <pt x="348" y="-39" on="0"/>
        <pt x="224" y="34" on="0"/>
        <pt x="140" y="150" on="0"/>
        <pt x="98" y="294" on="0"/>
        <pt x="98" y="365" on="1"/>
        <pt x="98" y="418" on="0"/>
        <pt x="114" y="521" on="0"/>
        <pt x="139" y="613" on="0"/>
        <pt x="172" y="687" on="0"/>
        <pt x="190" y="711" on="1"/>
        <pt x="223" y="756" on="0"/>
        <pt x="325" y="840" on="0"/>
        <pt x="446" y="914" on="0"/>
        <pt x="582" y="974" on="0"/>
        <pt x="717" y="1018" on="0"/>
        <pt x="845" y="1042" on="0"/>
        <pt x="899" y="1042" on="1"/>
        <pt x="955" y="1042" on="0"/>
        <pt x="1107" y="1031" on="0"/>
        <pt x="1204" y="1014" on="1"/>
        <pt x="1200" y="899" on="0"/>
        <pt x="1194" y="723" on="0"/>
        <pt x="1190" y="584" on="0"/>
        <pt x="1188" y="470" on="0"/>
        <pt x="1188" y="416" on="1"/>
        <pt x="1188" y="361" on="0"/>
        <pt x="1184" y="255" on="0"/>
        <pt x="1204" y="171" on="0"/>
        <pt x="1263" y="119" on="0"/>
        <pt x="1325" y="119" on="1"/>
        <pt x="1362" y="119" on="0"/>
        <pt x="1446" y="138" on="0"/>
      </contour>
      <contour>
        <pt x="934" y="870" on="1"/>
        <pt x="874" y="886" on="0"/>
        <pt x="738" y="899" on="0"/>
        <pt x="676" y="899" on="1"/>
        <pt x="642" y="899" on="0"/>
        <pt x="581" y="895" on="0"/>
        <pt x="531" y="889" on="0"/>
        <pt x="493" y="880" on="0"/>
        <pt x="483" y="874" on="1"/>
        <pt x="465" y="865" on="0"/>
        <pt x="417" y="796" on="0"/>
        <pt x="373" y="694" on="0"/>
        <pt x="342" y="566" on="0"/>
        <pt x="342" y="498" on="1"/>
        <pt x="342" y="433" on="0"/>
        <pt x="380" y="302" on="0"/>
        <pt x="453" y="198" on="0"/>
        <pt x="560" y="133" on="0"/>
        <pt x="629" y="133" on="1"/>
        <pt x="694" y="133" on="0"/>
        <pt x="794" y="175" on="0"/>
        <pt x="868" y="248" on="0"/>
        <pt x="917" y="346" on="0"/>
        <pt x="932" y="403" on="1"/>
        <pt x="932" y="445" on="0"/>
        <pt x="932" y="540" on="0"/>
        <pt x="932" y="654" on="0"/>
        <pt x="933" y="789" on="0"/>
      </contour>
    </TTGlyph>
    <TTGlyph name="aacute" xMin="98" yMin="-41" xMax="1491" yMax="1494">
      <component glyphName="a" x="0" y="0" flags="0x204"/>
      <component glyphName="acute" x="508" y="-187" flags="0x4"/>
    </TTGlyph>
    <TTGlyph name="abreve" xMin="98" yMin="-41" xMax="1491" yMax="1510">
      <component glyphName="a" x="0" y="0" flags="0x204"/>
      <component glyphName="breve" x="340" y="-116" flags="0x4"/>
    </TTGlyph>
    <TTGlyph name="acircumflex" xMin="98" yMin="-41" xMax="1491" yMax="1498">
      <component glyphName="a" x="0" y="0" flags="0x204"/>
      <component glyphName="circumflex" x="463" y="-130" flags="0x4"/>
    </TTGlyph>
    <TTGlyph name="acute" xMin="11" yMin="1253" xMax="559" yMax="1681">
      <contour>
        <pt x="559" y="1681" on="1"/>
        <pt x="532" y="1645" on="0"/>
        <pt x="507" y="1612" on="1"/>
        <pt x="486" y="1584" on="0"/>
        <pt x="442" y="1528" on="0"/>
        <pt x="428" y="1513" on="1"/>
        <pt x="365" y="1444" on="0"/>
        <pt x="221" y="1346" on="0"/>
        <pt x="158" y="1314" on="1"/>
        <pt x="85" y="1277" on="0"/>
        <pt x="12" y="1253" on="1"/>
        <pt x="11" y="1256" on="0"/>
        <pt x="11" y="1259" on="1"/>
        <pt x="11" y="1265" on="0"/>
        <pt x="12" y="1266" on="1"/>
        <pt x="63" y="1307" on="0"/>
        <pt x="128" y="1373" on="0"/>
        <pt x="178" y="1436" on="0"/>
        <pt x="224" y="1502" on="0"/>
        <pt x="256" y="1544" on="1"/>
        <pt x="280" y="1568" on="0"/>
        <pt x="353" y="1599" on="0"/>
        <pt x="436" y="1626" on="0"/>
        <pt x="522" y="1657" on="0"/>
      </contour>
    </TTGlyph>
    <TTGlyph name="adieresis" xMin="98" yMin="-41" xMax="1491" yMax="1412">
      <component glyphName="a" x="0" y="0" flags="0x204"/>
      <component glyphName="dieresis" x="391" y="-110" flags="0x4"/>
    </TTGlyph>
    <TTGlyph name="ae" xMin="94" yMin="-57" xMax="2191" yMax="1044">
      <contour>
        <pt x="426" y="-39" on="1"/>
        <pt x="344" y="-39" on="0"/>
        <pt x="220" y="34" on="0"/>
        <pt x="136" y="150" on="0"/>
        <pt x="94" y="294" on="0"/>
        <pt x="94" y="365" on="1"/>
        <pt x="94" y="469" on="0"/>
        <pt x="177" y="650" on="0"/>
        <pt x="311" y="801" on="0"/>
        <pt x="483" y="919" on="0"/>
        <pt x="661" y="1000" on="0"/>
        <pt x="830" y="1042" on="0"/>
        <pt x="895" y="1042" on="1"/>
        <pt x="951" y="1042" on="0"/>
        <pt x="1122" y="1031" on="0"/>
        <pt x="1219" y="1014" on="1"/>
        <pt x="1212" y="977" on="0"/>
        <pt x="1201" y="902" on="0"/>
        <pt x="1196" y="860" on="1"/>
        <pt x="1251" y="903" on="0"/>
        <pt x="1375" y="971" on="0"/>
        <pt x="1504" y="1019" on="0"/>
        <pt x="1633" y="1044" on="0"/>
        <pt x="1694" y="1044" on="1"/>
        <pt x="1743" y="1044" on="0"/>
        <pt x="1812" y="1014" on="0"/>
        <pt x="1825" y="977" on="1"/>
        <pt x="1831" y="937" on="0"/>
        <pt x="1796" y="891" on="1"/>
        <pt x="1781" y="871" on="0"/>
        <pt x="1730" y="826" on="0"/>
        <pt x="1649" y="776" on="0"/>
        <pt x="1535" y="722" on="0"/>
        <pt x="1458" y="694" on="1"/>
        <pt x="2191" y="934" on="1"/>
        <pt x="2076" y="878" on="0"/>
        <pt x="1879" y="790" on="0"/>
        <pt x="1804" y="760" on="1"/>
        <pt x="1717" y="724" on="0"/>
        <pt x="1645" y="698" on="1"/>
        <pt x="1600" y="679" on="0"/>
        <pt x="1491" y="640" on="0"/>
        <pt x="1373" y="602" on="0"/>
        <pt x="1250" y="565" on="0"/>
        <pt x="1190" y="547" on="1"/>
        <pt x="1190" y="528" on="1"/>
        <pt x="1190" y="425" on="0"/>
        <pt x="1254" y="261" on="0"/>
        <pt x="1371" y="147" on="0"/>
        <pt x="1532" y="86" on="0"/>
        <pt x="1630" y="86" on="1"/>
        <pt x="1681" y="86" on="0"/>
        <pt x="1782" y="101" on="0"/>
        <pt x="1874" y="128" on="0"/>
        <pt x="1954" y="166" on="0"/>
        <pt x="1985" y="188" on="1"/>
        <pt x="1909" y="120" on="0"/>
        <pt x="1748" y="29" on="0"/>
        <pt x="1587" y="-28" on="0"/>
        <pt x="1430" y="-54" on="0"/>
        <pt x="1358" y="-55" on="1"/>
        <pt x="1293" y="-57" on="0"/>
        <pt x="1165" y="-18" on="0"/>
        <pt x="1056" y="61" on="0"/>
        <pt x="972" y="180" on="0"/>
        <pt x="950" y="260" on="1"/>
        <pt x="894" y="202" on="0"/>
        <pt x="768" y="94" on="0"/>
        <pt x="633" y="11" on="0"/>
        <pt x="494" y="-39" on="0"/>
      </contour>
      <contour>
        <pt x="961" y="862" on="1"/>
        <pt x="928" y="871" on="0"/>
        <pt x="856" y="885" on="0"/>
        <pt x="781" y="894" on="0"/>
        <pt x="706" y="898" on="0"/>
        <pt x="672" y="899" on="1"/>
        <pt x="645" y="899" on="0"/>
        <pt x="574" y="885" on="0"/>
        <pt x="500" y="850" on="0"/>
        <pt x="428" y="791" on="0"/>
        <pt x="372" y="701" on="0"/>
        <pt x="338" y="579" on="0"/>
        <pt x="338" y="498" on="1"/>
        <pt x="338" y="433" on="0"/>
        <pt x="376" y="302" on="0"/>
        <pt x="449" y="198" on="0"/>
        <pt x="556" y="133" on="0"/>
        <pt x="625" y="133" on="1"/>
        <pt x="694" y="133" on="0"/>
        <pt x="794" y="176" on="0"/>
        <pt x="862" y="251" on="0"/>
        <pt x="905" y="351" on="0"/>
        <pt x="929" y="466" on="0"/>
        <pt x="941" y="589" on="0"/>
        <pt x="947" y="708" on="0"/>
        <pt x="954" y="818" on="0"/>
      </contour>
      <contour>
        <pt x="1399" y="690" on="1"/>
        <pt x="1442" y="709" on="0"/>
        <pt x="1510" y="753" on="0"/>
        <pt x="1549" y="801" on="0"/>
        <pt x="1552" y="854" on="0"/>
        <pt x="1530" y="883" on="1"/>
        <pt x="1514" y="904" on="0"/>
        <pt x="1461" y="922" on="0"/>
        <pt x="1434" y="922" on="1"/>
        <pt x="1408" y="922" on="0"/>
        <pt x="1360" y="910" on="0"/>
        <pt x="1341" y="901" on="1"/>
        <pt x="1329" y="894" on="0"/>
        <pt x="1288" y="847" on="0"/>
        <pt x="1244" y="773" on="0"/>
        <pt x="1205" y="673" on="0"/>
        <pt x="1196" y="614" on="1"/>
        <pt x="1259" y="639" on="0"/>
        <pt x="1361" y="673" on="0"/>
      </contour>
    </TTGlyph>
    <TTGlyph name="aeacute" xMin="94" yMin="-57" xMax="2191" yMax="1565">
      <component glyphName="ae" x="0" y="0" flags="0x204"/>
      <component glyphName="acute" x="1108" y="-116" flags="0x4"/>
    </TTGlyph>
    <TTGlyph name="agrave" xMin="98" yMin="-41" xMax="1491" yMax="1533">
      <component glyphName="a" x="0" y="0" flags="0x204"/>
      <component glyphName="grave" x="281" y="-173" flags="0x4"/>
    </TTGlyph>
    <TTGlyph name="amacron" xMin="98" yMin="-41" xMax="1491" yMax="1303">
      <component glyphName="a" x="0" y="0" flags="0x204"/>
      <component glyphName="macron" x="291" y="-159" flags="0x4"/>
    </TTGlyph>
    <TTGlyph name="ampersand" xMin="154" yMin="-55" xMax="1939" yMax="1530">
      <contour>
        <pt x="1939" y="938" on="1"/>
        <pt x="1862" y="870" on="0"/>
        <pt x="1661" y="771" on="0"/>
        <pt x="1540" y="739" on="1"/>
        <pt x="1560" y="696" on="0"/>
        <pt x="1575" y="611" on="0"/>
        <pt x="1575" y="575" on="1"/>
        <pt x="1575" y="549" on="0"/>
        <pt x="1570" y="506" on="0"/>
        <pt x="1567" y="490" on="1"/>
        <pt x="1563" y="472" on="0"/>
        <pt x="1559" y="457" on="1"/>
        <pt x="1493" y="346" on="0"/>
        <pt x="1312" y="159" on="0"/>
        <pt x="1092" y="22" on="0"/>
        <pt x="837" y="-55" on="0"/>
        <pt x="698" y="-55" on="1"/>
        <pt x="641" y="-55" on="0"/>
        <pt x="517" y="-39" on="0"/>
        <pt x="396" y="-4" on="0"/>
        <pt x="286" y="52" on="0"/>
        <pt x="203" y="132" on="0"/>
        <pt x="154" y="238" on="0"/>
        <pt x="154" y="305" on="1"/>
        <pt x="154" y="382" on="0"/>
        <pt x="219" y="520" on="0"/>
        <pt x="327" y="639" on="0"/>
        <pt x="465" y="734" on="0"/>
        <pt x="537" y="768" on="1"/>
        <pt x="499" y="784" on="0"/>
        <pt x="434" y="830" on="0"/>
        <pt x="387" y="889" on="0"/>
        <pt x="360" y="963" on="0"/>
        <pt x="360" y="1008" on="1"/>
        <pt x="360" y="1067" on="0"/>
        <pt x="397" y="1167" on="0"/>
        <pt x="460" y="1250" on="0"/>
        <pt x="542" y="1320" on="0"/>
        <pt x="634" y="1378" on="0"/>
        <pt x="730" y="1428" on="0"/>
        <pt x="774" y="1450" on="1"/>
        <pt x="822" y="1475" on="0"/>
        <pt x="920" y="1506" on="0"/>
        <pt x="1013" y="1524" on="0"/>
        <pt x="1096" y="1530" on="0"/>
        <pt x="1130" y="1530" on="1"/>
        <pt x="1144" y="1530" on="0"/>
        <pt x="1190" y="1525" on="0"/>
        <pt x="1239" y="1516" on="0"/>
        <pt x="1282" y="1501" on="0"/>
        <pt x="1307" y="1480" on="0"/>
        <pt x="1306" y="1453" on="0"/>
        <pt x="1286" y="1436" on="1"/>
        <pt x="1269" y="1422" on="0"/>
        <pt x="1237" y="1401" on="1"/>
        <pt x="1210" y="1383" on="0"/>
        <pt x="1118" y="1325" on="0"/>
        <pt x="1047" y="1284" on="1"/>
        <pt x="1067" y="1310" on="0"/>
        <pt x="1044" y="1351" on="0"/>
        <pt x="981" y="1380" on="0"/>
        <pt x="892" y="1395" on="0"/>
        <pt x="846" y="1395" on="1"/>
        <pt x="820" y="1395" on="0"/>
        <pt x="769" y="1390" on="0"/>
        <pt x="724" y="1379" on="0"/>
        <pt x="688" y="1363" on="0"/>
        <pt x="676" y="1352" on="1"/>
        <pt x="650" y="1327" on="0"/>
        <pt x="623" y="1243" on="0"/>
        <pt x="623" y="1192" on="1"/>
        <pt x="623" y="1103" on="0"/>
        <pt x="687" y="985" on="0"/>
        <pt x="793" y="913" on="0"/>
        <pt x="931" y="883" on="0"/>
        <pt x="1006" y="883" on="1"/>
        <pt x="1037" y="883" on="0"/>
        <pt x="1101" y="889" on="0"/>
        <pt x="1135" y="897" on="1"/>
        <pt x="1092" y="862" on="0"/>
        <pt x="995" y="802" on="0"/>
        <pt x="892" y="757" on="0"/>
        <pt x="785" y="731" on="0"/>
        <pt x="731" y="731" on="1"/>
        <pt x="705" y="731" on="0"/>
        <pt x="651" y="735" on="0"/>
        <pt x="625" y="741" on="1"/>
        <pt x="587" y="734" on="0"/>
        <pt x="535" y="719" on="0"/>
        <pt x="518" y="713" on="1"/>
        <pt x="499" y="705" on="0"/>
        <pt x="487" y="698" on="1"/>
        <pt x="472" y="688" on="0"/>
        <pt x="439" y="642" on="0"/>
        <pt x="412" y="578" on="0"/>
        <pt x="395" y="501" on="0"/>
        <pt x="395" y="461" on="1"/>
        <pt x="395" y="393" on="0"/>
        <pt x="453" y="289" on="0"/>
        <pt x="549" y="212" on="0"/>
        <pt x="672" y="159" on="0"/>
        <pt x="802" y="127" on="0"/>
        <pt x="928" y="113" on="0"/>
        <pt x="979" y="113" on="1"/>
        <pt x="1057" y="113" on="0"/>
        <pt x="1196" y="145" on="0"/>
        <pt x="1245" y="180" on="1"/>
        <pt x="1267" y="196" on="0"/>
        <pt x="1302" y="243" on="0"/>
        <pt x="1325" y="300" on="0"/>
        <pt x="1337" y="365" on="0"/>
        <pt x="1337" y="399" on="1"/>
        <pt x="1337" y="454" on="0"/>
        <pt x="1305" y="564" on="0"/>
        <pt x="1239" y="651" on="0"/>
        <pt x="1137" y="705" on="0"/>
        <pt x="1067" y="705" on="1"/>
        <pt x="1052" y="705" on="0"/>
        <pt x="1021" y="701" on="0"/>
        <pt x="1004" y="698" on="1"/>
        <pt x="1046" y="723" on="0"/>
        <pt x="1090" y="753" on="1"/>
        <pt x="1128" y="779" on="0"/>
        <pt x="1216" y="847" on="0"/>
        <pt x="1255" y="887" on="1"/>
        <pt x="1442" y="887" on="0"/>
        <pt x="1702" y="902" on="0"/>
        <pt x="1784" y="912" on="1"/>
        <pt x="1880" y="923" on="0"/>
      </contour>
    </TTGlyph>
    <TTGlyph name="aogonek" xMin="98" yMin="-471" xMax="1491" yMax="1042">
      <contour>
        <pt x="1491" y="-254" on="1"/>
        <pt x="1456" y="-282" on="0"/>
        <pt x="1364" y="-357" on="0"/>
        <pt x="1262" y="-424" on="0"/>
        <pt x="1157" y="-471" on="0"/>
        <pt x="1110" y="-471" on="1"/>
        <pt x="1075" y="-471" on="0"/>
        <pt x="1013" y="-441" on="0"/>
        <pt x="967" y="-391" on="0"/>
        <pt x="940" y="-327" on="0"/>
        <pt x="940" y="-293" on="1"/>
        <pt x="940" y="-218" on="0"/>
        <pt x="1019" y="-88" on="0"/>
        <pt x="1079" y="-39" on="1"/>
        <pt x="1055" y="-38" on="0"/>
        <pt x="1004" y="-23" on="0"/>
        <pt x="960" y="12" on="0"/>
        <pt x="932" y="71" on="0"/>
        <pt x="932" y="117" on="1"/>
        <pt x="932" y="236" on="1"/>
        <pt x="877" y="182" on="0"/>
        <pt x="755" y="83" on="0"/>
        <pt x="626" y="6" on="0"/>
        <pt x="494" y="-39" on="0"/>
        <pt x="430" y="-39" on="1"/>
        <pt x="348" y="-39" on="0"/>
        <pt x="224" y="34" on="0"/>
        <pt x="140" y="150" on="0"/>
        <pt x="98" y="294" on="0"/>
        <pt x="98" y="365" on="1"/>
        <pt x="98" y="418" on="0"/>
        <pt x="114" y="521" on="0"/>
        <pt x="139" y="613" on="0"/>
        <pt x="172" y="687" on="0"/>
        <pt x="190" y="711" on="1"/>
        <pt x="223" y="756" on="0"/>
        <pt x="325" y="840" on="0"/>
        <pt x="446" y="914" on="0"/>
        <pt x="582" y="974" on="0"/>
        <pt x="717" y="1018" on="0"/>
        <pt x="845" y="1042" on="0"/>
        <pt x="899" y="1042" on="1"/>
        <pt x="955" y="1042" on="0"/>
        <pt x="1107" y="1031" on="0"/>
        <pt x="1204" y="1014" on="1"/>
        <pt x="1200" y="899" on="0"/>
        <pt x="1194" y="723" on="0"/>
        <pt x="1190" y="584" on="0"/>
        <pt x="1188" y="470" on="0"/>
        <pt x="1188" y="416" on="1"/>
        <pt x="1188" y="361" on="0"/>
        <pt x="1184" y="255" on="0"/>
        <pt x="1204" y="171" on="0"/>
        <pt x="1263" y="119" on="0"/>
        <pt x="1325" y="119" on="1"/>
        <pt x="1362" y="119" on="0"/>
        <pt x="1446" y="138" on="0"/>
        <pt x="1491" y="154" on="1"/>
        <pt x="1454" y="118" on="0"/>
        <pt x="1372" y="56" on="0"/>
        <pt x="1287" y="8" on="0"/>
        <pt x="1204" y="-25" on="0"/>
        <pt x="1167" y="-33" on="1"/>
        <pt x="1149" y="-61" on="0"/>
        <pt x="1128" y="-122" on="0"/>
        <pt x="1128" y="-156" on="1"/>
        <pt x="1128" y="-191" on="0"/>
        <pt x="1157" y="-256" on="0"/>
        <pt x="1207" y="-305" on="0"/>
        <pt x="1271" y="-334" on="0"/>
        <pt x="1307" y="-334" on="1"/>
        <pt x="1331" y="-334" on="0"/>
        <pt x="1378" y="-317" on="0"/>
        <pt x="1424" y="-292" on="0"/>
        <pt x="1470" y="-264" on="0"/>
      </contour>
      <contour>
        <pt x="934" y="870" on="1"/>
        <pt x="874" y="886" on="0"/>
        <pt x="738" y="899" on="0"/>
        <pt x="676" y="899" on="1"/>
        <pt x="642" y="899" on="0"/>
        <pt x="581" y="895" on="0"/>
        <pt x="531" y="889" on="0"/>
        <pt x="493" y="880" on="0"/>
        <pt x="483" y="874" on="1"/>
        <pt x="465" y="865" on="0"/>
        <pt x="417" y="796" on="0"/>
        <pt x="373" y="694" on="0"/>
        <pt x="342" y="566" on="0"/>
        <pt x="342" y="498" on="1"/>
        <pt x="342" y="433" on="0"/>
        <pt x="380" y="302" on="0"/>
        <pt x="453" y="198" on="0"/>
        <pt x="560" y="133" on="0"/>
        <pt x="629" y="133" on="1"/>
        <pt x="694" y="133" on="0"/>
        <pt x="794" y="175" on="0"/>
        <pt x="868" y="248" on="0"/>
        <pt x="917" y="346" on="0"/>
        <pt x="932" y="403" on="1"/>
        <pt x="932" y="445" on="0"/>
        <pt x="932" y="540" on="0"/>
        <pt x="932" y="654" on="0"/>
        <pt x="933" y="789" on="0"/>
      </contour>
    </TTGlyph>
    <TTGlyph name="approxequal" xMin="164" yMin="373" xMax="1114" yMax="1135">
      <contour>
        <pt x="1114" y="1135" on="1"/>
        <pt x="1092" y="1062" on="0"/>
        <pt x="1032" y="928" on="0"/>
        <pt x="948" y="825" on="0"/>
        <pt x="835" y="764" on="0"/>
        <pt x="760" y="764" on="1"/>
        <pt x="712" y="764" on="0"/>
        <pt x="616" y="807" on="0"/>
        <pt x="528" y="860" on="0"/>
        <pt x="451" y="908" on="0"/>
        <pt x="420" y="913" on="1"/>
        <pt x="400" y="914" on="0"/>
        <pt x="381" y="906" on="1"/>
        <pt x="364" y="899" on="0"/>
        <pt x="328" y="863" on="0"/>
        <pt x="315" y="827" on="1"/>
        <pt x="307" y="805" on="0"/>
        <pt x="272" y="784" on="0"/>
        <pt x="229" y="766" on="0"/>
        <pt x="183" y="741" on="0"/>
        <pt x="164" y="715" on="1"/>
        <pt x="178" y="747" on="0"/>
        <pt x="216" y="825" on="0"/>
        <pt x="268" y="903" on="0"/>
        <pt x="336" y="977" on="0"/>
        <pt x="421" y="1034" on="0"/>
        <pt x="525" y="1069" on="0"/>
        <pt x="588" y="1069" on="1"/>
        <pt x="633" y="1069" on="0"/>
        <pt x="723" y="1030" on="0"/>
        <pt x="808" y="983" on="0"/>
        <pt x="885" y="944" on="0"/>
        <pt x="915" y="944" on="1"/>
        <pt x="940" y="944" on="0"/>
        <pt x="979" y="979" on="0"/>
        <pt x="991" y="1022" on="1"/>
        <pt x="996" y="1041" on="0"/>
        <pt x="1022" y="1055" on="0"/>
        <pt x="1056" y="1070" on="0"/>
        <pt x="1096" y="1100" on="0"/>
      </contour>
      <contour>
        <pt x="1114" y="791" on="1"/>
        <pt x="1092" y="719" on="0"/>
        <pt x="1032" y="585" on="0"/>
        <pt x="948" y="482" on="0"/>
        <pt x="835" y="420" on="0"/>
        <pt x="760" y="420" on="1"/>
        <pt x="712" y="420" on="0"/>
        <pt x="616" y="463" on="0"/>
        <pt x="528" y="517" on="0"/>
        <pt x="451" y="566" on="0"/>
        <pt x="420" y="571" on="1"/>
        <pt x="400" y="572" on="0"/>
        <pt x="381" y="564" on="1"/>
        <pt x="364" y="557" on="0"/>
        <pt x="328" y="521" on="0"/>
        <pt x="315" y="485" on="1"/>
        <pt x="307" y="463" on="0"/>
        <pt x="272" y="442" on="0"/>
        <pt x="229" y="424" on="0"/>
        <pt x="183" y="399" on="0"/>
        <pt x="164" y="373" on="1"/>
        <pt x="178" y="405" on="0"/>
        <pt x="216" y="483" on="0"/>
        <pt x="268" y="561" on="0"/>
        <pt x="336" y="635" on="0"/>
        <pt x="421" y="692" on="0"/>
        <pt x="525" y="727" on="0"/>
        <pt x="588" y="727" on="1"/>
        <pt x="633" y="727" on="0"/>
        <pt x="723" y="688" on="0"/>
        <pt x="808" y="641" on="0"/>
        <pt x="885" y="602" on="0"/>
        <pt x="915" y="602" on="1"/>
        <pt x="940" y="602" on="0"/>
        <pt x="979" y="637" on="0"/>
        <pt x="991" y="680" on="1"/>
        <pt x="996" y="699" on="0"/>
        <pt x="1022" y="713" on="0"/>
        <pt x="1056" y="728" on="0"/>
        <pt x="1096" y="757" on="0"/>
      </contour>
    </TTGlyph>
    <TTGlyph name="aring" xMin="98" yMin="-41" xMax="1491" yMax="1643">
      <component glyphName="a" x="0" y="0" flags="0x204"/>
      <component glyphName="ring" x="487" y="-71" flags="0x4"/>
    </TTGlyph>
</ttFont>
